<?xml version="1.0" encoding="us-ascii" standalone="no"?><svg xmlns="http://www.w3.org/2000/svg" xmlns:xlink="http://www.w3.org/1999/xlink" contentStyleType="text/css" height="347px" preserveAspectRatio="none" style="width:605px;height:347px;background:#FFFFFF;" version="1.1" viewBox="0 0 605 347" width="605px" zoomAndPan="magnify"><defs/><g><text fill="#000000" font-family="sans-serif" font-size="14" font-weight="bold" lengthAdjust="spacing" textLength="577" x="10" y="29.5332">Content Management System - CM - Add Actor Profile - Sequence - Container level</text><rect fill="#FFFFFF" height="297.0313" style="stroke:#181818;stroke-width:0.5;" width="130" x="286.75" y="44.6094"/><text fill="#000000" font-family="sans-serif" font-size="13" font-weight="bold" lengthAdjust="spacing" textLength="41" x="331.25" y="58.1045">Admin</text><rect fill="none" height="127.7578" style="stroke:#000000;stroke-width:1.5;" width="315.5" x="202.25" y="161.2734"/><rect fill="none" height="65.0547" style="stroke:#000000;stroke-width:1.5;" width="227" x="280.75" y="216.9766"/><line style="stroke:#181818;stroke-width:0.5;stroke-dasharray:5.0,5.0;" x1="107.25" x2="107.25" y1="97.5703" y2="306.0313"/><line style="stroke:#181818;stroke-width:0.5;stroke-dasharray:5.0,5.0;" x1="229.25" x2="229.25" y1="97.5703" y2="306.0313"/><line style="stroke:#181818;stroke-width:0.5;stroke-dasharray:5.0,5.0;" x1="351.75" x2="351.75" y1="97.5703" y2="306.0313"/><line style="stroke:#181818;stroke-width:0.5;stroke-dasharray:5.0,5.0;" x1="459.75" x2="459.75" y1="97.5703" y2="306.0313"/><rect fill="#E2E2F0" height="31.6094" rx="2.5" ry="2.5" style="stroke:#181818;stroke-width:0.5;" width="65" x="75.25" y="64.9609"/><text fill="#000000" font-family="sans-serif" font-size="14" lengthAdjust="spacing" textLength="51" x="82.25" y="86.4941">External</text><rect fill="#E2E2F0" height="31.6094" rx="2.5" ry="2.5" style="stroke:#181818;stroke-width:0.5;" width="65" x="75.25" y="305.0313"/><text fill="#000000" font-family="sans-serif" font-size="14" lengthAdjust="spacing" textLength="51" x="82.25" y="326.5645">External</text><rect fill="#E2E2F0" height="31.6094" rx="2.5" ry="2.5" style="stroke:#181818;stroke-width:0.5;" width="35" x="212.25" y="64.9609"/><text fill="#000000" font-family="sans-serif" font-size="14" lengthAdjust="spacing" textLength="21" x="219.25" y="86.4941">CM</text><rect fill="#E2E2F0" height="31.6094" rx="2.5" ry="2.5" style="stroke:#181818;stroke-width:0.5;" width="35" x="212.25" y="305.0313"/><text fill="#000000" font-family="sans-serif" font-size="14" lengthAdjust="spacing" textLength="21" x="219.25" y="326.5645">CM</text><rect fill="#E2E2F0" height="31.6094" rx="2.5" ry="2.5" style="stroke:#181818;stroke-width:0.5;" width="122" x="290.75" y="64.9609"/><text fill="#000000" font-family="sans-serif" font-size="14" lengthAdjust="spacing" textLength="108" x="297.75" y="86.4941">Content Sections</text><rect fill="#E2E2F0" height="31.6094" rx="2.5" ry="2.5" style="stroke:#181818;stroke-width:0.5;" width="122" x="290.75" y="305.0313"/><text fill="#000000" font-family="sans-serif" font-size="14" lengthAdjust="spacing" textLength="108" x="297.75" y="326.5645">Content Sections</text><rect fill="#E2E2F0" height="31.6094" rx="2.5" ry="2.5" style="stroke:#181818;stroke-width:0.5;" width="75" x="422.75" y="64.9609"/><text fill="#000000" font-family="sans-serif" font-size="14" lengthAdjust="spacing" textLength="61" x="429.75" y="86.4941">Database</text><rect fill="#E2E2F0" height="31.6094" rx="2.5" ry="2.5" style="stroke:#181818;stroke-width:0.5;" width="75" x="422.75" y="305.0313"/><text fill="#000000" font-family="sans-serif" font-size="14" lengthAdjust="spacing" textLength="61" x="429.75" y="326.5645">Database</text><polygon fill="#181818" points="217.75,142.2734,227.75,146.2734,217.75,150.2734,221.75,146.2734" style="stroke:#181818;stroke-width:1.0;"/><line style="stroke:#181818;stroke-width:1.0;" x1="107.75" x2="223.75" y1="146.2734" y2="146.2734"/><text fill="#000000" font-family="sans-serif" font-size="13" lengthAdjust="spacing" textLength="98" x="114.75" y="125.0654">Add Actor Profile</text><text fill="#000000" font-family="sans-serif" font-size="13" lengthAdjust="spacing" textLength="42" x="114.75" y="141.417">[HTML]</text><path d="M202.25,161.2734 L355.25,161.2734 L355.25,169.625 L345.25,179.625 L202.25,179.625 L202.25,161.2734 " fill="#EEEEEE" style="stroke:#000000;stroke-width:1.5;"/><rect fill="none" height="127.7578" style="stroke:#000000;stroke-width:1.5;" width="315.5" x="202.25" y="161.2734"/><text fill="#000000" font-family="sans-serif" font-size="13" font-weight="bold" lengthAdjust="spacing" textLength="108" x="217.25" y="175.7686">Add Actor Profile</text><polygon fill="#181818" points="339.75,197.9766,349.75,201.9766,339.75,205.9766,343.75,201.9766" style="stroke:#181818;stroke-width:1.0;"/><line style="stroke:#181818;stroke-width:1.0;" x1="229.75" x2="345.75" y1="201.9766" y2="201.9766"/><text fill="#000000" font-family="sans-serif" font-size="13" lengthAdjust="spacing" textLength="98" x="236.75" y="197.1201">Add Actor Profile</text><path d="M280.75,216.9766 L433.75,216.9766 L433.75,225.3281 L423.75,235.3281 L280.75,235.3281 L280.75,216.9766 " fill="#EEEEEE" style="stroke:#000000;stroke-width:1.5;"/><rect fill="none" height="65.0547" style="stroke:#000000;stroke-width:1.5;" width="227" x="280.75" y="216.9766"/><text fill="#000000" font-family="sans-serif" font-size="13" font-weight="bold" lengthAdjust="spacing" textLength="108" x="295.75" y="231.4717">Add Actor Profile</text><polygon fill="#181818" points="448.25,270.0313,458.25,274.0313,448.25,278.0313,452.25,274.0313" style="stroke:#181818;stroke-width:1.0;"/><line style="stroke:#181818;stroke-width:1.0;" x1="351.75" x2="454.25" y1="274.0313" y2="274.0313"/><text fill="#000000" font-family="sans-serif" font-size="13" lengthAdjust="spacing" textLength="76" x="358.75" y="252.8232">Data Storage</text><text fill="#000000" font-family="sans-serif" font-size="13" lengthAdjust="spacing" textLength="34" x="358.75" y="269.1748">[SQL]</text><!--SRC=[fL9DIyGm4BtFhnZgkJrvyY2KgYXOK29uK0_PTdODj4bDPjtrtplTR9MrmXeC94n8tiUyX0rtX9MpJ9QnrbQlg1zBzH6OUiongcKfsnRBXft7E- -MHY0vAdfRast6SiHhOybZH-_K0GpQisdCe8KfkzmoUQkx37N0wlH6jFnLvpQ5SalUQ4zHAnJJnRW_9Adg28zElut6kpEggWPOk2rcPTiRc-79uwjX0fHnIBllN573njcG9BBZBhwQ3yKUE941sHR5nOyyBZJhXGwKf3M10FwU8ERd2O7XsVoPd-tJzKDz-m8hxzR3_1mIw1FC70lsDwl_jdXKDA61wRN4w5YY4aE2a3ZLlQGf_s8tuHC0]--></g></svg>