<?xml version="1.0" encoding="us-ascii" standalone="no"?><svg xmlns="http://www.w3.org/2000/svg" xmlns:xlink="http://www.w3.org/1999/xlink" contentStyleType="text/css" height="470px" preserveAspectRatio="none" style="width:717px;height:470px;background:#FFFFFF;" version="1.1" viewBox="0 0 717 470" width="717px" zoomAndPan="magnify"><defs/><g><text fill="#000000" font-family="sans-serif" font-size="14" font-weight="bold" lengthAdjust="spacing" textLength="689" x="10" y="29.5332">Content Management System - Regular Public Web Surfer Activities - Sequence - Component level</text><rect fill="#FFFFFF" height="419.7891" style="stroke:#181818;stroke-width:0.5;" width="207" x="342" y="44.6094"/><text fill="#000000" font-family="sans-serif" font-size="13" font-weight="bold" lengthAdjust="spacing" textLength="107" x="392" y="58.1045">Content Sections</text><rect fill="none" height="78.0547" style="stroke:#000000;stroke-width:1.5;" width="187" x="336" y="207.9766"/><rect fill="none" height="65.0547" style="stroke:#000000;stroke-width:1.5;" width="219" x="336" y="346.7344"/><line style="stroke:#181818;stroke-width:0.5;stroke-dasharray:5.0,5.0;" x1="241" x2="241" y1="97.5703" y2="428.7891"/><line style="stroke:#181818;stroke-width:0.5;stroke-dasharray:5.0,5.0;" x1="375" x2="375" y1="97.5703" y2="428.7891"/><line style="stroke:#181818;stroke-width:0.5;stroke-dasharray:5.0,5.0;" x1="518" x2="518" y1="97.5703" y2="428.7891"/><rect fill="#E2E2F0" height="31.6094" rx="2.5" ry="2.5" style="stroke:#181818;stroke-width:0.5;" width="182" x="150" y="64.9609"/><text fill="#000000" font-family="sans-serif" font-size="14" lengthAdjust="spacing" textLength="168" x="157" y="86.4941">Regular Public Web Surfer</text><rect fill="#E2E2F0" height="31.6094" rx="2.5" ry="2.5" style="stroke:#181818;stroke-width:0.5;" width="182" x="150" y="427.7891"/><text fill="#000000" font-family="sans-serif" font-size="14" lengthAdjust="spacing" textLength="168" x="157" y="449.3223">Regular Public Web Surfer</text><rect fill="#E2E2F0" height="31.6094" rx="2.5" ry="2.5" style="stroke:#181818;stroke-width:0.5;" width="58" x="346" y="64.9609"/><text fill="#000000" font-family="sans-serif" font-size="14" lengthAdjust="spacing" textLength="44" x="353" y="86.4941">Movies</text><rect fill="#E2E2F0" height="31.6094" rx="2.5" ry="2.5" style="stroke:#181818;stroke-width:0.5;" width="58" x="346" y="427.7891"/><text fill="#000000" font-family="sans-serif" font-size="14" lengthAdjust="spacing" textLength="44" x="353" y="449.3223">Movies</text><rect fill="#E2E2F0" height="31.6094" rx="2.5" ry="2.5" style="stroke:#181818;stroke-width:0.5;" width="54" x="491" y="64.9609"/><text fill="#000000" font-family="sans-serif" font-size="14" lengthAdjust="spacing" textLength="40" x="498" y="86.4941">Dining</text><rect fill="#E2E2F0" height="31.6094" rx="2.5" ry="2.5" style="stroke:#181818;stroke-width:0.5;" width="54" x="491" y="427.7891"/><text fill="#000000" font-family="sans-serif" font-size="14" lengthAdjust="spacing" textLength="40" x="498" y="449.3223">Dining</text><polygon fill="#181818" points="363,142.2734,373,146.2734,363,150.2734,367,146.2734" style="stroke:#181818;stroke-width:1.0;"/><line style="stroke:#181818;stroke-width:1.0;" x1="241" x2="369" y1="146.2734" y2="146.2734"/><text fill="#000000" font-family="sans-serif" font-size="13" lengthAdjust="spacing" textLength="110" x="248" y="125.0654">Public Visit Movies</text><text fill="#000000" font-family="sans-serif" font-size="13" lengthAdjust="spacing" textLength="49" x="248" y="141.417">[HTTPS]</text><polygon fill="#181818" points="363,188.9766,373,192.9766,363,196.9766,367,192.9766" style="stroke:#181818;stroke-width:1.0;"/><line style="stroke:#181818;stroke-width:1.0;" x1="241" x2="369" y1="192.9766" y2="192.9766"/><text fill="#000000" font-family="sans-serif" font-size="13" lengthAdjust="spacing" textLength="80" x="248" y="171.7686">Movie_Review</text><text fill="#000000" font-family="sans-serif" font-size="13" lengthAdjust="spacing" textLength="49" x="248" y="188.1201">[HTTPS]</text><path d="M336,207.9766 L473,207.9766 L473,216.3281 L463,226.3281 L336,226.3281 L336,207.9766 " fill="#EEEEEE" style="stroke:#000000;stroke-width:1.5;"/><rect fill="none" height="78.0547" style="stroke:#000000;stroke-width:1.5;" width="187" x="336" y="207.9766"/><text fill="#000000" font-family="sans-serif" font-size="13" font-weight="bold" lengthAdjust="spacing" textLength="92" x="351" y="222.4717">Movie_Review</text><line style="stroke:#181818;stroke-width:1.0;" x1="375" x2="417" y1="265.0313" y2="265.0313"/><line style="stroke:#181818;stroke-width:1.0;" x1="417" x2="417" y1="265.0313" y2="278.0313"/><line style="stroke:#181818;stroke-width:1.0;" x1="376" x2="417" y1="278.0313" y2="278.0313"/><polygon fill="#181818" points="386,274.0313,376,278.0313,386,282.0313,382,278.0313" style="stroke:#181818;stroke-width:1.0;"/><text fill="#000000" font-family="sans-serif" font-size="13" lengthAdjust="spacing" textLength="129" x="382" y="243.8232">See Approved Content</text><text fill="#000000" font-family="sans-serif" font-size="13" lengthAdjust="spacing" textLength="49" x="382" y="260.1748">[HTTPS]</text><polygon fill="#181818" points="363,327.7344,373,331.7344,363,335.7344,367,331.7344" style="stroke:#181818;stroke-width:1.0;"/><line style="stroke:#181818;stroke-width:1.0;" x1="241" x2="369" y1="331.7344" y2="331.7344"/><text fill="#000000" font-family="sans-serif" font-size="13" lengthAdjust="spacing" textLength="88" x="248" y="310.5264">Move To Dining</text><text fill="#000000" font-family="sans-serif" font-size="13" lengthAdjust="spacing" textLength="62" x="248" y="326.8779">[Hyperlink]</text><path d="M336,346.7344 L480,346.7344 L480,355.0859 L470,365.0859 L336,365.0859 L336,346.7344 " fill="#EEEEEE" style="stroke:#000000;stroke-width:1.5;"/><rect fill="none" height="65.0547" style="stroke:#000000;stroke-width:1.5;" width="219" x="336" y="346.7344"/><text fill="#000000" font-family="sans-serif" font-size="13" font-weight="bold" lengthAdjust="spacing" textLength="99" x="351" y="361.2295">Move To Dining</text><polygon fill="#181818" points="506,399.7891,516,403.7891,506,407.7891,510,403.7891" style="stroke:#181818;stroke-width:1.0;"/><line style="stroke:#181818;stroke-width:1.0;" x1="375" x2="512" y1="403.7891" y2="403.7891"/><text fill="#000000" font-family="sans-serif" font-size="13" lengthAdjust="spacing" textLength="71" x="382" y="382.5811">Enter Dining</text><text fill="#000000" font-family="sans-serif" font-size="13" lengthAdjust="spacing" textLength="49" x="382" y="398.9326">[HTTPS]</text><!--SRC=[rPF1JiCm38RlUGghdDS7u80q3IGkawPbOWT0A6kzOj4c8KaxzlQupKex8JWWLHezLAvh-_zi9u52YR0mEg0Ei5HQ5LYrfZpwW1NCO8r5NIe7gtfNKWPRt86itHuTpBD03GL2ps4ItslK6RAvC9KrkYrIOeEb45QvG1bPnQxante9AD-J322H8sKjutnwIewvd1epXTYP3qZcUKKwWQljAmKKm4_qzzr9P62Z_Ld86TlIDDpDho3IxCD1EOoVFkr4qpPQaKP6F2NsOkdND7mQot-NlILDkfXCDfONg7FWUOZ147-QDink9fmENFSduu4yyP7il4_wyNwpMSdd2qNkZ9Srylimi1RErFRidvYGOkeU9IBChNMcmRnN6dhbGtMvkq7O68ZNe2K-MdGbwRVHXaOH_t174PnxlUCGD-fqs8tu1000]--></g></svg>