<?xml version="1.0" encoding="us-ascii" standalone="no"?><svg xmlns="http://www.w3.org/2000/svg" xmlns:xlink="http://www.w3.org/1999/xlink" contentStyleType="text/css" height="347px" preserveAspectRatio="none" style="width:684px;height:347px;background:#FFFFFF;" version="1.1" viewBox="0 0 684 347" width="684px" zoomAndPan="magnify"><defs/><g><text fill="#000000" font-family="sans-serif" font-size="14" font-weight="bold" lengthAdjust="spacing" textLength="656" x="10" y="29.5332">Content Management System - CM - Make Actor Profile Template - Sequence - Container level</text><rect fill="#FFFFFF" height="297.0313" style="stroke:#181818;stroke-width:0.5;" width="130" x="390.25" y="44.6094"/><text fill="#000000" font-family="sans-serif" font-size="13" font-weight="bold" lengthAdjust="spacing" textLength="41" x="434.75" y="58.1045">Admin</text><rect fill="none" height="127.7578" style="stroke:#000000;stroke-width:1.5;" width="385.5" x="239.75" y="161.2734"/><rect fill="none" height="65.0547" style="stroke:#000000;stroke-width:1.5;" width="231" x="384.25" y="216.9766"/><line style="stroke:#181818;stroke-width:0.5;stroke-dasharray:5.0,5.0;" x1="78.75" x2="78.75" y1="97.5703" y2="306.0313"/><line style="stroke:#181818;stroke-width:0.5;stroke-dasharray:5.0,5.0;" x1="266.75" x2="266.75" y1="97.5703" y2="306.0313"/><line style="stroke:#181818;stroke-width:0.5;stroke-dasharray:5.0,5.0;" x1="455.25" x2="455.25" y1="97.5703" y2="306.0313"/><line style="stroke:#181818;stroke-width:0.5;stroke-dasharray:5.0,5.0;" x1="563.25" x2="563.25" y1="97.5703" y2="306.0313"/><rect fill="#E2E2F0" height="31.6094" rx="2.5" ry="2.5" style="stroke:#181818;stroke-width:0.5;" width="65" x="46.75" y="64.9609"/><text fill="#000000" font-family="sans-serif" font-size="14" lengthAdjust="spacing" textLength="51" x="53.75" y="86.4941">External</text><rect fill="#E2E2F0" height="31.6094" rx="2.5" ry="2.5" style="stroke:#181818;stroke-width:0.5;" width="65" x="46.75" y="305.0313"/><text fill="#000000" font-family="sans-serif" font-size="14" lengthAdjust="spacing" textLength="51" x="53.75" y="326.5645">External</text><rect fill="#E2E2F0" height="31.6094" rx="2.5" ry="2.5" style="stroke:#181818;stroke-width:0.5;" width="35" x="249.75" y="64.9609"/><text fill="#000000" font-family="sans-serif" font-size="14" lengthAdjust="spacing" textLength="21" x="256.75" y="86.4941">CM</text><rect fill="#E2E2F0" height="31.6094" rx="2.5" ry="2.5" style="stroke:#181818;stroke-width:0.5;" width="35" x="249.75" y="305.0313"/><text fill="#000000" font-family="sans-serif" font-size="14" lengthAdjust="spacing" textLength="21" x="256.75" y="326.5645">CM</text><rect fill="#E2E2F0" height="31.6094" rx="2.5" ry="2.5" style="stroke:#181818;stroke-width:0.5;" width="122" x="394.25" y="64.9609"/><text fill="#000000" font-family="sans-serif" font-size="14" lengthAdjust="spacing" textLength="108" x="401.25" y="86.4941">Content Sections</text><rect fill="#E2E2F0" height="31.6094" rx="2.5" ry="2.5" style="stroke:#181818;stroke-width:0.5;" width="122" x="394.25" y="305.0313"/><text fill="#000000" font-family="sans-serif" font-size="14" lengthAdjust="spacing" textLength="108" x="401.25" y="326.5645">Content Sections</text><rect fill="#E2E2F0" height="31.6094" rx="2.5" ry="2.5" style="stroke:#181818;stroke-width:0.5;" width="75" x="526.25" y="64.9609"/><text fill="#000000" font-family="sans-serif" font-size="14" lengthAdjust="spacing" textLength="61" x="533.25" y="86.4941">Database</text><rect fill="#E2E2F0" height="31.6094" rx="2.5" ry="2.5" style="stroke:#181818;stroke-width:0.5;" width="75" x="526.25" y="305.0313"/><text fill="#000000" font-family="sans-serif" font-size="14" lengthAdjust="spacing" textLength="61" x="533.25" y="326.5645">Database</text><polygon fill="#181818" points="255.25,142.2734,265.25,146.2734,255.25,150.2734,259.25,146.2734" style="stroke:#181818;stroke-width:1.0;"/><line style="stroke:#181818;stroke-width:1.0;" x1="79.25" x2="261.25" y1="146.2734" y2="146.2734"/><text fill="#000000" font-family="sans-serif" font-size="13" lengthAdjust="spacing" textLength="164" x="86.25" y="125.0654">Make Actor Profile Template</text><text fill="#000000" font-family="sans-serif" font-size="13" lengthAdjust="spacing" textLength="145" x="86.25" y="141.417">[HTML with Tcl and SQL]</text><path d="M239.75,161.2734 L465.75,161.2734 L465.75,169.625 L455.75,179.625 L239.75,179.625 L239.75,161.2734 " fill="#EEEEEE" style="stroke:#000000;stroke-width:1.5;"/><rect fill="none" height="127.7578" style="stroke:#000000;stroke-width:1.5;" width="385.5" x="239.75" y="161.2734"/><text fill="#000000" font-family="sans-serif" font-size="13" font-weight="bold" lengthAdjust="spacing" textLength="181" x="254.75" y="175.7686">Make Actor Profile Template</text><polygon fill="#181818" points="443.25,197.9766,453.25,201.9766,443.25,205.9766,447.25,201.9766" style="stroke:#181818;stroke-width:1.0;"/><line style="stroke:#181818;stroke-width:1.0;" x1="267.25" x2="449.25" y1="201.9766" y2="201.9766"/><text fill="#000000" font-family="sans-serif" font-size="13" lengthAdjust="spacing" textLength="164" x="274.25" y="197.1201">Make Actor Profile Template</text><path d="M384.25,216.9766 L610.25,216.9766 L610.25,225.3281 L600.25,235.3281 L384.25,235.3281 L384.25,216.9766 " fill="#EEEEEE" style="stroke:#000000;stroke-width:1.5;"/><rect fill="none" height="65.0547" style="stroke:#000000;stroke-width:1.5;" width="231" x="384.25" y="216.9766"/><text fill="#000000" font-family="sans-serif" font-size="13" font-weight="bold" lengthAdjust="spacing" textLength="181" x="399.25" y="231.4717">Make Actor Profile Template</text><polygon fill="#181818" points="551.75,270.0313,561.75,274.0313,551.75,278.0313,555.75,274.0313" style="stroke:#181818;stroke-width:1.0;"/><line style="stroke:#181818;stroke-width:1.0;" x1="455.25" x2="557.75" y1="274.0313" y2="274.0313"/><text fill="#000000" font-family="sans-serif" font-size="13" lengthAdjust="spacing" textLength="76" x="462.25" y="252.8232">Data Storage</text><text fill="#000000" font-family="sans-serif" font-size="13" lengthAdjust="spacing" textLength="34" x="462.25" y="269.1748">[SQL]</text><!--SRC=[hP91IyD048Nl-ok6U6vEdZm89IeANL0IyA0UfkcqNTpinjsfgV_UIT8eLKWD64YOiFlUVFDssR0boBnZSWmQ7MweQily8p9LC8DCoqVZAy6yP1_WFlYr4Kr1LMsHILPpUjkHAzkoTKBZA82bTx9ArHZObAP6yKokzqp1eKq08sJdTz8rt5ZVfBbVSuE1-gun7JRs_ySccUxbFVCtSh_tbrMcbLhwFIJpLMLS0cUFMyEaG9vZsqC6EPLil8kJcdJUwTVmCJq81pD5RWL2yIEFAsHSOgH9lGQHKdzF46QN4mA3Yx43VtPFjuLUG6Du2qLf0MMs_67neZR1x-engPh0C87uLFhZy_mZzacG2KCDnopmRGcva8b2qk-obWlLlUeJ]--></g></svg>