<?xml version="1.0" encoding="us-ascii" standalone="no"?><svg xmlns="http://www.w3.org/2000/svg" xmlns:xlink="http://www.w3.org/1999/xlink" contentStyleType="text/css" height="518px" preserveAspectRatio="none" style="width:599px;height:518px;background:#FFFFFF;" version="1.1" viewBox="0 0 599 518" width="599px" zoomAndPan="magnify"><defs/><g><text fill="#000000" font-family="sans-serif" font-size="14" font-weight="bold" lengthAdjust="spacing" textLength="571" x="10" y="29.5332">Content Management System - Publisher Activities - Sequence - Component level</text><rect fill="#FFFFFF" height="467.8438" style="stroke:#181818;stroke-width:0.5;" width="130" x="223" y="44.6094"/><text fill="#000000" font-family="sans-serif" font-size="13" font-weight="bold" lengthAdjust="spacing" textLength="41" x="267.5" y="58.1045">Admin</text><rect fill="none" height="111.7578" style="stroke:#000000;stroke-width:1.5;" width="246.5" x="217" y="161.2734"/><line style="stroke:#181818;stroke-width:0.5;stroke-dasharray:5.0,5.0;" x1="159.5" x2="159.5" y1="97.5703" y2="476.8438"/><line style="stroke:#181818;stroke-width:0.5;stroke-dasharray:5.0,5.0;" x1="288" x2="288" y1="97.5703" y2="476.8438"/><line style="stroke:#181818;stroke-width:0.5;stroke-dasharray:5.0,5.0;" x1="415.5" x2="415.5" y1="97.5703" y2="476.8438"/><rect fill="#E2E2F0" height="31.6094" rx="2.5" ry="2.5" style="stroke:#181818;stroke-width:0.5;" width="73" x="123.5" y="64.9609"/><text fill="#000000" font-family="sans-serif" font-size="14" lengthAdjust="spacing" textLength="59" x="130.5" y="86.4941">Publisher</text><rect fill="#E2E2F0" height="31.6094" rx="2.5" ry="2.5" style="stroke:#181818;stroke-width:0.5;" width="73" x="123.5" y="475.8438"/><text fill="#000000" font-family="sans-serif" font-size="14" lengthAdjust="spacing" textLength="59" x="130.5" y="497.377">Publisher</text><rect fill="#E2E2F0" height="31.6094" rx="2.5" ry="2.5" style="stroke:#181818;stroke-width:0.5;" width="122" x="227" y="64.9609"/><text fill="#000000" font-family="sans-serif" font-size="14" lengthAdjust="spacing" textLength="108" x="234" y="86.4941">Content Sections</text><rect fill="#E2E2F0" height="31.6094" rx="2.5" ry="2.5" style="stroke:#181818;stroke-width:0.5;" width="122" x="227" y="475.8438"/><text fill="#000000" font-family="sans-serif" font-size="14" lengthAdjust="spacing" textLength="108" x="234" y="497.377">Content Sections</text><rect fill="#E2E2F0" height="31.6094" rx="2.5" ry="2.5" style="stroke:#181818;stroke-width:0.5;" width="75" x="378.5" y="64.9609"/><text fill="#000000" font-family="sans-serif" font-size="14" lengthAdjust="spacing" textLength="61" x="385.5" y="86.4941">Database</text><rect fill="#E2E2F0" height="31.6094" rx="2.5" ry="2.5" style="stroke:#181818;stroke-width:0.5;" width="75" x="378.5" y="475.8438"/><text fill="#000000" font-family="sans-serif" font-size="14" lengthAdjust="spacing" textLength="61" x="385.5" y="497.377">Database</text><polygon fill="#181818" points="276,142.2734,286,146.2734,276,150.2734,280,146.2734" style="stroke:#181818;stroke-width:1.0;"/><line style="stroke:#181818;stroke-width:1.0;" x1="160" x2="282" y1="146.2734" y2="146.2734"/><text fill="#000000" font-family="sans-serif" font-size="13" lengthAdjust="spacing" textLength="93" x="167" y="125.0654">Publisher Log In</text><text fill="#000000" font-family="sans-serif" font-size="13" lengthAdjust="spacing" textLength="49" x="167" y="141.417">[HTTPS]</text><path d="M217,161.2734 L366,161.2734 L366,169.625 L356,179.625 L217,179.625 L217,161.2734 " fill="#EEEEEE" style="stroke:#000000;stroke-width:1.5;"/><rect fill="none" height="111.7578" style="stroke:#000000;stroke-width:1.5;" width="246.5" x="217" y="161.2734"/><text fill="#000000" font-family="sans-serif" font-size="13" font-weight="bold" lengthAdjust="spacing" textLength="104" x="232" y="175.7686">Publisher Log In</text><polygon fill="#181818" points="404,214.3281,414,218.3281,404,222.3281,408,218.3281" style="stroke:#181818;stroke-width:1.0;"/><line style="stroke:#181818;stroke-width:1.0;" x1="288" x2="410" y1="218.3281" y2="218.3281"/><text fill="#000000" font-family="sans-serif" font-size="13" lengthAdjust="spacing" textLength="99" x="295" y="197.1201">Select User Data</text><text fill="#000000" font-family="sans-serif" font-size="13" lengthAdjust="spacing" textLength="83" x="295" y="213.4717">[TCP/IP, SQL]</text><polygon fill="#181818" points="404,261.0313,414,265.0313,404,269.0313,408,265.0313" style="stroke:#181818;stroke-width:1.0;"/><line style="stroke:#181818;stroke-width:1.0;" x1="288" x2="410" y1="265.0313" y2="265.0313"/><text fill="#000000" font-family="sans-serif" font-size="13" lengthAdjust="spacing" textLength="104" x="295" y="243.8232">Authenticate User</text><text fill="#000000" font-family="sans-serif" font-size="13" lengthAdjust="spacing" textLength="83" x="295" y="260.1748">[TCP/IP, SQL]</text><polygon fill="#181818" points="276,314.7344,286,318.7344,276,322.7344,280,318.7344" style="stroke:#181818;stroke-width:1.0;"/><line style="stroke:#181818;stroke-width:1.0;" x1="160" x2="282" y1="318.7344" y2="318.7344"/><text fill="#000000" font-family="sans-serif" font-size="13" lengthAdjust="spacing" textLength="73" x="167" y="297.5264">Build Movies</text><text fill="#000000" font-family="sans-serif" font-size="13" lengthAdjust="spacing" textLength="49" x="167" y="313.8779">[HTTPS]</text><polygon fill="#181818" points="276,361.4375,286,365.4375,276,369.4375,280,365.4375" style="stroke:#181818;stroke-width:1.0;"/><line style="stroke:#181818;stroke-width:1.0;" x1="160" x2="282" y1="365.4375" y2="365.4375"/><text fill="#000000" font-family="sans-serif" font-size="13" lengthAdjust="spacing" textLength="69" x="167" y="344.2295">Build Dining</text><text fill="#000000" font-family="sans-serif" font-size="13" lengthAdjust="spacing" textLength="49" x="167" y="360.5811">[HTTPS]</text><polygon fill="#181818" points="276,408.1406,286,412.1406,276,416.1406,280,412.1406" style="stroke:#181818;stroke-width:1.0;"/><line style="stroke:#181818;stroke-width:1.0;" x1="160" x2="282" y1="412.1406" y2="412.1406"/><text fill="#000000" font-family="sans-serif" font-size="13" lengthAdjust="spacing" textLength="65" x="167" y="390.9326">Build News</text><text fill="#000000" font-family="sans-serif" font-size="13" lengthAdjust="spacing" textLength="49" x="167" y="407.2842">[HTTPS]</text><polygon fill="#181818" points="276,454.8438,286,458.8438,276,462.8438,280,458.8438" style="stroke:#181818;stroke-width:1.0;"/><line style="stroke:#181818;stroke-width:1.0;" x1="160" x2="282" y1="458.8438" y2="458.8438"/><text fill="#000000" font-family="sans-serif" font-size="13" lengthAdjust="spacing" textLength="104" x="167" y="437.6357">Publisher Log Out</text><text fill="#000000" font-family="sans-serif" font-size="13" lengthAdjust="spacing" textLength="49" x="167" y="453.9873">[HTTPS]</text><!--SRC=[pPF1Ji9048Rl-nIJUfLwzs22S904j6On7fJ3KiOoIJjRkrFGjtSA5XGJ8mb9xMaxdVd_RsQwGf8Z33mBii34iSkmQ8xsFGWMq8EadkSKbbX1FnLQaH063LjyhP5JrEF05wNdfYZ75UR6bAuIIgbq6efszH6uq3hjZRO-iMhxAiIxP6Fc_WsY_g8WZk3iSKc21lJvfjroMrGqp-5N2-jVPEqgtBw6UACTDzcE6DNyix0LCyWBK8g3VePEtDm5FCghBJBchmE0tjN9Ee7BBriS-mn6_CnFDzDfOcScgtnT_lXkJkPzH1_jb9JNOgu2y12Kg0ahxtIGN8oISx3turdNUFrQbff8gHFSG1xowR_JrQglQyeNCF4hlQZxDNSACoGcplu9p2skkv_Bz_jsLykUo7m0]--></g></svg>