<?xml version="1.0" encoding="us-ascii" standalone="no"?><svg xmlns="http://www.w3.org/2000/svg" xmlns:xlink="http://www.w3.org/1999/xlink" contentStyleType="text/css" height="518px" preserveAspectRatio="none" style="width:587px;height:518px;background:#FFFFFF;" version="1.1" viewBox="0 0 587 518" width="587px" zoomAndPan="magnify"><defs/><g><text fill="#000000" font-family="sans-serif" font-size="14" font-weight="bold" lengthAdjust="spacing" textLength="559" x="10" y="29.5332">Content Management System - Publisher Activities - Sequence - Container level</text><rect fill="#FFFFFF" height="467.8438" style="stroke:#181818;stroke-width:0.5;" width="130" x="217" y="44.6094"/><text fill="#000000" font-family="sans-serif" font-size="13" font-weight="bold" lengthAdjust="spacing" textLength="41" x="261.5" y="58.1045">Admin</text><rect fill="none" height="111.7578" style="stroke:#000000;stroke-width:1.5;" width="246.5" x="211" y="161.2734"/><line style="stroke:#181818;stroke-width:0.5;stroke-dasharray:5.0,5.0;" x1="153.5" x2="153.5" y1="97.5703" y2="476.8438"/><line style="stroke:#181818;stroke-width:0.5;stroke-dasharray:5.0,5.0;" x1="282" x2="282" y1="97.5703" y2="476.8438"/><line style="stroke:#181818;stroke-width:0.5;stroke-dasharray:5.0,5.0;" x1="409.5" x2="409.5" y1="97.5703" y2="476.8438"/><rect fill="#E2E2F0" height="31.6094" rx="2.5" ry="2.5" style="stroke:#181818;stroke-width:0.5;" width="73" x="117.5" y="64.9609"/><text fill="#000000" font-family="sans-serif" font-size="14" lengthAdjust="spacing" textLength="59" x="124.5" y="86.4941">Publisher</text><rect fill="#E2E2F0" height="31.6094" rx="2.5" ry="2.5" style="stroke:#181818;stroke-width:0.5;" width="73" x="117.5" y="475.8438"/><text fill="#000000" font-family="sans-serif" font-size="14" lengthAdjust="spacing" textLength="59" x="124.5" y="497.377">Publisher</text><rect fill="#E2E2F0" height="31.6094" rx="2.5" ry="2.5" style="stroke:#181818;stroke-width:0.5;" width="122" x="221" y="64.9609"/><text fill="#000000" font-family="sans-serif" font-size="14" lengthAdjust="spacing" textLength="108" x="228" y="86.4941">Content Sections</text><rect fill="#E2E2F0" height="31.6094" rx="2.5" ry="2.5" style="stroke:#181818;stroke-width:0.5;" width="122" x="221" y="475.8438"/><text fill="#000000" font-family="sans-serif" font-size="14" lengthAdjust="spacing" textLength="108" x="228" y="497.377">Content Sections</text><rect fill="#E2E2F0" height="31.6094" rx="2.5" ry="2.5" style="stroke:#181818;stroke-width:0.5;" width="75" x="372.5" y="64.9609"/><text fill="#000000" font-family="sans-serif" font-size="14" lengthAdjust="spacing" textLength="61" x="379.5" y="86.4941">Database</text><rect fill="#E2E2F0" height="31.6094" rx="2.5" ry="2.5" style="stroke:#181818;stroke-width:0.5;" width="75" x="372.5" y="475.8438"/><text fill="#000000" font-family="sans-serif" font-size="14" lengthAdjust="spacing" textLength="61" x="379.5" y="497.377">Database</text><polygon fill="#181818" points="270,142.2734,280,146.2734,270,150.2734,274,146.2734" style="stroke:#181818;stroke-width:1.0;"/><line style="stroke:#181818;stroke-width:1.0;" x1="154" x2="276" y1="146.2734" y2="146.2734"/><text fill="#000000" font-family="sans-serif" font-size="13" lengthAdjust="spacing" textLength="93" x="161" y="125.0654">Publisher Log In</text><text fill="#000000" font-family="sans-serif" font-size="13" lengthAdjust="spacing" textLength="49" x="161" y="141.417">[HTTPS]</text><path d="M211,161.2734 L360,161.2734 L360,169.625 L350,179.625 L211,179.625 L211,161.2734 " fill="#EEEEEE" style="stroke:#000000;stroke-width:1.5;"/><rect fill="none" height="111.7578" style="stroke:#000000;stroke-width:1.5;" width="246.5" x="211" y="161.2734"/><text fill="#000000" font-family="sans-serif" font-size="13" font-weight="bold" lengthAdjust="spacing" textLength="104" x="226" y="175.7686">Publisher Log In</text><polygon fill="#181818" points="398,214.3281,408,218.3281,398,222.3281,402,218.3281" style="stroke:#181818;stroke-width:1.0;"/><line style="stroke:#181818;stroke-width:1.0;" x1="282" x2="404" y1="218.3281" y2="218.3281"/><text fill="#000000" font-family="sans-serif" font-size="13" lengthAdjust="spacing" textLength="99" x="289" y="197.1201">Select User Data</text><text fill="#000000" font-family="sans-serif" font-size="13" lengthAdjust="spacing" textLength="83" x="289" y="213.4717">[TCP/IP, SQL]</text><polygon fill="#181818" points="398,261.0313,408,265.0313,398,269.0313,402,265.0313" style="stroke:#181818;stroke-width:1.0;"/><line style="stroke:#181818;stroke-width:1.0;" x1="282" x2="404" y1="265.0313" y2="265.0313"/><text fill="#000000" font-family="sans-serif" font-size="13" lengthAdjust="spacing" textLength="104" x="289" y="243.8232">Authenticate User</text><text fill="#000000" font-family="sans-serif" font-size="13" lengthAdjust="spacing" textLength="83" x="289" y="260.1748">[TCP/IP, SQL]</text><polygon fill="#181818" points="270,314.7344,280,318.7344,270,322.7344,274,318.7344" style="stroke:#181818;stroke-width:1.0;"/><line style="stroke:#181818;stroke-width:1.0;" x1="154" x2="276" y1="318.7344" y2="318.7344"/><text fill="#000000" font-family="sans-serif" font-size="13" lengthAdjust="spacing" textLength="73" x="161" y="297.5264">Build Movies</text><text fill="#000000" font-family="sans-serif" font-size="13" lengthAdjust="spacing" textLength="49" x="161" y="313.8779">[HTTPS]</text><polygon fill="#181818" points="270,361.4375,280,365.4375,270,369.4375,274,365.4375" style="stroke:#181818;stroke-width:1.0;"/><line style="stroke:#181818;stroke-width:1.0;" x1="154" x2="276" y1="365.4375" y2="365.4375"/><text fill="#000000" font-family="sans-serif" font-size="13" lengthAdjust="spacing" textLength="69" x="161" y="344.2295">Build Dining</text><text fill="#000000" font-family="sans-serif" font-size="13" lengthAdjust="spacing" textLength="49" x="161" y="360.5811">[HTTPS]</text><polygon fill="#181818" points="270,408.1406,280,412.1406,270,416.1406,274,412.1406" style="stroke:#181818;stroke-width:1.0;"/><line style="stroke:#181818;stroke-width:1.0;" x1="154" x2="276" y1="412.1406" y2="412.1406"/><text fill="#000000" font-family="sans-serif" font-size="13" lengthAdjust="spacing" textLength="65" x="161" y="390.9326">Build News</text><text fill="#000000" font-family="sans-serif" font-size="13" lengthAdjust="spacing" textLength="49" x="161" y="407.2842">[HTTPS]</text><polygon fill="#181818" points="270,454.8438,280,458.8438,270,462.8438,274,458.8438" style="stroke:#181818;stroke-width:1.0;"/><line style="stroke:#181818;stroke-width:1.0;" x1="154" x2="276" y1="458.8438" y2="458.8438"/><text fill="#000000" font-family="sans-serif" font-size="13" lengthAdjust="spacing" textLength="104" x="161" y="437.6357">Publisher Log Out</text><text fill="#000000" font-family="sans-serif" font-size="13" lengthAdjust="spacing" textLength="49" x="161" y="453.9873">[HTTPS]</text><!--SRC=[pPF1JiCm38RlUGghN5cvSq0gsu596nIbY0FiaBMcizGcfN4xU7kyZMvian2J9fMSajJ-_yzsmyG5mj1PHiimDTRaMAws-jCpbZ20k9aNv1TOGvGojSI4NgurlZTeKvJjAjkGbOW2MooKgapDb59bH2VOvWTWVEUqCzhuXABjQXzkWvMQkmy8egma6y35yu8O5SZQq-wuDGgQi_vN2-tUU6bgt1nzkDOEj_0-_4xin1JQ38JYe9wHOJCt7a_owfAK-ci3O71pjahW-iSK9ow7iNsrBtT94kkPoclNL4VVrTcyJwYZwvBmQYn409wy4AskXJSPnbVZ-1BqusJMDrxKy482AJMCQyX3Flbt-XhrRKD51bFNoaFTZRbNc15Pila_WRd7PVzzsNzl3mtlYDGN]--></g></svg>