<?xml version="1.0" encoding="us-ascii" standalone="no"?><svg xmlns="http://www.w3.org/2000/svg" xmlns:xlink="http://www.w3.org/1999/xlink" contentStyleType="text/css" height="410px" preserveAspectRatio="none" style="width:573px;height:410px;background:#FFFFFF;" version="1.1" viewBox="0 0 573 410" width="573px" zoomAndPan="magnify"><defs/><g><text fill="#000000" font-family="sans-serif" font-size="14" font-weight="bold" lengthAdjust="spacing" textLength="545" x="10" y="29.5332">Content Management System - Publisher Activities - Sequence - Context level</text><rect fill="none" height="111.7578" style="stroke:#000000;stroke-width:1.5;" width="212" x="238.5" y="123.5703"/><line style="stroke:#181818;stroke-width:0.5;stroke-dasharray:5.0,5.0;" x1="146.5" x2="146.5" y1="76.2188" y2="373.7344"/><line style="stroke:#181818;stroke-width:0.5;stroke-dasharray:5.0,5.0;" x1="274.5" x2="274.5" y1="76.2188" y2="373.7344"/><line style="stroke:#181818;stroke-width:0.5;stroke-dasharray:5.0,5.0;" x1="402.5" x2="402.5" y1="76.2188" y2="373.7344"/><rect fill="#E2E2F0" height="31.6094" rx="2.5" ry="2.5" style="stroke:#181818;stroke-width:0.5;" width="73" x="110.5" y="43.6094"/><text fill="#000000" font-family="sans-serif" font-size="14" lengthAdjust="spacing" textLength="59" x="117.5" y="65.1426">Publisher</text><rect fill="#E2E2F0" height="31.6094" rx="2.5" ry="2.5" style="stroke:#181818;stroke-width:0.5;" width="73" x="110.5" y="372.7344"/><text fill="#000000" font-family="sans-serif" font-size="14" lengthAdjust="spacing" textLength="59" x="117.5" y="394.2676">Publisher</text><rect fill="#E2E2F0" height="31.6094" rx="2.5" ry="2.5" style="stroke:#181818;stroke-width:0.5;" width="53" x="248.5" y="43.6094"/><text fill="#000000" font-family="sans-serif" font-size="14" lengthAdjust="spacing" textLength="39" x="255.5" y="65.1426">Admin</text><rect fill="#E2E2F0" height="31.6094" rx="2.5" ry="2.5" style="stroke:#181818;stroke-width:0.5;" width="53" x="248.5" y="372.7344"/><text fill="#000000" font-family="sans-serif" font-size="14" lengthAdjust="spacing" textLength="39" x="255.5" y="394.2676">Admin</text><rect fill="#E2E2F0" height="31.6094" rx="2.5" ry="2.5" style="stroke:#181818;stroke-width:0.5;" width="75" x="365.5" y="43.6094"/><text fill="#000000" font-family="sans-serif" font-size="14" lengthAdjust="spacing" textLength="61" x="372.5" y="65.1426">Database</text><rect fill="#E2E2F0" height="31.6094" rx="2.5" ry="2.5" style="stroke:#181818;stroke-width:0.5;" width="75" x="365.5" y="372.7344"/><text fill="#000000" font-family="sans-serif" font-size="14" lengthAdjust="spacing" textLength="61" x="372.5" y="394.2676">Database</text><polygon fill="#181818" points="263,104.5703,273,108.5703,263,112.5703,267,108.5703" style="stroke:#181818;stroke-width:1.0;"/><line style="stroke:#181818;stroke-width:1.0;" x1="147" x2="269" y1="108.5703" y2="108.5703"/><text fill="#000000" font-family="sans-serif" font-size="13" lengthAdjust="spacing" textLength="93" x="154" y="103.7139">Publisher Log In</text><path d="M238.5,123.5703 L387.5,123.5703 L387.5,131.9219 L377.5,141.9219 L238.5,141.9219 L238.5,123.5703 " fill="#EEEEEE" style="stroke:#000000;stroke-width:1.5;"/><rect fill="none" height="111.7578" style="stroke:#000000;stroke-width:1.5;" width="212" x="238.5" y="123.5703"/><text fill="#000000" font-family="sans-serif" font-size="13" font-weight="bold" lengthAdjust="spacing" textLength="104" x="253.5" y="138.0654">Publisher Log In</text><polygon fill="#181818" points="391,176.625,401,180.625,391,184.625,395,180.625" style="stroke:#181818;stroke-width:1.0;"/><line style="stroke:#181818;stroke-width:1.0;" x1="275" x2="397" y1="180.625" y2="180.625"/><text fill="#000000" font-family="sans-serif" font-size="13" lengthAdjust="spacing" textLength="99" x="282" y="159.417">Select User Data</text><text fill="#000000" font-family="sans-serif" font-size="13" lengthAdjust="spacing" textLength="83" x="282" y="175.7686">[TCP/IP, SQL]</text><polygon fill="#181818" points="391,223.3281,401,227.3281,391,231.3281,395,227.3281" style="stroke:#181818;stroke-width:1.0;"/><line style="stroke:#181818;stroke-width:1.0;" x1="275" x2="397" y1="227.3281" y2="227.3281"/><text fill="#000000" font-family="sans-serif" font-size="13" lengthAdjust="spacing" textLength="104" x="282" y="206.1201">Authenticate User</text><text fill="#000000" font-family="sans-serif" font-size="13" lengthAdjust="spacing" textLength="83" x="282" y="222.4717">[TCP/IP, SQL]</text><polygon fill="#181818" points="263,260.6797,273,264.6797,263,268.6797,267,264.6797" style="stroke:#181818;stroke-width:1.0;"/><line style="stroke:#181818;stroke-width:1.0;" x1="147" x2="269" y1="264.6797" y2="264.6797"/><text fill="#000000" font-family="sans-serif" font-size="13" lengthAdjust="spacing" textLength="73" x="154" y="259.8232">Build Movies</text><polygon fill="#181818" points="263,291.0313,273,295.0313,263,299.0313,267,295.0313" style="stroke:#181818;stroke-width:1.0;"/><line style="stroke:#181818;stroke-width:1.0;" x1="147" x2="269" y1="295.0313" y2="295.0313"/><text fill="#000000" font-family="sans-serif" font-size="13" lengthAdjust="spacing" textLength="69" x="154" y="290.1748">Build Dining</text><polygon fill="#181818" points="263,321.3828,273,325.3828,263,329.3828,267,325.3828" style="stroke:#181818;stroke-width:1.0;"/><line style="stroke:#181818;stroke-width:1.0;" x1="147" x2="269" y1="325.3828" y2="325.3828"/><text fill="#000000" font-family="sans-serif" font-size="13" lengthAdjust="spacing" textLength="65" x="154" y="320.5264">Build News</text><polygon fill="#181818" points="263,351.7344,273,355.7344,263,359.7344,267,355.7344" style="stroke:#181818;stroke-width:1.0;"/><line style="stroke:#181818;stroke-width:1.0;" x1="147" x2="269" y1="355.7344" y2="355.7344"/><text fill="#000000" font-family="sans-serif" font-size="13" lengthAdjust="spacing" textLength="104" x="154" y="350.8779">Publisher Log Out</text><!--SRC=[lP8nJyCm48Lt_ufJvpRi39L2krHg8SWm0OFh7Eb9ZXtiSmh_7ZTL2WK9aQ7PpgTxxtssZuaDmi9PHikmKLPLM1zA-H4OQvX14RU6mWuzv9gf9IOCgItnBQBLcCfE_SvWi4KZHACyawP69PV9IJq15VgShvXZIfQSdG_PQVZS8ozhid_gfNlblV9uF8QiKvoRB1MhhGeuoASN2V5VSfZDXr72zRSNNhiALbPKtiNcTtkOxm2G_fg9HQ91pV0OKkoX_MoV7XR5rQgOWhnVlup2a4VUfK7IYh4Z-Gc1jhpeXzn4CYLiN9jMVOIW9LcorGX1jxWF8sxoNMGXFW40]--></g></svg>