<?xml version="1.0" encoding="us-ascii" standalone="no"?><svg xmlns="http://www.w3.org/2000/svg" xmlns:xlink="http://www.w3.org/1999/xlink" contentStyleType="text/css" height="347px" preserveAspectRatio="none" style="width:638px;height:347px;background:#FFFFFF;" version="1.1" viewBox="0 0 638 347" width="638px" zoomAndPan="magnify"><defs/><g><text fill="#000000" font-family="sans-serif" font-size="14" font-weight="bold" lengthAdjust="spacing" textLength="610" x="10" y="29.5332">Content Management System - CM - Approve Actor Profile - Sequence - Container level</text><rect fill="#FFFFFF" height="297.0313" style="stroke:#181818;stroke-width:0.5;" width="130" x="458.25" y="44.6094"/><text fill="#000000" font-family="sans-serif" font-size="13" font-weight="bold" lengthAdjust="spacing" textLength="41" x="502.75" y="58.1045">Admin</text><rect fill="none" height="127.7578" style="stroke:#000000;stroke-width:1.5;" width="425.5" x="178.75" y="161.2734"/><rect fill="none" height="48.7031" style="stroke:#000000;stroke-width:1.5;" width="249.5" x="344.75" y="233.3281"/><line style="stroke:#181818;stroke-width:0.5;stroke-dasharray:5.0,5.0;" x1="53.75" x2="53.75" y1="97.5703" y2="306.0313"/><line style="stroke:#181818;stroke-width:0.5;stroke-dasharray:5.0,5.0;" x1="205.75" x2="205.75" y1="97.5703" y2="306.0313"/><line style="stroke:#181818;stroke-width:0.5;stroke-dasharray:5.0,5.0;" x1="391.75" x2="391.75" y1="97.5703" y2="306.0313"/><line style="stroke:#181818;stroke-width:0.5;stroke-dasharray:5.0,5.0;" x1="523.25" x2="523.25" y1="97.5703" y2="306.0313"/><rect fill="#E2E2F0" height="31.6094" rx="2.5" ry="2.5" style="stroke:#181818;stroke-width:0.5;" width="65" x="21.75" y="64.9609"/><text fill="#000000" font-family="sans-serif" font-size="14" lengthAdjust="spacing" textLength="51" x="28.75" y="86.4941">External</text><rect fill="#E2E2F0" height="31.6094" rx="2.5" ry="2.5" style="stroke:#181818;stroke-width:0.5;" width="65" x="21.75" y="305.0313"/><text fill="#000000" font-family="sans-serif" font-size="14" lengthAdjust="spacing" textLength="51" x="28.75" y="326.5645">External</text><rect fill="#E2E2F0" height="31.6094" rx="2.5" ry="2.5" style="stroke:#181818;stroke-width:0.5;" width="35" x="188.75" y="64.9609"/><text fill="#000000" font-family="sans-serif" font-size="14" lengthAdjust="spacing" textLength="21" x="195.75" y="86.4941">CM</text><rect fill="#E2E2F0" height="31.6094" rx="2.5" ry="2.5" style="stroke:#181818;stroke-width:0.5;" width="35" x="188.75" y="305.0313"/><text fill="#000000" font-family="sans-serif" font-size="14" lengthAdjust="spacing" textLength="21" x="195.75" y="326.5645">CM</text><rect fill="#E2E2F0" height="31.6094" rx="2.5" ry="2.5" style="stroke:#181818;stroke-width:0.5;" width="75" x="354.75" y="64.9609"/><text fill="#000000" font-family="sans-serif" font-size="14" lengthAdjust="spacing" textLength="61" x="361.75" y="86.4941">Database</text><rect fill="#E2E2F0" height="31.6094" rx="2.5" ry="2.5" style="stroke:#181818;stroke-width:0.5;" width="75" x="354.75" y="305.0313"/><text fill="#000000" font-family="sans-serif" font-size="14" lengthAdjust="spacing" textLength="61" x="361.75" y="326.5645">Database</text><rect fill="#E2E2F0" height="31.6094" rx="2.5" ry="2.5" style="stroke:#181818;stroke-width:0.5;" width="122" x="462.25" y="64.9609"/><text fill="#000000" font-family="sans-serif" font-size="14" lengthAdjust="spacing" textLength="108" x="469.25" y="86.4941">Content Sections</text><rect fill="#E2E2F0" height="31.6094" rx="2.5" ry="2.5" style="stroke:#181818;stroke-width:0.5;" width="122" x="462.25" y="305.0313"/><text fill="#000000" font-family="sans-serif" font-size="14" lengthAdjust="spacing" textLength="108" x="469.25" y="326.5645">Content Sections</text><polygon fill="#181818" points="194.25,142.2734,204.25,146.2734,194.25,150.2734,198.25,146.2734" style="stroke:#181818;stroke-width:1.0;"/><line style="stroke:#181818;stroke-width:1.0;" x1="54.25" x2="200.25" y1="146.2734" y2="146.2734"/><text fill="#000000" font-family="sans-serif" font-size="13" lengthAdjust="spacing" textLength="121" x="61.25" y="125.0654">Approve Actor Profile</text><text fill="#000000" font-family="sans-serif" font-size="13" lengthAdjust="spacing" textLength="128" x="61.25" y="141.417">[HTTPS/WebSockets]</text><path d="M178.75,161.2734 L359.75,161.2734 L359.75,169.625 L349.75,179.625 L178.75,179.625 L178.75,161.2734 " fill="#EEEEEE" style="stroke:#000000;stroke-width:1.5;"/><rect fill="none" height="127.7578" style="stroke:#000000;stroke-width:1.5;" width="425.5" x="178.75" y="161.2734"/><text fill="#000000" font-family="sans-serif" font-size="13" font-weight="bold" lengthAdjust="spacing" textLength="136" x="193.75" y="175.7686">Approve Actor Profile</text><polygon fill="#181818" points="380.25,214.3281,390.25,218.3281,380.25,222.3281,384.25,218.3281" style="stroke:#181818;stroke-width:1.0;"/><line style="stroke:#181818;stroke-width:1.0;" x1="206.25" x2="386.25" y1="218.3281" y2="218.3281"/><text fill="#000000" font-family="sans-serif" font-size="13" lengthAdjust="spacing" textLength="121" x="213.25" y="197.1201">Approve Actor Profile</text><text fill="#000000" font-family="sans-serif" font-size="13" lengthAdjust="spacing" textLength="162" x="213.25" y="213.4717">[HTTPS/WebSockets, SQL]</text><path d="M344.75,233.3281 L525.75,233.3281 L525.75,241.6797 L515.75,251.6797 L344.75,251.6797 L344.75,233.3281 " fill="#EEEEEE" style="stroke:#000000;stroke-width:1.5;"/><rect fill="none" height="48.7031" style="stroke:#000000;stroke-width:1.5;" width="249.5" x="344.75" y="233.3281"/><text fill="#000000" font-family="sans-serif" font-size="13" font-weight="bold" lengthAdjust="spacing" textLength="136" x="359.75" y="247.8232">Approve Actor Profile</text><polygon fill="#181818" points="511.25,270.0313,521.25,274.0313,511.25,278.0313,515.25,274.0313" style="stroke:#181818;stroke-width:1.0;"/><line style="stroke:#181818;stroke-width:1.0;" x1="392.25" x2="517.25" y1="274.0313" y2="274.0313"/><text fill="#000000" font-family="sans-serif" font-size="13" lengthAdjust="spacing" textLength="107" x="399.25" y="269.1748">Show Actor Profile</text><!--SRC=[hP71IyCm5CRlxwzurAkj5qyUX58L1nOc6UoW7jBkRGjhavgyhVE_DrtNINMW0GC92Rpl-tvvZnLNX9dHJ9enbrgkgEwkuiCnrHXZbliZRHfhTeHfoSRYr9gbyh8O1RrlIPVTjVEGIfF5YdPK0JJIiYfL8xrRTBzdibfM4Kg7sVN4vzc7ohI9C4jkfQK-poL3OVyUcsHvB-zfls3xsXzMMJwMtqcMXNGKP3A800gpnoXTr4f7U35VAoP0lyQ4nqOAAbaPxOAY3jx9gOykEGe7Co2zG4y107_l8CQt0Gt3c_EZVjKlZxFPL5pDgH2ct12xDrXPistErqD0P03WC8m0p4iKpq__mtfA3o3-RQR-9s9jscz4Vj273Py0]--></g></svg>