<?xml version="1.0" encoding="us-ascii" standalone="no"?><svg xmlns="http://www.w3.org/2000/svg" xmlns:xlink="http://www.w3.org/1999/xlink" contentStyleType="text/css" height="363px" preserveAspectRatio="none" style="width:663px;height:363px;background:#FFFFFF;" version="1.1" viewBox="0 0 663 363" width="663px" zoomAndPan="magnify"><defs/><g><text fill="#000000" font-family="sans-serif" font-size="14" font-weight="bold" lengthAdjust="spacing" textLength="635" x="10" y="29.5332">Content Management System - CM - Add Restaurant Review - Sequence - Component level</text><rect fill="#FFFFFF" height="313.3828" style="stroke:#181818;stroke-width:0.5;" width="113" x="364.5" y="44.6094"/><text fill="#000000" font-family="sans-serif" font-size="13" font-weight="bold" lengthAdjust="spacing" textLength="107" x="367.5" y="58.1045">Content Sections</text><rect fill="none" height="144.1094" style="stroke:#000000;stroke-width:1.5;" width="394" x="210" y="161.2734"/><rect fill="none" height="65.0547" style="stroke:#000000;stroke-width:1.5;" width="210" x="384" y="233.3281"/><line style="stroke:#181818;stroke-width:0.5;stroke-dasharray:5.0,5.0;" x1="79" x2="79" y1="97.5703" y2="322.3828"/><line style="stroke:#181818;stroke-width:0.5;stroke-dasharray:5.0,5.0;" x1="237" x2="237" y1="97.5703" y2="322.3828"/><line style="stroke:#181818;stroke-width:0.5;stroke-dasharray:5.0,5.0;" x1="421" x2="421" y1="97.5703" y2="322.3828"/><line style="stroke:#181818;stroke-width:0.5;stroke-dasharray:5.0,5.0;" x1="546" x2="546" y1="97.5703" y2="322.3828"/><rect fill="#E2E2F0" height="31.6094" rx="2.5" ry="2.5" style="stroke:#181818;stroke-width:0.5;" width="65" x="47" y="64.9609"/><text fill="#000000" font-family="sans-serif" font-size="14" lengthAdjust="spacing" textLength="51" x="54" y="86.4941">External</text><rect fill="#E2E2F0" height="31.6094" rx="2.5" ry="2.5" style="stroke:#181818;stroke-width:0.5;" width="65" x="47" y="321.3828"/><text fill="#000000" font-family="sans-serif" font-size="14" lengthAdjust="spacing" textLength="51" x="54" y="342.916">External</text><rect fill="#E2E2F0" height="31.6094" rx="2.5" ry="2.5" style="stroke:#181818;stroke-width:0.5;" width="35" x="220" y="64.9609"/><text fill="#000000" font-family="sans-serif" font-size="14" lengthAdjust="spacing" textLength="21" x="227" y="86.4941">CM</text><rect fill="#E2E2F0" height="31.6094" rx="2.5" ry="2.5" style="stroke:#181818;stroke-width:0.5;" width="35" x="220" y="321.3828"/><text fill="#000000" font-family="sans-serif" font-size="14" lengthAdjust="spacing" textLength="21" x="227" y="342.916">CM</text><rect fill="#E2E2F0" height="31.6094" rx="2.5" ry="2.5" style="stroke:#181818;stroke-width:0.5;" width="54" x="394" y="64.9609"/><text fill="#000000" font-family="sans-serif" font-size="14" lengthAdjust="spacing" textLength="40" x="401" y="86.4941">Dining</text><rect fill="#E2E2F0" height="31.6094" rx="2.5" ry="2.5" style="stroke:#181818;stroke-width:0.5;" width="54" x="394" y="321.3828"/><text fill="#000000" font-family="sans-serif" font-size="14" lengthAdjust="spacing" textLength="40" x="401" y="342.916">Dining</text><rect fill="#E2E2F0" height="31.6094" rx="2.5" ry="2.5" style="stroke:#181818;stroke-width:0.5;" width="75" x="509" y="64.9609"/><text fill="#000000" font-family="sans-serif" font-size="14" lengthAdjust="spacing" textLength="61" x="516" y="86.4941">Database</text><rect fill="#E2E2F0" height="31.6094" rx="2.5" ry="2.5" style="stroke:#181818;stroke-width:0.5;" width="75" x="509" y="321.3828"/><text fill="#000000" font-family="sans-serif" font-size="14" lengthAdjust="spacing" textLength="61" x="516" y="342.916">Database</text><polygon fill="#181818" points="225.5,142.2734,235.5,146.2734,225.5,150.2734,229.5,146.2734" style="stroke:#181818;stroke-width:1.0;"/><line style="stroke:#181818;stroke-width:1.0;" x1="79.5" x2="231.5" y1="146.2734" y2="146.2734"/><text fill="#000000" font-family="sans-serif" font-size="13" lengthAdjust="spacing" textLength="134" x="86.5" y="125.0654">Add Restaurant Review</text><text fill="#000000" font-family="sans-serif" font-size="13" lengthAdjust="spacing" textLength="42" x="86.5" y="141.417">[HTML]</text><path d="M210,161.2734 L403,161.2734 L403,169.625 L393,179.625 L210,179.625 L210,161.2734 " fill="#EEEEEE" style="stroke:#000000;stroke-width:1.5;"/><rect fill="none" height="144.1094" style="stroke:#000000;stroke-width:1.5;" width="394" x="210" y="161.2734"/><text fill="#000000" font-family="sans-serif" font-size="13" font-weight="bold" lengthAdjust="spacing" textLength="148" x="225" y="175.7686">Add Restaurant Review</text><polygon fill="#181818" points="409,214.3281,419,218.3281,409,222.3281,413,218.3281" style="stroke:#181818;stroke-width:1.0;"/><line style="stroke:#181818;stroke-width:1.0;" x1="237.5" x2="415" y1="218.3281" y2="218.3281"/><text fill="#000000" font-family="sans-serif" font-size="13" lengthAdjust="spacing" textLength="134" x="244.5" y="197.1201">Add Restaurant Review</text><text fill="#000000" font-family="sans-serif" font-size="13" lengthAdjust="spacing" textLength="42" x="244.5" y="213.4717">[HTML]</text><path d="M384,233.3281 L577,233.3281 L577,241.6797 L567,251.6797 L384,251.6797 L384,233.3281 " fill="#EEEEEE" style="stroke:#000000;stroke-width:1.5;"/><rect fill="none" height="65.0547" style="stroke:#000000;stroke-width:1.5;" width="210" x="384" y="233.3281"/><text fill="#000000" font-family="sans-serif" font-size="13" font-weight="bold" lengthAdjust="spacing" textLength="148" x="399" y="247.8232">Add Restaurant Review</text><polygon fill="#181818" points="534.5,286.3828,544.5,290.3828,534.5,294.3828,538.5,290.3828" style="stroke:#181818;stroke-width:1.0;"/><line style="stroke:#181818;stroke-width:1.0;" x1="421" x2="540.5" y1="290.3828" y2="290.3828"/><text fill="#000000" font-family="sans-serif" font-size="13" lengthAdjust="spacing" textLength="76" x="428" y="269.1748">Data Storage</text><text fill="#000000" font-family="sans-serif" font-size="13" lengthAdjust="spacing" textLength="34" x="428" y="285.5264">[SQL]</text><!--SRC=[lLAnJiCm4Dtz5QSmrnCJ0r8LG22HWHg90HZSvXei9UTWNvhozzWreOheW1c8bEXYltVllRFPS8jGMc8aXagJRh2BfVhmZ1qieAp2PrdNi4BFUd0wRAvmPt0CwmhV1wGDHfpjUakHsk8EMo5wxTXiJ1y9nVMUqP5k2z0UolExeETkMZjAPRSyQeT9pyi9cFxdJSegqPFRezc4_T6gh8HOspqKoxepLC3PqvjX512Uj3x5LhXXOydF83FbAqE6cYprWwYCQ6q8dPTVn4bCVW_CozHU8DKGZ8bZCJUXMQ-rnomR4qc8tqyT5fSPGuQBqzVZXPvl7wlxLz4uE_IdCI939iDK_kp_9SGVR6M4dauwH8abABOkC482zH02X3jrUCKd]--></g></svg>