<?xml version="1.0" encoding="us-ascii" standalone="no"?><svg xmlns="http://www.w3.org/2000/svg" xmlns:xlink="http://www.w3.org/1999/xlink" contentStyleType="text/css" height="347px" preserveAspectRatio="none" style="width:651px;height:347px;background:#FFFFFF;" version="1.1" viewBox="0 0 651 347" width="651px" zoomAndPan="magnify"><defs/><g><text fill="#000000" font-family="sans-serif" font-size="14" font-weight="bold" lengthAdjust="spacing" textLength="623" x="10" y="29.5332">Content Management System - CM - Add Restaurant Review - Sequence - Container level</text><rect fill="#FFFFFF" height="297.0313" style="stroke:#181818;stroke-width:0.5;" width="130" x="345.75" y="44.6094"/><text fill="#000000" font-family="sans-serif" font-size="13" font-weight="bold" lengthAdjust="spacing" textLength="41" x="390.25" y="58.1045">Admin</text><rect fill="none" height="127.7578" style="stroke:#000000;stroke-width:1.5;" width="351.5" x="225.25" y="161.2734"/><rect fill="none" height="65.0547" style="stroke:#000000;stroke-width:1.5;" width="227" x="339.75" y="216.9766"/><line style="stroke:#181818;stroke-width:0.5;stroke-dasharray:5.0,5.0;" x1="94.25" x2="94.25" y1="97.5703" y2="306.0313"/><line style="stroke:#181818;stroke-width:0.5;stroke-dasharray:5.0,5.0;" x1="252.25" x2="252.25" y1="97.5703" y2="306.0313"/><line style="stroke:#181818;stroke-width:0.5;stroke-dasharray:5.0,5.0;" x1="410.75" x2="410.75" y1="97.5703" y2="306.0313"/><line style="stroke:#181818;stroke-width:0.5;stroke-dasharray:5.0,5.0;" x1="518.75" x2="518.75" y1="97.5703" y2="306.0313"/><rect fill="#E2E2F0" height="31.6094" rx="2.5" ry="2.5" style="stroke:#181818;stroke-width:0.5;" width="65" x="62.25" y="64.9609"/><text fill="#000000" font-family="sans-serif" font-size="14" lengthAdjust="spacing" textLength="51" x="69.25" y="86.4941">External</text><rect fill="#E2E2F0" height="31.6094" rx="2.5" ry="2.5" style="stroke:#181818;stroke-width:0.5;" width="65" x="62.25" y="305.0313"/><text fill="#000000" font-family="sans-serif" font-size="14" lengthAdjust="spacing" textLength="51" x="69.25" y="326.5645">External</text><rect fill="#E2E2F0" height="31.6094" rx="2.5" ry="2.5" style="stroke:#181818;stroke-width:0.5;" width="35" x="235.25" y="64.9609"/><text fill="#000000" font-family="sans-serif" font-size="14" lengthAdjust="spacing" textLength="21" x="242.25" y="86.4941">CM</text><rect fill="#E2E2F0" height="31.6094" rx="2.5" ry="2.5" style="stroke:#181818;stroke-width:0.5;" width="35" x="235.25" y="305.0313"/><text fill="#000000" font-family="sans-serif" font-size="14" lengthAdjust="spacing" textLength="21" x="242.25" y="326.5645">CM</text><rect fill="#E2E2F0" height="31.6094" rx="2.5" ry="2.5" style="stroke:#181818;stroke-width:0.5;" width="122" x="349.75" y="64.9609"/><text fill="#000000" font-family="sans-serif" font-size="14" lengthAdjust="spacing" textLength="108" x="356.75" y="86.4941">Content Sections</text><rect fill="#E2E2F0" height="31.6094" rx="2.5" ry="2.5" style="stroke:#181818;stroke-width:0.5;" width="122" x="349.75" y="305.0313"/><text fill="#000000" font-family="sans-serif" font-size="14" lengthAdjust="spacing" textLength="108" x="356.75" y="326.5645">Content Sections</text><rect fill="#E2E2F0" height="31.6094" rx="2.5" ry="2.5" style="stroke:#181818;stroke-width:0.5;" width="75" x="481.75" y="64.9609"/><text fill="#000000" font-family="sans-serif" font-size="14" lengthAdjust="spacing" textLength="61" x="488.75" y="86.4941">Database</text><rect fill="#E2E2F0" height="31.6094" rx="2.5" ry="2.5" style="stroke:#181818;stroke-width:0.5;" width="75" x="481.75" y="305.0313"/><text fill="#000000" font-family="sans-serif" font-size="14" lengthAdjust="spacing" textLength="61" x="488.75" y="326.5645">Database</text><polygon fill="#181818" points="240.75,142.2734,250.75,146.2734,240.75,150.2734,244.75,146.2734" style="stroke:#181818;stroke-width:1.0;"/><line style="stroke:#181818;stroke-width:1.0;" x1="94.75" x2="246.75" y1="146.2734" y2="146.2734"/><text fill="#000000" font-family="sans-serif" font-size="13" lengthAdjust="spacing" textLength="134" x="101.75" y="125.0654">Add Restaurant Review</text><text fill="#000000" font-family="sans-serif" font-size="13" lengthAdjust="spacing" textLength="42" x="101.75" y="141.417">[HTML]</text><path d="M225.25,161.2734 L418.25,161.2734 L418.25,169.625 L408.25,179.625 L225.25,179.625 L225.25,161.2734 " fill="#EEEEEE" style="stroke:#000000;stroke-width:1.5;"/><rect fill="none" height="127.7578" style="stroke:#000000;stroke-width:1.5;" width="351.5" x="225.25" y="161.2734"/><text fill="#000000" font-family="sans-serif" font-size="13" font-weight="bold" lengthAdjust="spacing" textLength="148" x="240.25" y="175.7686">Add Restaurant Review</text><polygon fill="#181818" points="398.75,197.9766,408.75,201.9766,398.75,205.9766,402.75,201.9766" style="stroke:#181818;stroke-width:1.0;"/><line style="stroke:#181818;stroke-width:1.0;" x1="252.75" x2="404.75" y1="201.9766" y2="201.9766"/><text fill="#000000" font-family="sans-serif" font-size="13" lengthAdjust="spacing" textLength="134" x="259.75" y="197.1201">Add Restaurant Review</text><path d="M339.75,216.9766 L532.75,216.9766 L532.75,225.3281 L522.75,235.3281 L339.75,235.3281 L339.75,216.9766 " fill="#EEEEEE" style="stroke:#000000;stroke-width:1.5;"/><rect fill="none" height="65.0547" style="stroke:#000000;stroke-width:1.5;" width="227" x="339.75" y="216.9766"/><text fill="#000000" font-family="sans-serif" font-size="13" font-weight="bold" lengthAdjust="spacing" textLength="148" x="354.75" y="231.4717">Add Restaurant Review</text><polygon fill="#181818" points="507.25,270.0313,517.25,274.0313,507.25,278.0313,511.25,274.0313" style="stroke:#181818;stroke-width:1.0;"/><line style="stroke:#181818;stroke-width:1.0;" x1="410.75" x2="513.25" y1="274.0313" y2="274.0313"/><text fill="#000000" font-family="sans-serif" font-size="13" lengthAdjust="spacing" textLength="76" x="417.75" y="252.8232">Data Storage</text><text fill="#000000" font-family="sans-serif" font-size="13" lengthAdjust="spacing" textLength="34" x="417.75" y="269.1748">[SQL]</text><!--SRC=[hL8zJyCm4DtzAqvXRYOc1gGgW40Y0pKI0p1SawDOSknWNvhoxxaq3QXGL2nXATObkVTnpsR3bg3mZianbEXmHSrGwlV8rC0CYbAsULt3WY9Z5r1-BcXjg9VlcjuwSXKDVSA1nb40IskoIhKOs5Ic7G3PvOOfEBGPO8JYz4RqmfNrVQxz2_SOQDIB-TGulk-J5EK87zr-cHrxVr0LfL9Blu5iNZV6PN3oy6gO5CZQfzrDhwbYurrC4jbovv_3ntm7dCWKkHh4nRSyBf1nYP6Ij2QGKdzF46Rd2O71sU6ZVdAFr_VbxRDQ1T-rXtjKWao2gMC1_sRvNwmU5KyOP3ezCJoKeDa7GKYq-awIbNkoVTG7]--></g></svg>