<?xml version="1.0" encoding="us-ascii" standalone="no"?><svg xmlns="http://www.w3.org/2000/svg" xmlns:xlink="http://www.w3.org/1999/xlink" contentStyleType="text/css" height="992px" preserveAspectRatio="none" style="width:579px;height:992px;background:#FFFFFF;" version="1.1" viewBox="0 0 579 992" width="579px" zoomAndPan="magnify"><defs/><g><text fill="#000000" font-family="sans-serif" font-size="14" font-weight="bold" lengthAdjust="spacing" textLength="551" x="10" y="29.5332">Content Management System - Author Activities - Sequence - Component level</text><rect fill="#FFFFFF" height="942.1719" style="stroke:#181818;stroke-width:0.5;" width="130" x="401" y="44.6094"/><text fill="#000000" font-family="sans-serif" font-size="13" font-weight="bold" lengthAdjust="spacing" textLength="107" x="412.5" y="58.1045">Content Sections</text><rect fill="none" height="111.7578" style="stroke:#000000;stroke-width:1.5;" width="203" x="178.5" y="161.2734"/><rect fill="none" height="144.1094" style="stroke:#000000;stroke-width:1.5;" width="304.5" x="178.5" y="333.7344"/><rect fill="none" height="65.0547" style="stroke:#000000;stroke-width:1.5;" width="186.5" x="286.5" y="405.7891"/><rect fill="none" height="144.1094" style="stroke:#000000;stroke-width:1.5;" width="304.5" x="178.5" y="538.5469"/><rect fill="none" height="65.0547" style="stroke:#000000;stroke-width:1.5;" width="186.5" x="286.5" y="610.6016"/><rect fill="none" height="144.1094" style="stroke:#000000;stroke-width:1.5;" width="368.5" x="178.5" y="743.3594"/><rect fill="none" height="65.0547" style="stroke:#000000;stroke-width:1.5;" width="250.5" x="286.5" y="815.4141"/><line style="stroke:#181818;stroke-width:0.5;stroke-dasharray:5.0,5.0;" x1="48" x2="48" y1="97.5703" y2="951.1719"/><line style="stroke:#181818;stroke-width:0.5;stroke-dasharray:5.0,5.0;" x1="205.5" x2="205.5" y1="97.5703" y2="951.1719"/><line style="stroke:#181818;stroke-width:0.5;stroke-dasharray:5.0,5.0;" x1="333.5" x2="333.5" y1="97.5703" y2="951.1719"/><line style="stroke:#181818;stroke-width:0.5;stroke-dasharray:5.0,5.0;" x1="434" x2="434" y1="97.5703" y2="951.1719"/><line style="stroke:#181818;stroke-width:0.5;stroke-dasharray:5.0,5.0;" x1="500" x2="500" y1="97.5703" y2="951.1719"/><rect fill="#E2E2F0" height="31.6094" rx="2.5" ry="2.5" style="stroke:#181818;stroke-width:0.5;" width="56" x="20" y="64.9609"/><text fill="#000000" font-family="sans-serif" font-size="14" lengthAdjust="spacing" textLength="42" x="27" y="86.4941">Author</text><rect fill="#E2E2F0" height="31.6094" rx="2.5" ry="2.5" style="stroke:#181818;stroke-width:0.5;" width="56" x="20" y="950.1719"/><text fill="#000000" font-family="sans-serif" font-size="14" lengthAdjust="spacing" textLength="42" x="27" y="971.7051">Author</text><rect fill="#E2E2F0" height="31.6094" rx="2.5" ry="2.5" style="stroke:#181818;stroke-width:0.5;" width="35" x="188.5" y="64.9609"/><text fill="#000000" font-family="sans-serif" font-size="14" lengthAdjust="spacing" textLength="21" x="195.5" y="86.4941">CM</text><rect fill="#E2E2F0" height="31.6094" rx="2.5" ry="2.5" style="stroke:#181818;stroke-width:0.5;" width="35" x="188.5" y="950.1719"/><text fill="#000000" font-family="sans-serif" font-size="14" lengthAdjust="spacing" textLength="21" x="195.5" y="971.7051">CM</text><rect fill="#E2E2F0" height="31.6094" rx="2.5" ry="2.5" style="stroke:#181818;stroke-width:0.5;" width="75" x="296.5" y="64.9609"/><text fill="#000000" font-family="sans-serif" font-size="14" lengthAdjust="spacing" textLength="61" x="303.5" y="86.4941">Database</text><rect fill="#E2E2F0" height="31.6094" rx="2.5" ry="2.5" style="stroke:#181818;stroke-width:0.5;" width="75" x="296.5" y="950.1719"/><text fill="#000000" font-family="sans-serif" font-size="14" lengthAdjust="spacing" textLength="61" x="303.5" y="971.7051">Database</text><rect fill="#E2E2F0" height="31.6094" rx="2.5" ry="2.5" style="stroke:#181818;stroke-width:0.5;" width="58" x="405" y="64.9609"/><text fill="#000000" font-family="sans-serif" font-size="14" lengthAdjust="spacing" textLength="44" x="412" y="86.4941">Movies</text><rect fill="#E2E2F0" height="31.6094" rx="2.5" ry="2.5" style="stroke:#181818;stroke-width:0.5;" width="58" x="405" y="950.1719"/><text fill="#000000" font-family="sans-serif" font-size="14" lengthAdjust="spacing" textLength="44" x="412" y="971.7051">Movies</text><rect fill="#E2E2F0" height="31.6094" rx="2.5" ry="2.5" style="stroke:#181818;stroke-width:0.5;" width="54" x="473" y="64.9609"/><text fill="#000000" font-family="sans-serif" font-size="14" lengthAdjust="spacing" textLength="40" x="480" y="86.4941">Dining</text><rect fill="#E2E2F0" height="31.6094" rx="2.5" ry="2.5" style="stroke:#181818;stroke-width:0.5;" width="54" x="473" y="950.1719"/><text fill="#000000" font-family="sans-serif" font-size="14" lengthAdjust="spacing" textLength="40" x="480" y="971.7051">Dining</text><polygon fill="#181818" points="194,142.2734,204,146.2734,194,150.2734,198,146.2734" style="stroke:#181818;stroke-width:1.0;"/><line style="stroke:#181818;stroke-width:1.0;" x1="48" x2="200" y1="146.2734" y2="146.2734"/><text fill="#000000" font-family="sans-serif" font-size="13" lengthAdjust="spacing" textLength="77" x="55" y="125.0654">Author Log In</text><text fill="#000000" font-family="sans-serif" font-size="13" lengthAdjust="spacing" textLength="49" x="55" y="141.417">[HTTPS]</text><path d="M178.5,161.2734 L309.5,161.2734 L309.5,169.625 L299.5,179.625 L178.5,179.625 L178.5,161.2734 " fill="#EEEEEE" style="stroke:#000000;stroke-width:1.5;"/><rect fill="none" height="111.7578" style="stroke:#000000;stroke-width:1.5;" width="203" x="178.5" y="161.2734"/><text fill="#000000" font-family="sans-serif" font-size="13" font-weight="bold" lengthAdjust="spacing" textLength="86" x="193.5" y="175.7686">Author Log In</text><polygon fill="#181818" points="322,214.3281,332,218.3281,322,222.3281,326,218.3281" style="stroke:#181818;stroke-width:1.0;"/><line style="stroke:#181818;stroke-width:1.0;" x1="206" x2="328" y1="218.3281" y2="218.3281"/><text fill="#000000" font-family="sans-serif" font-size="13" lengthAdjust="spacing" textLength="99" x="213" y="197.1201">Select User Data</text><text fill="#000000" font-family="sans-serif" font-size="13" lengthAdjust="spacing" textLength="83" x="213" y="213.4717">[TCP/IP, SQL]</text><polygon fill="#181818" points="322,261.0313,332,265.0313,322,269.0313,326,265.0313" style="stroke:#181818;stroke-width:1.0;"/><line style="stroke:#181818;stroke-width:1.0;" x1="206" x2="328" y1="265.0313" y2="265.0313"/><text fill="#000000" font-family="sans-serif" font-size="13" lengthAdjust="spacing" textLength="104" x="213" y="243.8232">Authenticate User</text><text fill="#000000" font-family="sans-serif" font-size="13" lengthAdjust="spacing" textLength="83" x="213" y="260.1748">[TCP/IP, SQL]</text><polygon fill="#181818" points="194,314.7344,204,318.7344,194,322.7344,198,318.7344" style="stroke:#181818;stroke-width:1.0;"/><line style="stroke:#181818;stroke-width:1.0;" x1="48" x2="200" y1="318.7344" y2="318.7344"/><text fill="#000000" font-family="sans-serif" font-size="13" lengthAdjust="spacing" textLength="104" x="55" y="297.5264">Add Movie Review</text><text fill="#000000" font-family="sans-serif" font-size="13" lengthAdjust="spacing" textLength="42" x="55" y="313.8779">[HTML]</text><path d="M178.5,333.7344 L341.5,333.7344 L341.5,342.0859 L331.5,352.0859 L178.5,352.0859 L178.5,333.7344 " fill="#EEEEEE" style="stroke:#000000;stroke-width:1.5;"/><rect fill="none" height="144.1094" style="stroke:#000000;stroke-width:1.5;" width="304.5" x="178.5" y="333.7344"/><text fill="#000000" font-family="sans-serif" font-size="13" font-weight="bold" lengthAdjust="spacing" textLength="118" x="193.5" y="348.2295">Add Movie Review</text><polygon fill="#181818" points="422,386.7891,432,390.7891,422,394.7891,426,390.7891" style="stroke:#181818;stroke-width:1.0;"/><line style="stroke:#181818;stroke-width:1.0;" x1="206" x2="428" y1="390.7891" y2="390.7891"/><text fill="#000000" font-family="sans-serif" font-size="13" lengthAdjust="spacing" textLength="104" x="213" y="369.5811">Add Movie Review</text><text fill="#000000" font-family="sans-serif" font-size="13" lengthAdjust="spacing" textLength="42" x="213" y="385.9326">[HTML]</text><path d="M286.5,405.7891 L449.5,405.7891 L449.5,414.1406 L439.5,424.1406 L286.5,424.1406 L286.5,405.7891 " fill="#EEEEEE" style="stroke:#000000;stroke-width:1.5;"/><rect fill="none" height="65.0547" style="stroke:#000000;stroke-width:1.5;" width="186.5" x="286.5" y="405.7891"/><text fill="#000000" font-family="sans-serif" font-size="13" font-weight="bold" lengthAdjust="spacing" textLength="118" x="301.5" y="420.2842">Add Movie Review</text><polygon fill="#181818" points="345,458.8438,335,462.8438,345,466.8438,341,462.8438" style="stroke:#181818;stroke-width:1.0;"/><line style="stroke:#181818;stroke-width:1.0;" x1="339" x2="433" y1="462.8438" y2="462.8438"/><text fill="#000000" font-family="sans-serif" font-size="13" lengthAdjust="spacing" textLength="76" x="351" y="441.6357">Data Storage</text><text fill="#000000" font-family="sans-serif" font-size="13" lengthAdjust="spacing" textLength="34" x="351" y="457.9873">[SQL]</text><polygon fill="#181818" points="194,519.5469,204,523.5469,194,527.5469,198,523.5469" style="stroke:#181818;stroke-width:1.0;"/><line style="stroke:#181818;stroke-width:1.0;" x1="48" x2="200" y1="523.5469" y2="523.5469"/><text fill="#000000" font-family="sans-serif" font-size="13" lengthAdjust="spacing" textLength="98" x="55" y="502.3389">Add Actor Profile</text><text fill="#000000" font-family="sans-serif" font-size="13" lengthAdjust="spacing" textLength="42" x="55" y="518.6904">[HTML]</text><path d="M178.5,538.5469 L331.5,538.5469 L331.5,546.8984 L321.5,556.8984 L178.5,556.8984 L178.5,538.5469 " fill="#EEEEEE" style="stroke:#000000;stroke-width:1.5;"/><rect fill="none" height="144.1094" style="stroke:#000000;stroke-width:1.5;" width="304.5" x="178.5" y="538.5469"/><text fill="#000000" font-family="sans-serif" font-size="13" font-weight="bold" lengthAdjust="spacing" textLength="108" x="193.5" y="553.042">Add Actor Profile</text><polygon fill="#181818" points="422,591.6016,432,595.6016,422,599.6016,426,595.6016" style="stroke:#181818;stroke-width:1.0;"/><line style="stroke:#181818;stroke-width:1.0;" x1="206" x2="428" y1="595.6016" y2="595.6016"/><text fill="#000000" font-family="sans-serif" font-size="13" lengthAdjust="spacing" textLength="98" x="213" y="574.3936">Add Actor Profile</text><text fill="#000000" font-family="sans-serif" font-size="13" lengthAdjust="spacing" textLength="42" x="213" y="590.7451">[HTML]</text><path d="M286.5,610.6016 L439.5,610.6016 L439.5,618.9531 L429.5,628.9531 L286.5,628.9531 L286.5,610.6016 " fill="#EEEEEE" style="stroke:#000000;stroke-width:1.5;"/><rect fill="none" height="65.0547" style="stroke:#000000;stroke-width:1.5;" width="186.5" x="286.5" y="610.6016"/><text fill="#000000" font-family="sans-serif" font-size="13" font-weight="bold" lengthAdjust="spacing" textLength="108" x="301.5" y="625.0967">Add Actor Profile</text><polygon fill="#181818" points="345,663.6563,335,667.6563,345,671.6563,341,667.6563" style="stroke:#181818;stroke-width:1.0;"/><line style="stroke:#181818;stroke-width:1.0;" x1="339" x2="433" y1="667.6563" y2="667.6563"/><text fill="#000000" font-family="sans-serif" font-size="13" lengthAdjust="spacing" textLength="76" x="351" y="646.4482">Data Storage</text><text fill="#000000" font-family="sans-serif" font-size="13" lengthAdjust="spacing" textLength="34" x="351" y="662.7998">[SQL]</text><polygon fill="#181818" points="194,724.3594,204,728.3594,194,732.3594,198,728.3594" style="stroke:#181818;stroke-width:1.0;"/><line style="stroke:#181818;stroke-width:1.0;" x1="48" x2="200" y1="728.3594" y2="728.3594"/><text fill="#000000" font-family="sans-serif" font-size="13" lengthAdjust="spacing" textLength="134" x="55" y="707.1514">Add Restaurant Review</text><text fill="#000000" font-family="sans-serif" font-size="13" lengthAdjust="spacing" textLength="42" x="55" y="723.5029">[HTML]</text><path d="M178.5,743.3594 L371.5,743.3594 L371.5,751.7109 L361.5,761.7109 L178.5,761.7109 L178.5,743.3594 " fill="#EEEEEE" style="stroke:#000000;stroke-width:1.5;"/><rect fill="none" height="144.1094" style="stroke:#000000;stroke-width:1.5;" width="368.5" x="178.5" y="743.3594"/><text fill="#000000" font-family="sans-serif" font-size="13" font-weight="bold" lengthAdjust="spacing" textLength="148" x="193.5" y="757.8545">Add Restaurant Review</text><polygon fill="#181818" points="488,796.4141,498,800.4141,488,804.4141,492,800.4141" style="stroke:#181818;stroke-width:1.0;"/><line style="stroke:#181818;stroke-width:1.0;" x1="206" x2="494" y1="800.4141" y2="800.4141"/><text fill="#000000" font-family="sans-serif" font-size="13" lengthAdjust="spacing" textLength="134" x="213" y="779.2061">Add Restaurant Review</text><text fill="#000000" font-family="sans-serif" font-size="13" lengthAdjust="spacing" textLength="42" x="213" y="795.5576">[HTML]</text><path d="M286.5,815.4141 L479.5,815.4141 L479.5,823.7656 L469.5,833.7656 L286.5,833.7656 L286.5,815.4141 " fill="#EEEEEE" style="stroke:#000000;stroke-width:1.5;"/><rect fill="none" height="65.0547" style="stroke:#000000;stroke-width:1.5;" width="250.5" x="286.5" y="815.4141"/><text fill="#000000" font-family="sans-serif" font-size="13" font-weight="bold" lengthAdjust="spacing" textLength="148" x="301.5" y="829.9092">Add Restaurant Review</text><polygon fill="#181818" points="345,868.4688,335,872.4688,345,876.4688,341,872.4688" style="stroke:#181818;stroke-width:1.0;"/><line style="stroke:#181818;stroke-width:1.0;" x1="339" x2="499" y1="872.4688" y2="872.4688"/><text fill="#000000" font-family="sans-serif" font-size="13" lengthAdjust="spacing" textLength="76" x="351" y="851.2607">Data Storage</text><text fill="#000000" font-family="sans-serif" font-size="13" lengthAdjust="spacing" textLength="34" x="351" y="867.6123">[SQL]</text><polygon fill="#181818" points="194,929.1719,204,933.1719,194,937.1719,198,933.1719" style="stroke:#181818;stroke-width:1.0;"/><line style="stroke:#181818;stroke-width:1.0;" x1="48" x2="200" y1="933.1719" y2="933.1719"/><text fill="#000000" font-family="sans-serif" font-size="13" lengthAdjust="spacing" textLength="88" x="55" y="911.9639">Author Log Out</text><text fill="#000000" font-family="sans-serif" font-size="13" lengthAdjust="spacing" textLength="49" x="55" y="928.3154">[HTTPS]</text><!--SRC=[tLLDJuD04BtlhvZKgyMx1vE67cnI8dPhF6WFMvZIJM0NTvTM_xq3I1jQDT84K-L0XjdvUFlUa77IfGY-LWwLWq0eaM1MclpDEinW2AF2hRM1KUJaHZg9bdmSNmfK4PBfwopNgin8SOCfOxamJaOo5-GQrCa34BRfiMzHT_2ei3RMgoFRsNxmRIRNAxSL1kjFw_b1Etqid5WAYvsAD4cCBVKhNI3Ef1h0nUDQEcH0J-rl6ED8l6XbMo4j587U46cTC5HDlJ9QI8L4paTYqypRaMwzklnnsx5KKYMzjQtBCrGn41ziRx0VwGp3cmwomdKpXLETm4GzgwVR-Jpa2vOONUJjGzQXRWSKpLmG5eufCG8F5WsKRe8pzyEhINW9_7www1z0ULyAb95mMC4uH41gzAL374CrSZ13UcyhAOBfJec3uvwuwFw3z0Zz132doLwQm4azoY3mEwNxLRkg0A7HAvdY9vorpizDxtx0_tF5PsYTA4ovHhxyKuvYpa3vUYVzoYLEWFLd9c2_JEyAjr-rx1q0]--></g></svg>