<?xml version="1.0" encoding="us-ascii" standalone="no"?><svg xmlns="http://www.w3.org/2000/svg" xmlns:xlink="http://www.w3.org/1999/xlink" contentStyleType="text/css" height="917px" preserveAspectRatio="none" style="width:553px;height:917px;background:#FFFFFF;" version="1.1" viewBox="0 0 553 917" width="553px" zoomAndPan="magnify"><defs/><g><text fill="#000000" font-family="sans-serif" font-size="14" font-weight="bold" lengthAdjust="spacing" textLength="525" x="10" y="29.5332">Content Management System - Author Activities - Sequence - Context level</text><rect fill="none" height="111.7578" style="stroke:#000000;stroke-width:1.5;" width="203" x="191.75" y="139.9219"/><rect fill="none" height="127.7578" style="stroke:#000000;stroke-width:1.5;" width="302" x="191.75" y="312.3828"/><rect fill="none" height="65.0547" style="stroke:#000000;stroke-width:1.5;" width="184" x="299.75" y="368.0859"/><rect fill="none" height="127.7578" style="stroke:#000000;stroke-width:1.5;" width="302" x="191.75" y="500.8438"/><rect fill="none" height="65.0547" style="stroke:#000000;stroke-width:1.5;" width="184" x="299.75" y="556.5469"/><rect fill="none" height="127.7578" style="stroke:#000000;stroke-width:1.5;" width="316" x="191.75" y="689.3047"/><rect fill="none" height="65.0547" style="stroke:#000000;stroke-width:1.5;" width="198" x="299.75" y="745.0078"/><line style="stroke:#181818;stroke-width:0.5;stroke-dasharray:5.0,5.0;" x1="61.25" x2="61.25" y1="76.2188" y2="880.7656"/><line style="stroke:#181818;stroke-width:0.5;stroke-dasharray:5.0,5.0;" x1="218.75" x2="218.75" y1="76.2188" y2="880.7656"/><line style="stroke:#181818;stroke-width:0.5;stroke-dasharray:5.0,5.0;" x1="346.75" x2="346.75" y1="76.2188" y2="880.7656"/><line style="stroke:#181818;stroke-width:0.5;stroke-dasharray:5.0,5.0;" x1="446.75" x2="446.75" y1="76.2188" y2="880.7656"/><rect fill="#E2E2F0" height="31.6094" rx="2.5" ry="2.5" style="stroke:#181818;stroke-width:0.5;" width="56" x="33.25" y="43.6094"/><text fill="#000000" font-family="sans-serif" font-size="14" lengthAdjust="spacing" textLength="42" x="40.25" y="65.1426">Author</text><rect fill="#E2E2F0" height="31.6094" rx="2.5" ry="2.5" style="stroke:#181818;stroke-width:0.5;" width="56" x="33.25" y="879.7656"/><text fill="#000000" font-family="sans-serif" font-size="14" lengthAdjust="spacing" textLength="42" x="40.25" y="901.2988">Author</text><rect fill="#E2E2F0" height="31.6094" rx="2.5" ry="2.5" style="stroke:#181818;stroke-width:0.5;" width="35" x="201.75" y="43.6094"/><text fill="#000000" font-family="sans-serif" font-size="14" lengthAdjust="spacing" textLength="21" x="208.75" y="65.1426">CM</text><rect fill="#E2E2F0" height="31.6094" rx="2.5" ry="2.5" style="stroke:#181818;stroke-width:0.5;" width="35" x="201.75" y="879.7656"/><text fill="#000000" font-family="sans-serif" font-size="14" lengthAdjust="spacing" textLength="21" x="208.75" y="901.2988">CM</text><rect fill="#E2E2F0" height="31.6094" rx="2.5" ry="2.5" style="stroke:#181818;stroke-width:0.5;" width="75" x="309.75" y="43.6094"/><text fill="#000000" font-family="sans-serif" font-size="14" lengthAdjust="spacing" textLength="61" x="316.75" y="65.1426">Database</text><rect fill="#E2E2F0" height="31.6094" rx="2.5" ry="2.5" style="stroke:#181818;stroke-width:0.5;" width="75" x="309.75" y="879.7656"/><text fill="#000000" font-family="sans-serif" font-size="14" lengthAdjust="spacing" textLength="61" x="316.75" y="901.2988">Database</text><rect fill="#E2E2F0" height="31.6094" rx="2.5" ry="2.5" style="stroke:#181818;stroke-width:0.5;" width="53" x="420.75" y="43.6094"/><text fill="#000000" font-family="sans-serif" font-size="14" lengthAdjust="spacing" textLength="39" x="427.75" y="65.1426">Admin</text><rect fill="#E2E2F0" height="31.6094" rx="2.5" ry="2.5" style="stroke:#181818;stroke-width:0.5;" width="53" x="420.75" y="879.7656"/><text fill="#000000" font-family="sans-serif" font-size="14" lengthAdjust="spacing" textLength="39" x="427.75" y="901.2988">Admin</text><polygon fill="#181818" points="207.25,120.9219,217.25,124.9219,207.25,128.9219,211.25,124.9219" style="stroke:#181818;stroke-width:1.0;"/><line style="stroke:#181818;stroke-width:1.0;" x1="61.25" x2="213.25" y1="124.9219" y2="124.9219"/><text fill="#000000" font-family="sans-serif" font-size="13" lengthAdjust="spacing" textLength="77" x="68.25" y="103.7139">Author Log In</text><text fill="#000000" font-family="sans-serif" font-size="13" lengthAdjust="spacing" textLength="49" x="68.25" y="120.0654">[HTTPS]</text><path d="M191.75,139.9219 L322.75,139.9219 L322.75,148.2734 L312.75,158.2734 L191.75,158.2734 L191.75,139.9219 " fill="#EEEEEE" style="stroke:#000000;stroke-width:1.5;"/><rect fill="none" height="111.7578" style="stroke:#000000;stroke-width:1.5;" width="203" x="191.75" y="139.9219"/><text fill="#000000" font-family="sans-serif" font-size="13" font-weight="bold" lengthAdjust="spacing" textLength="86" x="206.75" y="154.417">Author Log In</text><polygon fill="#181818" points="335.25,192.9766,345.25,196.9766,335.25,200.9766,339.25,196.9766" style="stroke:#181818;stroke-width:1.0;"/><line style="stroke:#181818;stroke-width:1.0;" x1="219.25" x2="341.25" y1="196.9766" y2="196.9766"/><text fill="#000000" font-family="sans-serif" font-size="13" lengthAdjust="spacing" textLength="99" x="226.25" y="175.7686">Select User Data</text><text fill="#000000" font-family="sans-serif" font-size="13" lengthAdjust="spacing" textLength="83" x="226.25" y="192.1201">[TCP/IP, SQL]</text><polygon fill="#181818" points="335.25,239.6797,345.25,243.6797,335.25,247.6797,339.25,243.6797" style="stroke:#181818;stroke-width:1.0;"/><line style="stroke:#181818;stroke-width:1.0;" x1="219.25" x2="341.25" y1="243.6797" y2="243.6797"/><text fill="#000000" font-family="sans-serif" font-size="13" lengthAdjust="spacing" textLength="104" x="226.25" y="222.4717">Authenticate User</text><text fill="#000000" font-family="sans-serif" font-size="13" lengthAdjust="spacing" textLength="83" x="226.25" y="238.8232">[TCP/IP, SQL]</text><polygon fill="#181818" points="207.25,293.3828,217.25,297.3828,207.25,301.3828,211.25,297.3828" style="stroke:#181818;stroke-width:1.0;"/><line style="stroke:#181818;stroke-width:1.0;" x1="61.25" x2="213.25" y1="297.3828" y2="297.3828"/><text fill="#000000" font-family="sans-serif" font-size="13" lengthAdjust="spacing" textLength="104" x="68.25" y="276.1748">Add Movie Review</text><text fill="#000000" font-family="sans-serif" font-size="13" lengthAdjust="spacing" textLength="42" x="68.25" y="292.5264">[HTML]</text><path d="M191.75,312.3828 L354.75,312.3828 L354.75,320.7344 L344.75,330.7344 L191.75,330.7344 L191.75,312.3828 " fill="#EEEEEE" style="stroke:#000000;stroke-width:1.5;"/><rect fill="none" height="127.7578" style="stroke:#000000;stroke-width:1.5;" width="302" x="191.75" y="312.3828"/><text fill="#000000" font-family="sans-serif" font-size="13" font-weight="bold" lengthAdjust="spacing" textLength="118" x="206.75" y="326.8779">Add Movie Review</text><polygon fill="#181818" points="435.25,349.0859,445.25,353.0859,435.25,357.0859,439.25,353.0859" style="stroke:#181818;stroke-width:1.0;"/><line style="stroke:#181818;stroke-width:1.0;" x1="219.25" x2="441.25" y1="353.0859" y2="353.0859"/><text fill="#000000" font-family="sans-serif" font-size="13" lengthAdjust="spacing" textLength="104" x="226.25" y="348.2295">Add Movie Review</text><path d="M299.75,368.0859 L462.75,368.0859 L462.75,376.4375 L452.75,386.4375 L299.75,386.4375 L299.75,368.0859 " fill="#EEEEEE" style="stroke:#000000;stroke-width:1.5;"/><rect fill="none" height="65.0547" style="stroke:#000000;stroke-width:1.5;" width="184" x="299.75" y="368.0859"/><text fill="#000000" font-family="sans-serif" font-size="13" font-weight="bold" lengthAdjust="spacing" textLength="118" x="314.75" y="382.5811">Add Movie Review</text><polygon fill="#181818" points="358.25,421.1406,348.25,425.1406,358.25,429.1406,354.25,425.1406" style="stroke:#181818;stroke-width:1.0;"/><line style="stroke:#181818;stroke-width:1.0;" x1="352.25" x2="446.25" y1="425.1406" y2="425.1406"/><text fill="#000000" font-family="sans-serif" font-size="13" lengthAdjust="spacing" textLength="76" x="364.25" y="403.9326">Data Storage</text><text fill="#000000" font-family="sans-serif" font-size="13" lengthAdjust="spacing" textLength="34" x="364.25" y="420.2842">[SQL]</text><polygon fill="#181818" points="207.25,481.8438,217.25,485.8438,207.25,489.8438,211.25,485.8438" style="stroke:#181818;stroke-width:1.0;"/><line style="stroke:#181818;stroke-width:1.0;" x1="61.25" x2="213.25" y1="485.8438" y2="485.8438"/><text fill="#000000" font-family="sans-serif" font-size="13" lengthAdjust="spacing" textLength="98" x="68.25" y="464.6357">Add Actor Profile</text><text fill="#000000" font-family="sans-serif" font-size="13" lengthAdjust="spacing" textLength="42" x="68.25" y="480.9873">[HTML]</text><path d="M191.75,500.8438 L344.75,500.8438 L344.75,509.1953 L334.75,519.1953 L191.75,519.1953 L191.75,500.8438 " fill="#EEEEEE" style="stroke:#000000;stroke-width:1.5;"/><rect fill="none" height="127.7578" style="stroke:#000000;stroke-width:1.5;" width="302" x="191.75" y="500.8438"/><text fill="#000000" font-family="sans-serif" font-size="13" font-weight="bold" lengthAdjust="spacing" textLength="108" x="206.75" y="515.3389">Add Actor Profile</text><polygon fill="#181818" points="435.25,537.5469,445.25,541.5469,435.25,545.5469,439.25,541.5469" style="stroke:#181818;stroke-width:1.0;"/><line style="stroke:#181818;stroke-width:1.0;" x1="219.25" x2="441.25" y1="541.5469" y2="541.5469"/><text fill="#000000" font-family="sans-serif" font-size="13" lengthAdjust="spacing" textLength="98" x="226.25" y="536.6904">Add Actor Profile</text><path d="M299.75,556.5469 L452.75,556.5469 L452.75,564.8984 L442.75,574.8984 L299.75,574.8984 L299.75,556.5469 " fill="#EEEEEE" style="stroke:#000000;stroke-width:1.5;"/><rect fill="none" height="65.0547" style="stroke:#000000;stroke-width:1.5;" width="184" x="299.75" y="556.5469"/><text fill="#000000" font-family="sans-serif" font-size="13" font-weight="bold" lengthAdjust="spacing" textLength="108" x="314.75" y="571.042">Add Actor Profile</text><polygon fill="#181818" points="358.25,609.6016,348.25,613.6016,358.25,617.6016,354.25,613.6016" style="stroke:#181818;stroke-width:1.0;"/><line style="stroke:#181818;stroke-width:1.0;" x1="352.25" x2="446.25" y1="613.6016" y2="613.6016"/><text fill="#000000" font-family="sans-serif" font-size="13" lengthAdjust="spacing" textLength="76" x="364.25" y="592.3936">Data Storage</text><text fill="#000000" font-family="sans-serif" font-size="13" lengthAdjust="spacing" textLength="34" x="364.25" y="608.7451">[SQL]</text><polygon fill="#181818" points="207.25,670.3047,217.25,674.3047,207.25,678.3047,211.25,674.3047" style="stroke:#181818;stroke-width:1.0;"/><line style="stroke:#181818;stroke-width:1.0;" x1="61.25" x2="213.25" y1="674.3047" y2="674.3047"/><text fill="#000000" font-family="sans-serif" font-size="13" lengthAdjust="spacing" textLength="134" x="68.25" y="653.0967">Add Restaurant Review</text><text fill="#000000" font-family="sans-serif" font-size="13" lengthAdjust="spacing" textLength="42" x="68.25" y="669.4482">[HTML]</text><path d="M191.75,689.3047 L384.75,689.3047 L384.75,697.6563 L374.75,707.6563 L191.75,707.6563 L191.75,689.3047 " fill="#EEEEEE" style="stroke:#000000;stroke-width:1.5;"/><rect fill="none" height="127.7578" style="stroke:#000000;stroke-width:1.5;" width="316" x="191.75" y="689.3047"/><text fill="#000000" font-family="sans-serif" font-size="13" font-weight="bold" lengthAdjust="spacing" textLength="148" x="206.75" y="703.7998">Add Restaurant Review</text><polygon fill="#181818" points="435.25,726.0078,445.25,730.0078,435.25,734.0078,439.25,730.0078" style="stroke:#181818;stroke-width:1.0;"/><line style="stroke:#181818;stroke-width:1.0;" x1="219.25" x2="441.25" y1="730.0078" y2="730.0078"/><text fill="#000000" font-family="sans-serif" font-size="13" lengthAdjust="spacing" textLength="134" x="226.25" y="725.1514">Add Restaurant Review</text><path d="M299.75,745.0078 L492.75,745.0078 L492.75,753.3594 L482.75,763.3594 L299.75,763.3594 L299.75,745.0078 " fill="#EEEEEE" style="stroke:#000000;stroke-width:1.5;"/><rect fill="none" height="65.0547" style="stroke:#000000;stroke-width:1.5;" width="198" x="299.75" y="745.0078"/><text fill="#000000" font-family="sans-serif" font-size="13" font-weight="bold" lengthAdjust="spacing" textLength="148" x="314.75" y="759.5029">Add Restaurant Review</text><polygon fill="#181818" points="358.25,798.0625,348.25,802.0625,358.25,806.0625,354.25,802.0625" style="stroke:#181818;stroke-width:1.0;"/><line style="stroke:#181818;stroke-width:1.0;" x1="352.25" x2="446.25" y1="802.0625" y2="802.0625"/><text fill="#000000" font-family="sans-serif" font-size="13" lengthAdjust="spacing" textLength="76" x="364.25" y="780.8545">Data Storage</text><text fill="#000000" font-family="sans-serif" font-size="13" lengthAdjust="spacing" textLength="34" x="364.25" y="797.2061">[SQL]</text><polygon fill="#181818" points="207.25,858.7656,217.25,862.7656,207.25,866.7656,211.25,862.7656" style="stroke:#181818;stroke-width:1.0;"/><line style="stroke:#181818;stroke-width:1.0;" x1="61.25" x2="213.25" y1="862.7656" y2="862.7656"/><text fill="#000000" font-family="sans-serif" font-size="13" lengthAdjust="spacing" textLength="88" x="68.25" y="841.5576">Author Log Out</text><text fill="#000000" font-family="sans-serif" font-size="13" lengthAdjust="spacing" textLength="49" x="68.25" y="857.9092">[HTTPS]</text><!--SRC=[rLMnJiCm4Dtz5QVEDEmCI5KOgDI8K8S9EfZaMYobTh4lAVmzZgCqIbiGeQHIbyZntNltxbvYawGS8TIAK154GeaLhgib_xI4QnZ3fA0tRM2IaYmbIRHkZ-DxWIf5j_JG3u8SIymPsmX3CfKRuIX6DNG4mZOLsW8rV-1ejR51dTb5Xz6FIAwNj1K6wrSRX54NVYT8l0gBlKWQq5uVsLggNZmUmTYlkeRnROycuQPnPAPNC5Klwla-IMA-O2kZYqqto7hmzb3HJCbfuPXZIl1aqK2rxUGaONmzZQ-0FyuMmmke-dM9CXM4NiQ-0bJPK3va6KIwb0XpTC-jjoAQxPpO2myq2_-f7L5pgegQzs-cL4lWRhOEuQQoys5OBpm3n4OlPOv7pEZ4p-16jzwfEYxFZpbQ4eMfZj1lVv23d3FuSbZpF_HSc3_jDV5GK7k9i2y0]--></g></svg>