<?xml version="1.0" encoding="us-ascii" standalone="no"?><svg xmlns="http://www.w3.org/2000/svg" xmlns:xlink="http://www.w3.org/1999/xlink" contentStyleType="text/css" height="943px" preserveAspectRatio="none" style="width:567px;height:943px;background:#FFFFFF;" version="1.1" viewBox="0 0 567 943" width="567px" zoomAndPan="magnify"><defs/><g><text fill="#000000" font-family="sans-serif" font-size="14" font-weight="bold" lengthAdjust="spacing" textLength="539" x="10" y="29.5332">Content Management System - Author Activities - Sequence - Container level</text><rect fill="#FFFFFF" height="893.1172" style="stroke:#181818;stroke-width:0.5;" width="130" x="383.25" y="44.6094"/><text fill="#000000" font-family="sans-serif" font-size="13" font-weight="bold" lengthAdjust="spacing" textLength="41" x="427.75" y="58.1045">Admin</text><rect fill="none" height="111.7578" style="stroke:#000000;stroke-width:1.5;" width="203" x="184.25" y="161.2734"/><rect fill="none" height="127.7578" style="stroke:#000000;stroke-width:1.5;" width="345" x="184.25" y="333.7344"/><rect fill="none" height="65.0547" style="stroke:#000000;stroke-width:1.5;" width="227" x="292.25" y="389.4375"/><rect fill="none" height="127.7578" style="stroke:#000000;stroke-width:1.5;" width="345" x="184.25" y="522.1953"/><rect fill="none" height="65.0547" style="stroke:#000000;stroke-width:1.5;" width="227" x="292.25" y="577.8984"/><rect fill="none" height="127.7578" style="stroke:#000000;stroke-width:1.5;" width="345" x="184.25" y="710.6563"/><rect fill="none" height="65.0547" style="stroke:#000000;stroke-width:1.5;" width="227" x="292.25" y="766.3594"/><line style="stroke:#181818;stroke-width:0.5;stroke-dasharray:5.0,5.0;" x1="53.75" x2="53.75" y1="97.5703" y2="902.1172"/><line style="stroke:#181818;stroke-width:0.5;stroke-dasharray:5.0,5.0;" x1="211.25" x2="211.25" y1="97.5703" y2="902.1172"/><line style="stroke:#181818;stroke-width:0.5;stroke-dasharray:5.0,5.0;" x1="339.25" x2="339.25" y1="97.5703" y2="902.1172"/><line style="stroke:#181818;stroke-width:0.5;stroke-dasharray:5.0,5.0;" x1="448.25" x2="448.25" y1="97.5703" y2="902.1172"/><rect fill="#E2E2F0" height="31.6094" rx="2.5" ry="2.5" style="stroke:#181818;stroke-width:0.5;" width="56" x="25.75" y="64.9609"/><text fill="#000000" font-family="sans-serif" font-size="14" lengthAdjust="spacing" textLength="42" x="32.75" y="86.4941">Author</text><rect fill="#E2E2F0" height="31.6094" rx="2.5" ry="2.5" style="stroke:#181818;stroke-width:0.5;" width="56" x="25.75" y="901.1172"/><text fill="#000000" font-family="sans-serif" font-size="14" lengthAdjust="spacing" textLength="42" x="32.75" y="922.6504">Author</text><rect fill="#E2E2F0" height="31.6094" rx="2.5" ry="2.5" style="stroke:#181818;stroke-width:0.5;" width="35" x="194.25" y="64.9609"/><text fill="#000000" font-family="sans-serif" font-size="14" lengthAdjust="spacing" textLength="21" x="201.25" y="86.4941">CM</text><rect fill="#E2E2F0" height="31.6094" rx="2.5" ry="2.5" style="stroke:#181818;stroke-width:0.5;" width="35" x="194.25" y="901.1172"/><text fill="#000000" font-family="sans-serif" font-size="14" lengthAdjust="spacing" textLength="21" x="201.25" y="922.6504">CM</text><rect fill="#E2E2F0" height="31.6094" rx="2.5" ry="2.5" style="stroke:#181818;stroke-width:0.5;" width="75" x="302.25" y="64.9609"/><text fill="#000000" font-family="sans-serif" font-size="14" lengthAdjust="spacing" textLength="61" x="309.25" y="86.4941">Database</text><rect fill="#E2E2F0" height="31.6094" rx="2.5" ry="2.5" style="stroke:#181818;stroke-width:0.5;" width="75" x="302.25" y="901.1172"/><text fill="#000000" font-family="sans-serif" font-size="14" lengthAdjust="spacing" textLength="61" x="309.25" y="922.6504">Database</text><rect fill="#E2E2F0" height="31.6094" rx="2.5" ry="2.5" style="stroke:#181818;stroke-width:0.5;" width="122" x="387.25" y="64.9609"/><text fill="#000000" font-family="sans-serif" font-size="14" lengthAdjust="spacing" textLength="108" x="394.25" y="86.4941">Content Sections</text><rect fill="#E2E2F0" height="31.6094" rx="2.5" ry="2.5" style="stroke:#181818;stroke-width:0.5;" width="122" x="387.25" y="901.1172"/><text fill="#000000" font-family="sans-serif" font-size="14" lengthAdjust="spacing" textLength="108" x="394.25" y="922.6504">Content Sections</text><polygon fill="#181818" points="199.75,142.2734,209.75,146.2734,199.75,150.2734,203.75,146.2734" style="stroke:#181818;stroke-width:1.0;"/><line style="stroke:#181818;stroke-width:1.0;" x1="53.75" x2="205.75" y1="146.2734" y2="146.2734"/><text fill="#000000" font-family="sans-serif" font-size="13" lengthAdjust="spacing" textLength="77" x="60.75" y="125.0654">Author Log In</text><text fill="#000000" font-family="sans-serif" font-size="13" lengthAdjust="spacing" textLength="49" x="60.75" y="141.417">[HTTPS]</text><path d="M184.25,161.2734 L315.25,161.2734 L315.25,169.625 L305.25,179.625 L184.25,179.625 L184.25,161.2734 " fill="#EEEEEE" style="stroke:#000000;stroke-width:1.5;"/><rect fill="none" height="111.7578" style="stroke:#000000;stroke-width:1.5;" width="203" x="184.25" y="161.2734"/><text fill="#000000" font-family="sans-serif" font-size="13" font-weight="bold" lengthAdjust="spacing" textLength="86" x="199.25" y="175.7686">Author Log In</text><polygon fill="#181818" points="327.75,214.3281,337.75,218.3281,327.75,222.3281,331.75,218.3281" style="stroke:#181818;stroke-width:1.0;"/><line style="stroke:#181818;stroke-width:1.0;" x1="211.75" x2="333.75" y1="218.3281" y2="218.3281"/><text fill="#000000" font-family="sans-serif" font-size="13" lengthAdjust="spacing" textLength="99" x="218.75" y="197.1201">Select User Data</text><text fill="#000000" font-family="sans-serif" font-size="13" lengthAdjust="spacing" textLength="83" x="218.75" y="213.4717">[TCP/IP, SQL]</text><polygon fill="#181818" points="327.75,261.0313,337.75,265.0313,327.75,269.0313,331.75,265.0313" style="stroke:#181818;stroke-width:1.0;"/><line style="stroke:#181818;stroke-width:1.0;" x1="211.75" x2="333.75" y1="265.0313" y2="265.0313"/><text fill="#000000" font-family="sans-serif" font-size="13" lengthAdjust="spacing" textLength="104" x="218.75" y="243.8232">Authenticate User</text><text fill="#000000" font-family="sans-serif" font-size="13" lengthAdjust="spacing" textLength="83" x="218.75" y="260.1748">[TCP/IP, SQL]</text><polygon fill="#181818" points="199.75,314.7344,209.75,318.7344,199.75,322.7344,203.75,318.7344" style="stroke:#181818;stroke-width:1.0;"/><line style="stroke:#181818;stroke-width:1.0;" x1="53.75" x2="205.75" y1="318.7344" y2="318.7344"/><text fill="#000000" font-family="sans-serif" font-size="13" lengthAdjust="spacing" textLength="104" x="60.75" y="297.5264">Add Movie Review</text><text fill="#000000" font-family="sans-serif" font-size="13" lengthAdjust="spacing" textLength="42" x="60.75" y="313.8779">[HTML]</text><path d="M184.25,333.7344 L347.25,333.7344 L347.25,342.0859 L337.25,352.0859 L184.25,352.0859 L184.25,333.7344 " fill="#EEEEEE" style="stroke:#000000;stroke-width:1.5;"/><rect fill="none" height="127.7578" style="stroke:#000000;stroke-width:1.5;" width="345" x="184.25" y="333.7344"/><text fill="#000000" font-family="sans-serif" font-size="13" font-weight="bold" lengthAdjust="spacing" textLength="118" x="199.25" y="348.2295">Add Movie Review</text><polygon fill="#181818" points="436.25,370.4375,446.25,374.4375,436.25,378.4375,440.25,374.4375" style="stroke:#181818;stroke-width:1.0;"/><line style="stroke:#181818;stroke-width:1.0;" x1="211.75" x2="442.25" y1="374.4375" y2="374.4375"/><text fill="#000000" font-family="sans-serif" font-size="13" lengthAdjust="spacing" textLength="104" x="218.75" y="369.5811">Add Movie Review</text><path d="M292.25,389.4375 L455.25,389.4375 L455.25,397.7891 L445.25,407.7891 L292.25,407.7891 L292.25,389.4375 " fill="#EEEEEE" style="stroke:#000000;stroke-width:1.5;"/><rect fill="none" height="65.0547" style="stroke:#000000;stroke-width:1.5;" width="227" x="292.25" y="389.4375"/><text fill="#000000" font-family="sans-serif" font-size="13" font-weight="bold" lengthAdjust="spacing" textLength="118" x="307.25" y="403.9326">Add Movie Review</text><polygon fill="#181818" points="350.75,442.4922,340.75,446.4922,350.75,450.4922,346.75,446.4922" style="stroke:#181818;stroke-width:1.0;"/><line style="stroke:#181818;stroke-width:1.0;" x1="344.75" x2="447.25" y1="446.4922" y2="446.4922"/><text fill="#000000" font-family="sans-serif" font-size="13" lengthAdjust="spacing" textLength="76" x="356.75" y="425.2842">Data Storage</text><text fill="#000000" font-family="sans-serif" font-size="13" lengthAdjust="spacing" textLength="34" x="356.75" y="441.6357">[SQL]</text><polygon fill="#181818" points="199.75,503.1953,209.75,507.1953,199.75,511.1953,203.75,507.1953" style="stroke:#181818;stroke-width:1.0;"/><line style="stroke:#181818;stroke-width:1.0;" x1="53.75" x2="205.75" y1="507.1953" y2="507.1953"/><text fill="#000000" font-family="sans-serif" font-size="13" lengthAdjust="spacing" textLength="98" x="60.75" y="485.9873">Add Actor Profile</text><text fill="#000000" font-family="sans-serif" font-size="13" lengthAdjust="spacing" textLength="42" x="60.75" y="502.3389">[HTML]</text><path d="M184.25,522.1953 L337.25,522.1953 L337.25,530.5469 L327.25,540.5469 L184.25,540.5469 L184.25,522.1953 " fill="#EEEEEE" style="stroke:#000000;stroke-width:1.5;"/><rect fill="none" height="127.7578" style="stroke:#000000;stroke-width:1.5;" width="345" x="184.25" y="522.1953"/><text fill="#000000" font-family="sans-serif" font-size="13" font-weight="bold" lengthAdjust="spacing" textLength="108" x="199.25" y="536.6904">Add Actor Profile</text><polygon fill="#181818" points="436.25,558.8984,446.25,562.8984,436.25,566.8984,440.25,562.8984" style="stroke:#181818;stroke-width:1.0;"/><line style="stroke:#181818;stroke-width:1.0;" x1="211.75" x2="442.25" y1="562.8984" y2="562.8984"/><text fill="#000000" font-family="sans-serif" font-size="13" lengthAdjust="spacing" textLength="98" x="218.75" y="558.042">Add Actor Profile</text><path d="M292.25,577.8984 L445.25,577.8984 L445.25,586.25 L435.25,596.25 L292.25,596.25 L292.25,577.8984 " fill="#EEEEEE" style="stroke:#000000;stroke-width:1.5;"/><rect fill="none" height="65.0547" style="stroke:#000000;stroke-width:1.5;" width="227" x="292.25" y="577.8984"/><text fill="#000000" font-family="sans-serif" font-size="13" font-weight="bold" lengthAdjust="spacing" textLength="108" x="307.25" y="592.3936">Add Actor Profile</text><polygon fill="#181818" points="350.75,630.9531,340.75,634.9531,350.75,638.9531,346.75,634.9531" style="stroke:#181818;stroke-width:1.0;"/><line style="stroke:#181818;stroke-width:1.0;" x1="344.75" x2="447.25" y1="634.9531" y2="634.9531"/><text fill="#000000" font-family="sans-serif" font-size="13" lengthAdjust="spacing" textLength="76" x="356.75" y="613.7451">Data Storage</text><text fill="#000000" font-family="sans-serif" font-size="13" lengthAdjust="spacing" textLength="34" x="356.75" y="630.0967">[SQL]</text><polygon fill="#181818" points="199.75,691.6563,209.75,695.6563,199.75,699.6563,203.75,695.6563" style="stroke:#181818;stroke-width:1.0;"/><line style="stroke:#181818;stroke-width:1.0;" x1="53.75" x2="205.75" y1="695.6563" y2="695.6563"/><text fill="#000000" font-family="sans-serif" font-size="13" lengthAdjust="spacing" textLength="134" x="60.75" y="674.4482">Add Restaurant Review</text><text fill="#000000" font-family="sans-serif" font-size="13" lengthAdjust="spacing" textLength="42" x="60.75" y="690.7998">[HTML]</text><path d="M184.25,710.6563 L377.25,710.6563 L377.25,719.0078 L367.25,729.0078 L184.25,729.0078 L184.25,710.6563 " fill="#EEEEEE" style="stroke:#000000;stroke-width:1.5;"/><rect fill="none" height="127.7578" style="stroke:#000000;stroke-width:1.5;" width="345" x="184.25" y="710.6563"/><text fill="#000000" font-family="sans-serif" font-size="13" font-weight="bold" lengthAdjust="spacing" textLength="148" x="199.25" y="725.1514">Add Restaurant Review</text><polygon fill="#181818" points="436.25,747.3594,446.25,751.3594,436.25,755.3594,440.25,751.3594" style="stroke:#181818;stroke-width:1.0;"/><line style="stroke:#181818;stroke-width:1.0;" x1="211.75" x2="442.25" y1="751.3594" y2="751.3594"/><text fill="#000000" font-family="sans-serif" font-size="13" lengthAdjust="spacing" textLength="134" x="218.75" y="746.5029">Add Restaurant Review</text><path d="M292.25,766.3594 L485.25,766.3594 L485.25,774.7109 L475.25,784.7109 L292.25,784.7109 L292.25,766.3594 " fill="#EEEEEE" style="stroke:#000000;stroke-width:1.5;"/><rect fill="none" height="65.0547" style="stroke:#000000;stroke-width:1.5;" width="227" x="292.25" y="766.3594"/><text fill="#000000" font-family="sans-serif" font-size="13" font-weight="bold" lengthAdjust="spacing" textLength="148" x="307.25" y="780.8545">Add Restaurant Review</text><polygon fill="#181818" points="350.75,819.4141,340.75,823.4141,350.75,827.4141,346.75,823.4141" style="stroke:#181818;stroke-width:1.0;"/><line style="stroke:#181818;stroke-width:1.0;" x1="344.75" x2="447.25" y1="823.4141" y2="823.4141"/><text fill="#000000" font-family="sans-serif" font-size="13" lengthAdjust="spacing" textLength="76" x="356.75" y="802.2061">Data Storage</text><text fill="#000000" font-family="sans-serif" font-size="13" lengthAdjust="spacing" textLength="34" x="356.75" y="818.5576">[SQL]</text><polygon fill="#181818" points="199.75,880.1172,209.75,884.1172,199.75,888.1172,203.75,884.1172" style="stroke:#181818;stroke-width:1.0;"/><line style="stroke:#181818;stroke-width:1.0;" x1="53.75" x2="205.75" y1="884.1172" y2="884.1172"/><text fill="#000000" font-family="sans-serif" font-size="13" lengthAdjust="spacing" textLength="88" x="60.75" y="862.9092">Author Log Out</text><text fill="#000000" font-family="sans-serif" font-size="13" lengthAdjust="spacing" textLength="49" x="60.75" y="879.2607">[HTTPS]</text><!--SRC=[tLL1Jy8m6BttLtp1gyox1nCo3vAmE2d6Wt8esmSqsLfiEz1_xxUDGGOeJbn8s67fshxtlRxNhaww1C7Nog5o40WbPfZcJVvf7QRGXLxcvjf0Bt9oAPr4ItqStpDK4L8pXmgfq422IqmOMmZZP2GNWaWw9RW3mbOrjYNA2XuHQsEzScOTxGS_8hcUkfKmM7vQpm_gy7lXn4HOR4HIWHYRw0zQG9nArO6hbxbqo82UkiArSHp97grier85jxSnq7fhO4N6KCL0AXXZlp8FkdSDl8BRAjg1da5VlQdNXz4ev6CsCpfRr0TP0zu6AYgpIGl7X9ODpvPsKjvDSaP-UDCFhu4_3SRj2yZNInDb91mMCdOLK1fjvH374EYbH1WYlLT55C5WayJES4jU7DkE1uIUAl1eoRz5cJU1KoA482ytwRMROC40eT5JcU2126lZvysmBkLKYHULuX2j4vd9_-xV7iQzEUTDSr_EVqYzd5It5zbZvhRN7Fi2]--></g></svg>