<?xml version="1.0" encoding="us-ascii" standalone="no"?><svg xmlns="http://www.w3.org/2000/svg" xmlns:xlink="http://www.w3.org/1999/xlink" contentStyleType="text/css" height="834px" preserveAspectRatio="none" style="width:711px;height:834px;background:#FFFFFF;" version="1.1" viewBox="0 0 711 834" width="711px" zoomAndPan="magnify"><defs/><g><text fill="#000000" font-family="sans-serif" font-size="14" font-weight="bold" lengthAdjust="spacing" textLength="652" x="31.25" y="29.5332">Content Management System - Information Designer Activities - Sequence - Component level</text><rect fill="#FFFFFF" height="784.0625" style="stroke:#181818;stroke-width:0.5;" width="248.5" x="441" y="44.6094"/><text fill="#000000" font-family="sans-serif" font-size="13" font-weight="bold" lengthAdjust="spacing" textLength="107" x="511.75" y="58.1045">Content Sections</text><rect fill="none" height="111.7578" style="stroke:#000000;stroke-width:1.5;" width="227" x="242" y="161.2734"/><rect fill="none" height="395.625" style="stroke:#000000;stroke-width:1.5;" width="463.5" x="242" y="333.7344"/><rect fill="none" height="65.0547" style="stroke:#000000;stroke-width:1.5;" width="175" x="435" y="405.7891"/><rect fill="none" height="65.0547" style="stroke:#000000;stroke-width:1.5;" width="163.5" x="532" y="531.5469"/><rect fill="none" height="65.0547" style="stroke:#000000;stroke-width:1.5;" width="175" x="435" y="657.3047"/><line style="stroke:#181818;stroke-width:0.5;stroke-dasharray:5.0,5.0;" x1="77" x2="77" y1="97.5703" y2="793.0625"/><line style="stroke:#181818;stroke-width:0.5;stroke-dasharray:5.0,5.0;" x1="269" x2="269" y1="97.5703" y2="793.0625"/><line style="stroke:#181818;stroke-width:0.5;stroke-dasharray:5.0,5.0;" x1="397" x2="397" y1="97.5703" y2="793.0625"/><line style="stroke:#181818;stroke-width:0.5;stroke-dasharray:5.0,5.0;" x1="472" x2="472" y1="97.5703" y2="793.0625"/><line style="stroke:#181818;stroke-width:0.5;stroke-dasharray:5.0,5.0;" x1="571" x2="571" y1="97.5703" y2="793.0625"/><line style="stroke:#181818;stroke-width:0.5;stroke-dasharray:5.0,5.0;" x1="661.5" x2="661.5" y1="97.5703" y2="793.0625"/><rect fill="#E2E2F0" height="31.6094" rx="2.5" ry="2.5" style="stroke:#181818;stroke-width:0.5;" width="145" x="5" y="64.9609"/><text fill="#000000" font-family="sans-serif" font-size="14" lengthAdjust="spacing" textLength="131" x="12" y="86.4941">Information Designer</text><rect fill="#E2E2F0" height="31.6094" rx="2.5" ry="2.5" style="stroke:#181818;stroke-width:0.5;" width="145" x="5" y="792.0625"/><text fill="#000000" font-family="sans-serif" font-size="14" lengthAdjust="spacing" textLength="131" x="12" y="813.5957">Information Designer</text><rect fill="#E2E2F0" height="31.6094" rx="2.5" ry="2.5" style="stroke:#181818;stroke-width:0.5;" width="35" x="252" y="64.9609"/><text fill="#000000" font-family="sans-serif" font-size="14" lengthAdjust="spacing" textLength="21" x="259" y="86.4941">CM</text><rect fill="#E2E2F0" height="31.6094" rx="2.5" ry="2.5" style="stroke:#181818;stroke-width:0.5;" width="35" x="252" y="792.0625"/><text fill="#000000" font-family="sans-serif" font-size="14" lengthAdjust="spacing" textLength="21" x="259" y="813.5957">CM</text><rect fill="#E2E2F0" height="31.6094" rx="2.5" ry="2.5" style="stroke:#181818;stroke-width:0.5;" width="75" x="360" y="64.9609"/><text fill="#000000" font-family="sans-serif" font-size="14" lengthAdjust="spacing" textLength="61" x="367" y="86.4941">Database</text><rect fill="#E2E2F0" height="31.6094" rx="2.5" ry="2.5" style="stroke:#181818;stroke-width:0.5;" width="75" x="360" y="792.0625"/><text fill="#000000" font-family="sans-serif" font-size="14" lengthAdjust="spacing" textLength="61" x="367" y="813.5957">Database</text><rect fill="#E2E2F0" height="31.6094" rx="2.5" ry="2.5" style="stroke:#181818;stroke-width:0.5;" width="54" x="445" y="64.9609"/><text fill="#000000" font-family="sans-serif" font-size="14" lengthAdjust="spacing" textLength="40" x="452" y="86.4941">Dining</text><rect fill="#E2E2F0" height="31.6094" rx="2.5" ry="2.5" style="stroke:#181818;stroke-width:0.5;" width="54" x="445" y="792.0625"/><text fill="#000000" font-family="sans-serif" font-size="14" lengthAdjust="spacing" textLength="40" x="452" y="813.5957">Dining</text><rect fill="#E2E2F0" height="31.6094" rx="2.5" ry="2.5" style="stroke:#181818;stroke-width:0.5;" width="58" x="542" y="64.9609"/><text fill="#000000" font-family="sans-serif" font-size="14" lengthAdjust="spacing" textLength="44" x="549" y="86.4941">Movies</text><rect fill="#E2E2F0" height="31.6094" rx="2.5" ry="2.5" style="stroke:#181818;stroke-width:0.5;" width="58" x="542" y="792.0625"/><text fill="#000000" font-family="sans-serif" font-size="14" lengthAdjust="spacing" textLength="44" x="549" y="813.5957">Movies</text><rect fill="#E2E2F0" height="31.6094" rx="2.5" ry="2.5" style="stroke:#181818;stroke-width:0.5;" width="47" x="638.5" y="64.9609"/><text fill="#000000" font-family="sans-serif" font-size="14" lengthAdjust="spacing" textLength="33" x="645.5" y="86.4941">News</text><rect fill="#E2E2F0" height="31.6094" rx="2.5" ry="2.5" style="stroke:#181818;stroke-width:0.5;" width="47" x="638.5" y="792.0625"/><text fill="#000000" font-family="sans-serif" font-size="14" lengthAdjust="spacing" textLength="33" x="645.5" y="813.5957">News</text><polygon fill="#181818" points="257.5,142.2734,267.5,146.2734,257.5,150.2734,261.5,146.2734" style="stroke:#181818;stroke-width:1.0;"/><line style="stroke:#181818;stroke-width:1.0;" x1="77.5" x2="263.5" y1="146.2734" y2="146.2734"/><text fill="#000000" font-family="sans-serif" font-size="13" lengthAdjust="spacing" textLength="157" x="84.5" y="125.0654">Information Designer Log In</text><text fill="#000000" font-family="sans-serif" font-size="13" lengthAdjust="spacing" textLength="49" x="84.5" y="141.417">[HTTPS]</text><path d="M242,161.2734 L464,161.2734 L464,169.625 L454,179.625 L242,179.625 L242,161.2734 " fill="#EEEEEE" style="stroke:#000000;stroke-width:1.5;"/><rect fill="none" height="111.7578" style="stroke:#000000;stroke-width:1.5;" width="227" x="242" y="161.2734"/><text fill="#000000" font-family="sans-serif" font-size="13" font-weight="bold" lengthAdjust="spacing" textLength="177" x="257" y="175.7686">Information Designer Log In</text><polygon fill="#181818" points="385.5,214.3281,395.5,218.3281,385.5,222.3281,389.5,218.3281" style="stroke:#181818;stroke-width:1.0;"/><line style="stroke:#181818;stroke-width:1.0;" x1="269.5" x2="391.5" y1="218.3281" y2="218.3281"/><text fill="#000000" font-family="sans-serif" font-size="13" lengthAdjust="spacing" textLength="99" x="276.5" y="197.1201">Select User Data</text><text fill="#000000" font-family="sans-serif" font-size="13" lengthAdjust="spacing" textLength="83" x="276.5" y="213.4717">[TCP/IP, SQL]</text><polygon fill="#181818" points="385.5,261.0313,395.5,265.0313,385.5,269.0313,389.5,265.0313" style="stroke:#181818;stroke-width:1.0;"/><line style="stroke:#181818;stroke-width:1.0;" x1="269.5" x2="391.5" y1="265.0313" y2="265.0313"/><text fill="#000000" font-family="sans-serif" font-size="13" lengthAdjust="spacing" textLength="104" x="276.5" y="243.8232">Authenticate User</text><text fill="#000000" font-family="sans-serif" font-size="13" lengthAdjust="spacing" textLength="83" x="276.5" y="260.1748">[TCP/IP, SQL]</text><polygon fill="#181818" points="257.5,314.7344,267.5,318.7344,257.5,322.7344,261.5,318.7344" style="stroke:#181818;stroke-width:1.0;"/><line style="stroke:#181818;stroke-width:1.0;" x1="77.5" x2="263.5" y1="318.7344" y2="318.7344"/><text fill="#000000" font-family="sans-serif" font-size="13" lengthAdjust="spacing" textLength="59" x="84.5" y="297.5264">Navigation</text><text fill="#000000" font-family="sans-serif" font-size="13" lengthAdjust="spacing" textLength="42" x="84.5" y="313.8779">[HTML]</text><path d="M242,333.7344 L355,333.7344 L355,342.0859 L345,352.0859 L242,352.0859 L242,333.7344 " fill="#EEEEEE" style="stroke:#000000;stroke-width:1.5;"/><rect fill="none" height="395.625" style="stroke:#000000;stroke-width:1.5;" width="463.5" x="242" y="333.7344"/><text fill="#000000" font-family="sans-serif" font-size="13" font-weight="bold" lengthAdjust="spacing" textLength="68" x="257" y="348.2295">Navigation</text><polygon fill="#181818" points="460,386.7891,470,390.7891,460,394.7891,464,390.7891" style="stroke:#181818;stroke-width:1.0;"/><line style="stroke:#181818;stroke-width:1.0;" x1="269.5" x2="466" y1="390.7891" y2="390.7891"/><text fill="#000000" font-family="sans-serif" font-size="13" lengthAdjust="spacing" textLength="92" x="276.5" y="369.5811">Move To Movies</text><text fill="#000000" font-family="sans-serif" font-size="13" lengthAdjust="spacing" textLength="62" x="276.5" y="385.9326">[Hyperlink]</text><path d="M435,405.7891 L582,405.7891 L582,414.1406 L572,424.1406 L435,424.1406 L435,405.7891 " fill="#EEEEEE" style="stroke:#000000;stroke-width:1.5;"/><rect fill="none" height="65.0547" style="stroke:#000000;stroke-width:1.5;" width="175" x="435" y="405.7891"/><text fill="#000000" font-family="sans-serif" font-size="13" font-weight="bold" lengthAdjust="spacing" textLength="102" x="450" y="420.2842">Move To Movies</text><polygon fill="#181818" points="559,458.8438,569,462.8438,559,466.8438,563,462.8438" style="stroke:#181818;stroke-width:1.0;"/><line style="stroke:#181818;stroke-width:1.0;" x1="472" x2="565" y1="462.8438" y2="462.8438"/><text fill="#000000" font-family="sans-serif" font-size="13" lengthAdjust="spacing" textLength="75" x="479" y="441.6357">Enter Movies</text><text fill="#000000" font-family="sans-serif" font-size="13" lengthAdjust="spacing" textLength="49" x="479" y="457.9873">[HTTPS]</text><polygon fill="#181818" points="559,512.5469,569,516.5469,559,520.5469,563,516.5469" style="stroke:#181818;stroke-width:1.0;"/><line style="stroke:#181818;stroke-width:1.0;" x1="269.5" x2="565" y1="516.5469" y2="516.5469"/><text fill="#000000" font-family="sans-serif" font-size="13" lengthAdjust="spacing" textLength="84" x="276.5" y="495.3389">Move To News</text><text fill="#000000" font-family="sans-serif" font-size="13" lengthAdjust="spacing" textLength="62" x="276.5" y="511.6904">[Hyperlink]</text><path d="M532,531.5469 L669,531.5469 L669,539.8984 L659,549.8984 L532,549.8984 L532,531.5469 " fill="#EEEEEE" style="stroke:#000000;stroke-width:1.5;"/><rect fill="none" height="65.0547" style="stroke:#000000;stroke-width:1.5;" width="163.5" x="532" y="531.5469"/><text fill="#000000" font-family="sans-serif" font-size="13" font-weight="bold" lengthAdjust="spacing" textLength="92" x="547" y="546.042">Move To News</text><polygon fill="#181818" points="650,584.6016,660,588.6016,650,592.6016,654,588.6016" style="stroke:#181818;stroke-width:1.0;"/><line style="stroke:#181818;stroke-width:1.0;" x1="571" x2="656" y1="588.6016" y2="588.6016"/><text fill="#000000" font-family="sans-serif" font-size="13" lengthAdjust="spacing" textLength="67" x="578" y="567.3936">Enter News</text><text fill="#000000" font-family="sans-serif" font-size="13" lengthAdjust="spacing" textLength="49" x="578" y="583.7451">[HTTPS]</text><polygon fill="#181818" points="559,638.3047,569,642.3047,559,646.3047,563,642.3047" style="stroke:#181818;stroke-width:1.0;"/><line style="stroke:#181818;stroke-width:1.0;" x1="269.5" x2="565" y1="642.3047" y2="642.3047"/><text fill="#000000" font-family="sans-serif" font-size="13" lengthAdjust="spacing" textLength="88" x="276.5" y="621.0967">Move To Dining</text><text fill="#000000" font-family="sans-serif" font-size="13" lengthAdjust="spacing" textLength="62" x="276.5" y="637.4482">[Hyperlink]</text><path d="M435,657.3047 L579,657.3047 L579,665.6563 L569,675.6563 L435,675.6563 L435,657.3047 " fill="#EEEEEE" style="stroke:#000000;stroke-width:1.5;"/><rect fill="none" height="65.0547" style="stroke:#000000;stroke-width:1.5;" width="175" x="435" y="657.3047"/><text fill="#000000" font-family="sans-serif" font-size="13" font-weight="bold" lengthAdjust="spacing" textLength="99" x="450" y="671.7998">Move To Dining</text><polygon fill="#181818" points="483,710.3594,473,714.3594,483,718.3594,479,714.3594" style="stroke:#181818;stroke-width:1.0;"/><line style="stroke:#181818;stroke-width:1.0;" x1="477" x2="570" y1="714.3594" y2="714.3594"/><text fill="#000000" font-family="sans-serif" font-size="13" lengthAdjust="spacing" textLength="71" x="489" y="693.1514">Enter Dining</text><text fill="#000000" font-family="sans-serif" font-size="13" lengthAdjust="spacing" textLength="49" x="489" y="709.5029">[HTTPS]</text><polygon fill="#181818" points="257.5,771.0625,267.5,775.0625,257.5,779.0625,261.5,775.0625" style="stroke:#181818;stroke-width:1.0;"/><line style="stroke:#181818;stroke-width:1.0;" x1="77.5" x2="263.5" y1="775.0625" y2="775.0625"/><text fill="#000000" font-family="sans-serif" font-size="13" lengthAdjust="spacing" textLength="168" x="84.5" y="753.8545">Information Designer Log Out</text><text fill="#000000" font-family="sans-serif" font-size="13" lengthAdjust="spacing" textLength="49" x="84.5" y="770.2061">[HTTPS]</text><!--SRC=[rLN1JiCm3BtdAwnnXNBdW3HrI4nQOQX57813w4o9Q9FIf1lxUvo6h1H6fHuwGKzfOliz-zc94IP729KqA0r4NF8C2xkCjzfW0ISmby-gAhWHIi8CjSWaLZ1DZLWB8r2JHOnlDSeKQHcgebJI-kUunfonabT6fABaj3NP5se2N7ly5jwX1mIZAXryyVDktS1Xr1icLizcmojqlpe8ewxxZ1l-n3KE2kAT67jIxp2PhWeX9t1qzo8CCg3FxVlInfXQ_hfZqcKXf93P80uDQ62jkQ2YwE3JqOC5Eps8RnF-9soarYJZQB0k_4_OAzoC1sg3CvGh80bOks33-mnEpWUq5Ppj7vU5okZWGTvV9iaoVcHPfUgopvGDm1p0qFSiyOmnfyB1hIPCkqtaad1vEbyUGtopU1oVmBGsBsGeKcwmeV6T0Sbs2C6k-5faJOX6dsZXvMaFHYh6yEabkZHF28a2DrUMyhR4AXVorVFkMh0HsOoKgoDEkLwGIVKbKpSyVNrnE45s97svxPtJ9qTp9ut8PAGyBUsT53x7Fos4Qyu-AJwVmlydnkuMS7AqcRQ27EZM_FNjkgvDIuXz0000]--></g></svg>