<?xml version="1.0" encoding="us-ascii" standalone="no"?><svg xmlns="http://www.w3.org/2000/svg" xmlns:xlink="http://www.w3.org/1999/xlink" contentStyleType="text/css" height="522px" preserveAspectRatio="none" style="width:654px;height:522px;background:#FFFFFF;" version="1.1" viewBox="0 0 654 522" width="654px" zoomAndPan="magnify"><defs/><g><text fill="#000000" font-family="sans-serif" font-size="14" font-weight="bold" lengthAdjust="spacing" textLength="626" x="10" y="29.5332">Content Management System - Information Designer Activities - Sequence - Context level</text><rect fill="none" height="111.7578" style="stroke:#000000;stroke-width:1.5;" width="227" x="306.5" y="139.9219"/><rect fill="none" height="109.4063" style="stroke:#000000;stroke-width:1.5;" width="266" x="306.5" y="312.3828"/><line style="stroke:#181818;stroke-width:0.5;stroke-dasharray:5.0,5.0;" x1="141.5" x2="141.5" y1="76.2188" y2="485.4922"/><line style="stroke:#181818;stroke-width:0.5;stroke-dasharray:5.0,5.0;" x1="333.5" x2="333.5" y1="76.2188" y2="485.4922"/><line style="stroke:#181818;stroke-width:0.5;stroke-dasharray:5.0,5.0;" x1="461.5" x2="461.5" y1="76.2188" y2="485.4922"/><line style="stroke:#181818;stroke-width:0.5;stroke-dasharray:5.0,5.0;" x1="535.5" x2="535.5" y1="76.2188" y2="485.4922"/><rect fill="#E2E2F0" height="31.6094" rx="2.5" ry="2.5" style="stroke:#181818;stroke-width:0.5;" width="145" x="69.5" y="43.6094"/><text fill="#000000" font-family="sans-serif" font-size="14" lengthAdjust="spacing" textLength="131" x="76.5" y="65.1426">Information Designer</text><rect fill="#E2E2F0" height="31.6094" rx="2.5" ry="2.5" style="stroke:#181818;stroke-width:0.5;" width="145" x="69.5" y="484.4922"/><text fill="#000000" font-family="sans-serif" font-size="14" lengthAdjust="spacing" textLength="131" x="76.5" y="506.0254">Information Designer</text><rect fill="#E2E2F0" height="31.6094" rx="2.5" ry="2.5" style="stroke:#181818;stroke-width:0.5;" width="35" x="316.5" y="43.6094"/><text fill="#000000" font-family="sans-serif" font-size="14" lengthAdjust="spacing" textLength="21" x="323.5" y="65.1426">CM</text><rect fill="#E2E2F0" height="31.6094" rx="2.5" ry="2.5" style="stroke:#181818;stroke-width:0.5;" width="35" x="316.5" y="484.4922"/><text fill="#000000" font-family="sans-serif" font-size="14" lengthAdjust="spacing" textLength="21" x="323.5" y="506.0254">CM</text><rect fill="#E2E2F0" height="31.6094" rx="2.5" ry="2.5" style="stroke:#181818;stroke-width:0.5;" width="75" x="424.5" y="43.6094"/><text fill="#000000" font-family="sans-serif" font-size="14" lengthAdjust="spacing" textLength="61" x="431.5" y="65.1426">Database</text><rect fill="#E2E2F0" height="31.6094" rx="2.5" ry="2.5" style="stroke:#181818;stroke-width:0.5;" width="75" x="424.5" y="484.4922"/><text fill="#000000" font-family="sans-serif" font-size="14" lengthAdjust="spacing" textLength="61" x="431.5" y="506.0254">Database</text><rect fill="#E2E2F0" height="31.6094" rx="2.5" ry="2.5" style="stroke:#181818;stroke-width:0.5;" width="53" x="509.5" y="43.6094"/><text fill="#000000" font-family="sans-serif" font-size="14" lengthAdjust="spacing" textLength="39" x="516.5" y="65.1426">Admin</text><rect fill="#E2E2F0" height="31.6094" rx="2.5" ry="2.5" style="stroke:#181818;stroke-width:0.5;" width="53" x="509.5" y="484.4922"/><text fill="#000000" font-family="sans-serif" font-size="14" lengthAdjust="spacing" textLength="39" x="516.5" y="506.0254">Admin</text><polygon fill="#181818" points="322,120.9219,332,124.9219,322,128.9219,326,124.9219" style="stroke:#181818;stroke-width:1.0;"/><line style="stroke:#181818;stroke-width:1.0;" x1="142" x2="328" y1="124.9219" y2="124.9219"/><text fill="#000000" font-family="sans-serif" font-size="13" lengthAdjust="spacing" textLength="157" x="149" y="103.7139">Information Designer Log In</text><text fill="#000000" font-family="sans-serif" font-size="13" lengthAdjust="spacing" textLength="49" x="149" y="120.0654">[HTTPS]</text><path d="M306.5,139.9219 L528.5,139.9219 L528.5,148.2734 L518.5,158.2734 L306.5,158.2734 L306.5,139.9219 " fill="#EEEEEE" style="stroke:#000000;stroke-width:1.5;"/><rect fill="none" height="111.7578" style="stroke:#000000;stroke-width:1.5;" width="227" x="306.5" y="139.9219"/><text fill="#000000" font-family="sans-serif" font-size="13" font-weight="bold" lengthAdjust="spacing" textLength="177" x="321.5" y="154.417">Information Designer Log In</text><polygon fill="#181818" points="450,192.9766,460,196.9766,450,200.9766,454,196.9766" style="stroke:#181818;stroke-width:1.0;"/><line style="stroke:#181818;stroke-width:1.0;" x1="334" x2="456" y1="196.9766" y2="196.9766"/><text fill="#000000" font-family="sans-serif" font-size="13" lengthAdjust="spacing" textLength="99" x="341" y="175.7686">Select User Data</text><text fill="#000000" font-family="sans-serif" font-size="13" lengthAdjust="spacing" textLength="83" x="341" y="192.1201">[TCP/IP, SQL]</text><polygon fill="#181818" points="450,239.6797,460,243.6797,450,247.6797,454,243.6797" style="stroke:#181818;stroke-width:1.0;"/><line style="stroke:#181818;stroke-width:1.0;" x1="334" x2="456" y1="243.6797" y2="243.6797"/><text fill="#000000" font-family="sans-serif" font-size="13" lengthAdjust="spacing" textLength="104" x="341" y="222.4717">Authenticate User</text><text fill="#000000" font-family="sans-serif" font-size="13" lengthAdjust="spacing" textLength="83" x="341" y="238.8232">[TCP/IP, SQL]</text><polygon fill="#181818" points="322,293.3828,332,297.3828,322,301.3828,326,297.3828" style="stroke:#181818;stroke-width:1.0;"/><line style="stroke:#181818;stroke-width:1.0;" x1="142" x2="328" y1="297.3828" y2="297.3828"/><text fill="#000000" font-family="sans-serif" font-size="13" lengthAdjust="spacing" textLength="59" x="149" y="276.1748">Navigation</text><text fill="#000000" font-family="sans-serif" font-size="13" lengthAdjust="spacing" textLength="42" x="149" y="292.5264">[HTML]</text><path d="M306.5,312.3828 L419.5,312.3828 L419.5,320.7344 L409.5,330.7344 L306.5,330.7344 L306.5,312.3828 " fill="#EEEEEE" style="stroke:#000000;stroke-width:1.5;"/><rect fill="none" height="109.4063" style="stroke:#000000;stroke-width:1.5;" width="266" x="306.5" y="312.3828"/><text fill="#000000" font-family="sans-serif" font-size="13" font-weight="bold" lengthAdjust="spacing" textLength="68" x="321.5" y="326.8779">Navigation</text><polygon fill="#181818" points="524,349.0859,534,353.0859,524,357.0859,528,353.0859" style="stroke:#181818;stroke-width:1.0;"/><line style="stroke:#181818;stroke-width:1.0;" x1="334" x2="530" y1="353.0859" y2="353.0859"/><text fill="#000000" font-family="sans-serif" font-size="13" lengthAdjust="spacing" textLength="92" x="341" y="348.2295">Move To Movies</text><polygon fill="#181818" points="524,379.4375,534,383.4375,524,387.4375,528,383.4375" style="stroke:#181818;stroke-width:1.0;"/><line style="stroke:#181818;stroke-width:1.0;" x1="334" x2="530" y1="383.4375" y2="383.4375"/><text fill="#000000" font-family="sans-serif" font-size="13" lengthAdjust="spacing" textLength="84" x="341" y="378.5811">Move To News</text><polygon fill="#181818" points="524,409.7891,534,413.7891,524,417.7891,528,413.7891" style="stroke:#181818;stroke-width:1.0;"/><line style="stroke:#181818;stroke-width:1.0;" x1="334" x2="530" y1="413.7891" y2="413.7891"/><text fill="#000000" font-family="sans-serif" font-size="13" lengthAdjust="spacing" textLength="88" x="341" y="408.9326">Move To Dining</text><polygon fill="#181818" points="322,463.4922,332,467.4922,322,471.4922,326,467.4922" style="stroke:#181818;stroke-width:1.0;"/><line style="stroke:#181818;stroke-width:1.0;" x1="142" x2="328" y1="467.4922" y2="467.4922"/><text fill="#000000" font-family="sans-serif" font-size="13" lengthAdjust="spacing" textLength="168" x="149" y="446.2842">Information Designer Log Out</text><text fill="#000000" font-family="sans-serif" font-size="13" lengthAdjust="spacing" textLength="49" x="149" y="462.6357">[HTTPS]</text><!--SRC=[lLCzRuCm4DtzAqwP6xftg8HWQ2H8gQ1Jcy4b5-Sai2a-IFllQuWGfKeZCOG9Oz_xy3qV4nS8WT6CcY6MMYeiksNwRHbBMCD67qnTIYQZ8KHBIcCDVixK4XDQLv7YPuCwHxViYRuO2con4AAIDLDEbNI4gqj4Av1sK1_5pzgU4p6rzNxX1jYKE8YlqgJcm2TPu_dNUa4yXOUIvOUqE8ja04sf_7r9UXPFZn1YVWjW_JZZnl1mESV8A7Vmhj-UiYn9TqBLfgckbOePcZCS3krqFbCiC6TujKwpstRciY2vtoHtaBv4kziRy1i-kaBA9MDluwy3rFib0jlAbbHFqUSJHqCyuy6Dcj4_IkSWDYr2Phglc_I5nBPuMaeg94rQBPNdlrFrtF0uWU87]--></g></svg>