<?xml version="1.0" encoding="us-ascii" standalone="no"?><svg xmlns="http://www.w3.org/2000/svg" xmlns:xlink="http://www.w3.org/1999/xlink" contentStyleType="text/css" height="548px" preserveAspectRatio="none" style="width:668px;height:548px;background:#FFFFFF;" version="1.1" viewBox="0 0 668 548" width="668px" zoomAndPan="magnify"><defs/><g><text fill="#000000" font-family="sans-serif" font-size="14" font-weight="bold" lengthAdjust="spacing" textLength="640" x="10" y="29.5332">Content Management System - Information Designer Activities - Sequence - Container level</text><rect fill="#FFFFFF" height="497.8438" style="stroke:#181818;stroke-width:0.5;" width="130" x="478" y="44.6094"/><text fill="#000000" font-family="sans-serif" font-size="13" font-weight="bold" lengthAdjust="spacing" textLength="41" x="522.5" y="58.1045">Admin</text><rect fill="none" height="111.7578" style="stroke:#000000;stroke-width:1.5;" width="227" x="279" y="161.2734"/><rect fill="none" height="109.4063" style="stroke:#000000;stroke-width:1.5;" width="335" x="279" y="333.7344"/><line style="stroke:#181818;stroke-width:0.5;stroke-dasharray:5.0,5.0;" x1="114" x2="114" y1="97.5703" y2="506.8438"/><line style="stroke:#181818;stroke-width:0.5;stroke-dasharray:5.0,5.0;" x1="306" x2="306" y1="97.5703" y2="506.8438"/><line style="stroke:#181818;stroke-width:0.5;stroke-dasharray:5.0,5.0;" x1="434" x2="434" y1="97.5703" y2="506.8438"/><line style="stroke:#181818;stroke-width:0.5;stroke-dasharray:5.0,5.0;" x1="543" x2="543" y1="97.5703" y2="506.8438"/><rect fill="#E2E2F0" height="31.6094" rx="2.5" ry="2.5" style="stroke:#181818;stroke-width:0.5;" width="145" x="42" y="64.9609"/><text fill="#000000" font-family="sans-serif" font-size="14" lengthAdjust="spacing" textLength="131" x="49" y="86.4941">Information Designer</text><rect fill="#E2E2F0" height="31.6094" rx="2.5" ry="2.5" style="stroke:#181818;stroke-width:0.5;" width="145" x="42" y="505.8438"/><text fill="#000000" font-family="sans-serif" font-size="14" lengthAdjust="spacing" textLength="131" x="49" y="527.377">Information Designer</text><rect fill="#E2E2F0" height="31.6094" rx="2.5" ry="2.5" style="stroke:#181818;stroke-width:0.5;" width="35" x="289" y="64.9609"/><text fill="#000000" font-family="sans-serif" font-size="14" lengthAdjust="spacing" textLength="21" x="296" y="86.4941">CM</text><rect fill="#E2E2F0" height="31.6094" rx="2.5" ry="2.5" style="stroke:#181818;stroke-width:0.5;" width="35" x="289" y="505.8438"/><text fill="#000000" font-family="sans-serif" font-size="14" lengthAdjust="spacing" textLength="21" x="296" y="527.377">CM</text><rect fill="#E2E2F0" height="31.6094" rx="2.5" ry="2.5" style="stroke:#181818;stroke-width:0.5;" width="75" x="397" y="64.9609"/><text fill="#000000" font-family="sans-serif" font-size="14" lengthAdjust="spacing" textLength="61" x="404" y="86.4941">Database</text><rect fill="#E2E2F0" height="31.6094" rx="2.5" ry="2.5" style="stroke:#181818;stroke-width:0.5;" width="75" x="397" y="505.8438"/><text fill="#000000" font-family="sans-serif" font-size="14" lengthAdjust="spacing" textLength="61" x="404" y="527.377">Database</text><rect fill="#E2E2F0" height="31.6094" rx="2.5" ry="2.5" style="stroke:#181818;stroke-width:0.5;" width="122" x="482" y="64.9609"/><text fill="#000000" font-family="sans-serif" font-size="14" lengthAdjust="spacing" textLength="108" x="489" y="86.4941">Content Sections</text><rect fill="#E2E2F0" height="31.6094" rx="2.5" ry="2.5" style="stroke:#181818;stroke-width:0.5;" width="122" x="482" y="505.8438"/><text fill="#000000" font-family="sans-serif" font-size="14" lengthAdjust="spacing" textLength="108" x="489" y="527.377">Content Sections</text><polygon fill="#181818" points="294.5,142.2734,304.5,146.2734,294.5,150.2734,298.5,146.2734" style="stroke:#181818;stroke-width:1.0;"/><line style="stroke:#181818;stroke-width:1.0;" x1="114.5" x2="300.5" y1="146.2734" y2="146.2734"/><text fill="#000000" font-family="sans-serif" font-size="13" lengthAdjust="spacing" textLength="157" x="121.5" y="125.0654">Information Designer Log In</text><text fill="#000000" font-family="sans-serif" font-size="13" lengthAdjust="spacing" textLength="49" x="121.5" y="141.417">[HTTPS]</text><path d="M279,161.2734 L501,161.2734 L501,169.625 L491,179.625 L279,179.625 L279,161.2734 " fill="#EEEEEE" style="stroke:#000000;stroke-width:1.5;"/><rect fill="none" height="111.7578" style="stroke:#000000;stroke-width:1.5;" width="227" x="279" y="161.2734"/><text fill="#000000" font-family="sans-serif" font-size="13" font-weight="bold" lengthAdjust="spacing" textLength="177" x="294" y="175.7686">Information Designer Log In</text><polygon fill="#181818" points="422.5,214.3281,432.5,218.3281,422.5,222.3281,426.5,218.3281" style="stroke:#181818;stroke-width:1.0;"/><line style="stroke:#181818;stroke-width:1.0;" x1="306.5" x2="428.5" y1="218.3281" y2="218.3281"/><text fill="#000000" font-family="sans-serif" font-size="13" lengthAdjust="spacing" textLength="99" x="313.5" y="197.1201">Select User Data</text><text fill="#000000" font-family="sans-serif" font-size="13" lengthAdjust="spacing" textLength="83" x="313.5" y="213.4717">[TCP/IP, SQL]</text><polygon fill="#181818" points="422.5,261.0313,432.5,265.0313,422.5,269.0313,426.5,265.0313" style="stroke:#181818;stroke-width:1.0;"/><line style="stroke:#181818;stroke-width:1.0;" x1="306.5" x2="428.5" y1="265.0313" y2="265.0313"/><text fill="#000000" font-family="sans-serif" font-size="13" lengthAdjust="spacing" textLength="104" x="313.5" y="243.8232">Authenticate User</text><text fill="#000000" font-family="sans-serif" font-size="13" lengthAdjust="spacing" textLength="83" x="313.5" y="260.1748">[TCP/IP, SQL]</text><polygon fill="#181818" points="294.5,314.7344,304.5,318.7344,294.5,322.7344,298.5,318.7344" style="stroke:#181818;stroke-width:1.0;"/><line style="stroke:#181818;stroke-width:1.0;" x1="114.5" x2="300.5" y1="318.7344" y2="318.7344"/><text fill="#000000" font-family="sans-serif" font-size="13" lengthAdjust="spacing" textLength="59" x="121.5" y="297.5264">Navigation</text><text fill="#000000" font-family="sans-serif" font-size="13" lengthAdjust="spacing" textLength="42" x="121.5" y="313.8779">[HTML]</text><path d="M279,333.7344 L392,333.7344 L392,342.0859 L382,352.0859 L279,352.0859 L279,333.7344 " fill="#EEEEEE" style="stroke:#000000;stroke-width:1.5;"/><rect fill="none" height="109.4063" style="stroke:#000000;stroke-width:1.5;" width="335" x="279" y="333.7344"/><text fill="#000000" font-family="sans-serif" font-size="13" font-weight="bold" lengthAdjust="spacing" textLength="68" x="294" y="348.2295">Navigation</text><polygon fill="#181818" points="531,370.4375,541,374.4375,531,378.4375,535,374.4375" style="stroke:#181818;stroke-width:1.0;"/><line style="stroke:#181818;stroke-width:1.0;" x1="306.5" x2="537" y1="374.4375" y2="374.4375"/><text fill="#000000" font-family="sans-serif" font-size="13" lengthAdjust="spacing" textLength="92" x="313.5" y="369.5811">Move To Movies</text><polygon fill="#181818" points="531,400.7891,541,404.7891,531,408.7891,535,404.7891" style="stroke:#181818;stroke-width:1.0;"/><line style="stroke:#181818;stroke-width:1.0;" x1="306.5" x2="537" y1="404.7891" y2="404.7891"/><text fill="#000000" font-family="sans-serif" font-size="13" lengthAdjust="spacing" textLength="84" x="313.5" y="399.9326">Move To News</text><polygon fill="#181818" points="531,431.1406,541,435.1406,531,439.1406,535,435.1406" style="stroke:#181818;stroke-width:1.0;"/><line style="stroke:#181818;stroke-width:1.0;" x1="306.5" x2="537" y1="435.1406" y2="435.1406"/><text fill="#000000" font-family="sans-serif" font-size="13" lengthAdjust="spacing" textLength="88" x="313.5" y="430.2842">Move To Dining</text><polygon fill="#181818" points="294.5,484.8438,304.5,488.8438,294.5,492.8438,298.5,488.8438" style="stroke:#181818;stroke-width:1.0;"/><line style="stroke:#181818;stroke-width:1.0;" x1="114.5" x2="300.5" y1="488.8438" y2="488.8438"/><text fill="#000000" font-family="sans-serif" font-size="13" lengthAdjust="spacing" textLength="168" x="121.5" y="467.6357">Information Designer Log Out</text><text fill="#000000" font-family="sans-serif" font-size="13" lengthAdjust="spacing" textLength="49" x="121.5" y="483.9873">[HTTPS]</text><!--SRC=[pLHDRu904BtlhvZGQwNt7feOFDH4h0qqFRGULXnn4jYrx83jl- -0KckZDXoqvSB2pllWpInCd244rZ0QXb0RdM9UBwCFnvX33uPcOOjSCra30tIK6YoWdp1Ln8HEAY9yAz4aACkQI5DTaM65cL8hNJ0bjD92wHsYya2xLdydlr7tHSOMpl-6Qs7xn45uaYQo2rxh0ZUFpW_2VVX0ivvfXvr8Mf1IC_iENd-Ua_7Wwdb9Z0hasdUuJJZ2fFuCrqcguVQ_idN-5jYIAJHp41TAgUv9Gk-kGt1mUtWWHZQLZLVpSX_7asYgqiAMgrEbgeDc1uTjLyHdX9da0qzEDElNOYuE9ZV3oJL4ZwFf-GtqIrvA8IMQiR7nqu6qxH8D6-kAqeQYwKyuQjkpspXJ6ByDhfWBROKGs_ekVvE_zp76zJzmCI139htKW1mzfWybxuwq-WG0]--></g></svg>