<?xml version="1.0" encoding="us-ascii" standalone="no"?><svg xmlns="http://www.w3.org/2000/svg" xmlns:xlink="http://www.w3.org/1999/xlink" contentStyleType="text/css" height="363px" preserveAspectRatio="none" style="width:630px;height:363px;background:#FFFFFF;" version="1.1" viewBox="0 0 630 363" width="630px" zoomAndPan="magnify"><defs/><g><text fill="#000000" font-family="sans-serif" font-size="14" font-weight="bold" lengthAdjust="spacing" textLength="602" x="10" y="29.5332">Content Management System - CM - Add Movie Review - Sequence - Component level</text><rect fill="#FFFFFF" height="313.3828" style="stroke:#181818;stroke-width:0.5;" width="113" x="318" y="44.6094"/><text fill="#000000" font-family="sans-serif" font-size="13" font-weight="bold" lengthAdjust="spacing" textLength="107" x="321" y="58.1045">Content Sections</text><rect fill="none" height="144.1094" style="stroke:#000000;stroke-width:1.5;" width="360" x="195.5" y="161.2734"/><rect fill="none" height="65.0547" style="stroke:#000000;stroke-width:1.5;" width="210" x="335.5" y="233.3281"/><line style="stroke:#181818;stroke-width:0.5;stroke-dasharray:5.0,5.0;" x1="94.5" x2="94.5" y1="97.5703" y2="322.3828"/><line style="stroke:#181818;stroke-width:0.5;stroke-dasharray:5.0,5.0;" x1="222.5" x2="222.5" y1="97.5703" y2="322.3828"/><line style="stroke:#181818;stroke-width:0.5;stroke-dasharray:5.0,5.0;" x1="374.5" x2="374.5" y1="97.5703" y2="322.3828"/><line style="stroke:#181818;stroke-width:0.5;stroke-dasharray:5.0,5.0;" x1="497.5" x2="497.5" y1="97.5703" y2="322.3828"/><rect fill="#E2E2F0" height="31.6094" rx="2.5" ry="2.5" style="stroke:#181818;stroke-width:0.5;" width="65" x="62.5" y="64.9609"/><text fill="#000000" font-family="sans-serif" font-size="14" lengthAdjust="spacing" textLength="51" x="69.5" y="86.4941">External</text><rect fill="#E2E2F0" height="31.6094" rx="2.5" ry="2.5" style="stroke:#181818;stroke-width:0.5;" width="65" x="62.5" y="321.3828"/><text fill="#000000" font-family="sans-serif" font-size="14" lengthAdjust="spacing" textLength="51" x="69.5" y="342.916">External</text><rect fill="#E2E2F0" height="31.6094" rx="2.5" ry="2.5" style="stroke:#181818;stroke-width:0.5;" width="35" x="205.5" y="64.9609"/><text fill="#000000" font-family="sans-serif" font-size="14" lengthAdjust="spacing" textLength="21" x="212.5" y="86.4941">CM</text><rect fill="#E2E2F0" height="31.6094" rx="2.5" ry="2.5" style="stroke:#181818;stroke-width:0.5;" width="35" x="205.5" y="321.3828"/><text fill="#000000" font-family="sans-serif" font-size="14" lengthAdjust="spacing" textLength="21" x="212.5" y="342.916">CM</text><rect fill="#E2E2F0" height="31.6094" rx="2.5" ry="2.5" style="stroke:#181818;stroke-width:0.5;" width="58" x="345.5" y="64.9609"/><text fill="#000000" font-family="sans-serif" font-size="14" lengthAdjust="spacing" textLength="44" x="352.5" y="86.4941">Movies</text><rect fill="#E2E2F0" height="31.6094" rx="2.5" ry="2.5" style="stroke:#181818;stroke-width:0.5;" width="58" x="345.5" y="321.3828"/><text fill="#000000" font-family="sans-serif" font-size="14" lengthAdjust="spacing" textLength="44" x="352.5" y="342.916">Movies</text><rect fill="#E2E2F0" height="31.6094" rx="2.5" ry="2.5" style="stroke:#181818;stroke-width:0.5;" width="75" x="460.5" y="64.9609"/><text fill="#000000" font-family="sans-serif" font-size="14" lengthAdjust="spacing" textLength="61" x="467.5" y="86.4941">Database</text><rect fill="#E2E2F0" height="31.6094" rx="2.5" ry="2.5" style="stroke:#181818;stroke-width:0.5;" width="75" x="460.5" y="321.3828"/><text fill="#000000" font-family="sans-serif" font-size="14" lengthAdjust="spacing" textLength="61" x="467.5" y="342.916">Database</text><polygon fill="#181818" points="211,142.2734,221,146.2734,211,150.2734,215,146.2734" style="stroke:#181818;stroke-width:1.0;"/><line style="stroke:#181818;stroke-width:1.0;" x1="95" x2="217" y1="146.2734" y2="146.2734"/><text fill="#000000" font-family="sans-serif" font-size="13" lengthAdjust="spacing" textLength="104" x="102" y="125.0654">Add Movie Review</text><text fill="#000000" font-family="sans-serif" font-size="13" lengthAdjust="spacing" textLength="42" x="102" y="141.417">[HTML]</text><path d="M195.5,161.2734 L358.5,161.2734 L358.5,169.625 L348.5,179.625 L195.5,179.625 L195.5,161.2734 " fill="#EEEEEE" style="stroke:#000000;stroke-width:1.5;"/><rect fill="none" height="144.1094" style="stroke:#000000;stroke-width:1.5;" width="360" x="195.5" y="161.2734"/><text fill="#000000" font-family="sans-serif" font-size="13" font-weight="bold" lengthAdjust="spacing" textLength="118" x="210.5" y="175.7686">Add Movie Review</text><polygon fill="#181818" points="362.5,214.3281,372.5,218.3281,362.5,222.3281,366.5,218.3281" style="stroke:#181818;stroke-width:1.0;"/><line style="stroke:#181818;stroke-width:1.0;" x1="223" x2="368.5" y1="218.3281" y2="218.3281"/><text fill="#000000" font-family="sans-serif" font-size="13" lengthAdjust="spacing" textLength="104" x="230" y="197.1201">Add Movie Review</text><text fill="#000000" font-family="sans-serif" font-size="13" lengthAdjust="spacing" textLength="42" x="230" y="213.4717">[HTML]</text><path d="M335.5,233.3281 L498.5,233.3281 L498.5,241.6797 L488.5,251.6797 L335.5,251.6797 L335.5,233.3281 " fill="#EEEEEE" style="stroke:#000000;stroke-width:1.5;"/><rect fill="none" height="65.0547" style="stroke:#000000;stroke-width:1.5;" width="210" x="335.5" y="233.3281"/><text fill="#000000" font-family="sans-serif" font-size="13" font-weight="bold" lengthAdjust="spacing" textLength="118" x="350.5" y="247.8232">Add Movie Review</text><polygon fill="#181818" points="486,286.3828,496,290.3828,486,294.3828,490,290.3828" style="stroke:#181818;stroke-width:1.0;"/><line style="stroke:#181818;stroke-width:1.0;" x1="374.5" x2="492" y1="290.3828" y2="290.3828"/><text fill="#000000" font-family="sans-serif" font-size="13" lengthAdjust="spacing" textLength="76" x="381.5" y="269.1748">Data Storage</text><text fill="#000000" font-family="sans-serif" font-size="13" lengthAdjust="spacing" textLength="34" x="381.5" y="285.5264">[SQL]</text><!--SRC=[jLAnJiCm4DtlAqvXhYSc1gGgW4320nY90HZSv5ei9NQmhqtvUvoOK4LPC1AHR9qlxzrxTpORRWXBPvaiezHMxwWTGlKPc5fSOIdZjgvhbEvW21yfxdrCAVhOawreWBYsStPWDNIW1g3JdarbEXrJnVMHoLlT5AW3bkTtKShVDAuNocsvrvwIL10JC9tdHKgPwCdeoMV2BagL4c3ZZbYiwzRO0i-UtmqJOFnIVkfOKSN6sJ23p9J7jaEM-YWg1hGsbdmGtyH9JFmCB8XK7iZM68t1APYPkDAiDpfGbes91F3xgUFgCcF8UB5u6Q_svVP9th_1phjzj_WD6SKphEHF_1-j_y5CHglJhSO6XX0LEnyPqRnwYDxZ-naNV040]--></g></svg>