<?xml version="1.0" encoding="us-ascii" standalone="no"?><svg xmlns="http://www.w3.org/2000/svg" xmlns:xlink="http://www.w3.org/1999/xlink" contentStyleType="text/css" height="363px" preserveAspectRatio="none" style="width:761px;height:363px;background:#FFFFFF;" version="1.1" viewBox="0 0 761 363" width="761px" zoomAndPan="magnify"><defs/><g><text fill="#000000" font-family="sans-serif" font-size="14" font-weight="bold" lengthAdjust="spacing" textLength="714" x="25" y="29.5332">Content Management System - CM - Make Restaurant Review Template - Sequence - Component level</text><rect fill="#FFFFFF" height="313.3828" style="stroke:#181818;stroke-width:0.5;" width="113" x="454.5" y="44.6094"/><text fill="#000000" font-family="sans-serif" font-size="13" font-weight="bold" lengthAdjust="spacing" textLength="107" x="457.5" y="58.1045">Content Sections</text><rect fill="none" height="144.1094" style="stroke:#000000;stroke-width:1.5;" width="521" x="234" y="161.2734"/><rect fill="none" height="65.0547" style="stroke:#000000;stroke-width:1.5;" width="271" x="474" y="233.3281"/><line style="stroke:#181818;stroke-width:0.5;stroke-dasharray:5.0,5.0;" x1="37" x2="37" y1="97.5703" y2="322.3828"/><line style="stroke:#181818;stroke-width:0.5;stroke-dasharray:5.0,5.0;" x1="261" x2="261" y1="97.5703" y2="322.3828"/><line style="stroke:#181818;stroke-width:0.5;stroke-dasharray:5.0,5.0;" x1="511" x2="511" y1="97.5703" y2="322.3828"/><line style="stroke:#181818;stroke-width:0.5;stroke-dasharray:5.0,5.0;" x1="636" x2="636" y1="97.5703" y2="322.3828"/><rect fill="#E2E2F0" height="31.6094" rx="2.5" ry="2.5" style="stroke:#181818;stroke-width:0.5;" width="65" x="5" y="64.9609"/><text fill="#000000" font-family="sans-serif" font-size="14" lengthAdjust="spacing" textLength="51" x="12" y="86.4941">External</text><rect fill="#E2E2F0" height="31.6094" rx="2.5" ry="2.5" style="stroke:#181818;stroke-width:0.5;" width="65" x="5" y="321.3828"/><text fill="#000000" font-family="sans-serif" font-size="14" lengthAdjust="spacing" textLength="51" x="12" y="342.916">External</text><rect fill="#E2E2F0" height="31.6094" rx="2.5" ry="2.5" style="stroke:#181818;stroke-width:0.5;" width="35" x="244" y="64.9609"/><text fill="#000000" font-family="sans-serif" font-size="14" lengthAdjust="spacing" textLength="21" x="251" y="86.4941">CM</text><rect fill="#E2E2F0" height="31.6094" rx="2.5" ry="2.5" style="stroke:#181818;stroke-width:0.5;" width="35" x="244" y="321.3828"/><text fill="#000000" font-family="sans-serif" font-size="14" lengthAdjust="spacing" textLength="21" x="251" y="342.916">CM</text><rect fill="#E2E2F0" height="31.6094" rx="2.5" ry="2.5" style="stroke:#181818;stroke-width:0.5;" width="54" x="484" y="64.9609"/><text fill="#000000" font-family="sans-serif" font-size="14" lengthAdjust="spacing" textLength="40" x="491" y="86.4941">Dining</text><rect fill="#E2E2F0" height="31.6094" rx="2.5" ry="2.5" style="stroke:#181818;stroke-width:0.5;" width="54" x="484" y="321.3828"/><text fill="#000000" font-family="sans-serif" font-size="14" lengthAdjust="spacing" textLength="40" x="491" y="342.916">Dining</text><rect fill="#E2E2F0" height="31.6094" rx="2.5" ry="2.5" style="stroke:#181818;stroke-width:0.5;" width="75" x="599" y="64.9609"/><text fill="#000000" font-family="sans-serif" font-size="14" lengthAdjust="spacing" textLength="61" x="606" y="86.4941">Database</text><rect fill="#E2E2F0" height="31.6094" rx="2.5" ry="2.5" style="stroke:#181818;stroke-width:0.5;" width="75" x="599" y="321.3828"/><text fill="#000000" font-family="sans-serif" font-size="14" lengthAdjust="spacing" textLength="61" x="606" y="342.916">Database</text><polygon fill="#181818" points="249.5,142.2734,259.5,146.2734,249.5,150.2734,253.5,146.2734" style="stroke:#181818;stroke-width:1.0;"/><line style="stroke:#181818;stroke-width:1.0;" x1="37.5" x2="255.5" y1="146.2734" y2="146.2734"/><text fill="#000000" font-family="sans-serif" font-size="13" lengthAdjust="spacing" textLength="200" x="44.5" y="125.0654">Make Restaurant Review Template</text><text fill="#000000" font-family="sans-serif" font-size="13" lengthAdjust="spacing" textLength="145" x="44.5" y="141.417">[HTML with Tcl and SQL]</text><path d="M234,161.2734 L500,161.2734 L500,169.625 L490,179.625 L234,179.625 L234,161.2734 " fill="#EEEEEE" style="stroke:#000000;stroke-width:1.5;"/><rect fill="none" height="144.1094" style="stroke:#000000;stroke-width:1.5;" width="521" x="234" y="161.2734"/><text fill="#000000" font-family="sans-serif" font-size="13" font-weight="bold" lengthAdjust="spacing" textLength="221" x="249" y="175.7686">Make Restaurant Review Template</text><polygon fill="#181818" points="499,214.3281,509,218.3281,499,222.3281,503,218.3281" style="stroke:#181818;stroke-width:1.0;"/><line style="stroke:#181818;stroke-width:1.0;" x1="261.5" x2="505" y1="218.3281" y2="218.3281"/><text fill="#000000" font-family="sans-serif" font-size="13" lengthAdjust="spacing" textLength="200" x="268.5" y="197.1201">Make Restaurant Review Template</text><text fill="#000000" font-family="sans-serif" font-size="13" lengthAdjust="spacing" textLength="71" x="268.5" y="213.4717">[ADP script]</text><path d="M474,233.3281 L740,233.3281 L740,241.6797 L730,251.6797 L474,251.6797 L474,233.3281 " fill="#EEEEEE" style="stroke:#000000;stroke-width:1.5;"/><rect fill="none" height="65.0547" style="stroke:#000000;stroke-width:1.5;" width="271" x="474" y="233.3281"/><text fill="#000000" font-family="sans-serif" font-size="13" font-weight="bold" lengthAdjust="spacing" textLength="221" x="489" y="247.8232">Make Restaurant Review Template</text><polygon fill="#181818" points="624.5,286.3828,634.5,290.3828,624.5,294.3828,628.5,290.3828" style="stroke:#181818;stroke-width:1.0;"/><line style="stroke:#181818;stroke-width:1.0;" x1="511" x2="630.5" y1="290.3828" y2="290.3828"/><text fill="#000000" font-family="sans-serif" font-size="13" lengthAdjust="spacing" textLength="76" x="518" y="269.1748">Data Storage</text><text fill="#000000" font-family="sans-serif" font-size="13" lengthAdjust="spacing" textLength="34" x="518" y="285.5264">[SQL]</text><!--SRC=[hL9DJuD04BtlhvZWkPmyUJ1fg4QJacWXyQ0UfdIa6vTTt1rA_VSkNR4X7jeraa06c3VlOuSbAuBCQ2RDaAF6cfgXB3uTKmCpo7B_oF6TO4MEiRFe_wve9wc7affM8PFlAEYZ8rqDPMQQrkXXYA8TAI5Qj2mhsGx8v6RFP3Mg1D11TddlcUsjCdrQc3VkqL9WTkdO6DwdGx8ym8Fke-pG-sjKbWknDdj8vfj6wWGkdhQIIO2_mlSnW88gbaQxISk4UI6rr7KK-u4q7RfHQh8k_GQEPEbFO2uDumNf3NXXubXCHI3Z6Xr5oHX1GfoVEiok8qA6grEBygAVxyfy2RtaBPIL0lJ-YiVbgwYjwTfJS16X9K9v_06TvNI-U01NMTdoVzlxW-28ECP5yIQ74WesrYEyeyD9-PKytE8B]--></g></svg>