<?xml version="1.0" encoding="us-ascii" standalone="no"?><svg xmlns="http://www.w3.org/2000/svg" xmlns:xlink="http://www.w3.org/1999/xlink" contentStyleType="text/css" height="363px" preserveAspectRatio="none" style="width:696px;height:363px;background:#FFFFFF;" version="1.1" viewBox="0 0 696 363" width="696px" zoomAndPan="magnify"><defs/><g><text fill="#000000" font-family="sans-serif" font-size="14" font-weight="bold" lengthAdjust="spacing" textLength="668" x="10" y="29.5332">Content Management System - CM - Approve Restaurant Review - Sequence - Component level</text><rect fill="#FFFFFF" height="313.3828" style="stroke:#181818;stroke-width:0.5;" width="113" x="557.75" y="44.6094"/><text fill="#000000" font-family="sans-serif" font-size="13" font-weight="bold" lengthAdjust="spacing" textLength="107" x="560.75" y="58.1045">Content Sections</text><rect fill="none" height="144.1094" style="stroke:#000000;stroke-width:1.5;" width="453" x="208.25" y="161.2734"/><rect fill="none" height="65.0547" style="stroke:#000000;stroke-width:1.5;" width="277" x="374.25" y="233.3281"/><line style="stroke:#181818;stroke-width:0.5;stroke-dasharray:5.0,5.0;" x1="54.25" x2="54.25" y1="97.5703" y2="322.3828"/><line style="stroke:#181818;stroke-width:0.5;stroke-dasharray:5.0,5.0;" x1="235.25" x2="235.25" y1="97.5703" y2="322.3828"/><line style="stroke:#181818;stroke-width:0.5;stroke-dasharray:5.0,5.0;" x1="421.25" x2="421.25" y1="97.5703" y2="322.3828"/><line style="stroke:#181818;stroke-width:0.5;stroke-dasharray:5.0,5.0;" x1="614.25" x2="614.25" y1="97.5703" y2="322.3828"/><rect fill="#E2E2F0" height="31.6094" rx="2.5" ry="2.5" style="stroke:#181818;stroke-width:0.5;" width="65" x="22.25" y="64.9609"/><text fill="#000000" font-family="sans-serif" font-size="14" lengthAdjust="spacing" textLength="51" x="29.25" y="86.4941">External</text><rect fill="#E2E2F0" height="31.6094" rx="2.5" ry="2.5" style="stroke:#181818;stroke-width:0.5;" width="65" x="22.25" y="321.3828"/><text fill="#000000" font-family="sans-serif" font-size="14" lengthAdjust="spacing" textLength="51" x="29.25" y="342.916">External</text><rect fill="#E2E2F0" height="31.6094" rx="2.5" ry="2.5" style="stroke:#181818;stroke-width:0.5;" width="35" x="218.25" y="64.9609"/><text fill="#000000" font-family="sans-serif" font-size="14" lengthAdjust="spacing" textLength="21" x="225.25" y="86.4941">CM</text><rect fill="#E2E2F0" height="31.6094" rx="2.5" ry="2.5" style="stroke:#181818;stroke-width:0.5;" width="35" x="218.25" y="321.3828"/><text fill="#000000" font-family="sans-serif" font-size="14" lengthAdjust="spacing" textLength="21" x="225.25" y="342.916">CM</text><rect fill="#E2E2F0" height="31.6094" rx="2.5" ry="2.5" style="stroke:#181818;stroke-width:0.5;" width="75" x="384.25" y="64.9609"/><text fill="#000000" font-family="sans-serif" font-size="14" lengthAdjust="spacing" textLength="61" x="391.25" y="86.4941">Database</text><rect fill="#E2E2F0" height="31.6094" rx="2.5" ry="2.5" style="stroke:#181818;stroke-width:0.5;" width="75" x="384.25" y="321.3828"/><text fill="#000000" font-family="sans-serif" font-size="14" lengthAdjust="spacing" textLength="61" x="391.25" y="342.916">Database</text><rect fill="#E2E2F0" height="31.6094" rx="2.5" ry="2.5" style="stroke:#181818;stroke-width:0.5;" width="54" x="587.25" y="64.9609"/><text fill="#000000" font-family="sans-serif" font-size="14" lengthAdjust="spacing" textLength="40" x="594.25" y="86.4941">Dining</text><rect fill="#E2E2F0" height="31.6094" rx="2.5" ry="2.5" style="stroke:#181818;stroke-width:0.5;" width="54" x="587.25" y="321.3828"/><text fill="#000000" font-family="sans-serif" font-size="14" lengthAdjust="spacing" textLength="40" x="594.25" y="342.916">Dining</text><polygon fill="#181818" points="223.75,142.2734,233.75,146.2734,223.75,150.2734,227.75,146.2734" style="stroke:#181818;stroke-width:1.0;"/><line style="stroke:#181818;stroke-width:1.0;" x1="54.75" x2="229.75" y1="146.2734" y2="146.2734"/><text fill="#000000" font-family="sans-serif" font-size="13" lengthAdjust="spacing" textLength="157" x="61.75" y="125.0654">Approve Restaurant Review</text><text fill="#000000" font-family="sans-serif" font-size="13" lengthAdjust="spacing" textLength="128" x="61.75" y="141.417">[HTTPS/WebSockets]</text><path d="M208.25,161.2734 L429.25,161.2734 L429.25,169.625 L419.25,179.625 L208.25,179.625 L208.25,161.2734 " fill="#EEEEEE" style="stroke:#000000;stroke-width:1.5;"/><rect fill="none" height="144.1094" style="stroke:#000000;stroke-width:1.5;" width="453" x="208.25" y="161.2734"/><text fill="#000000" font-family="sans-serif" font-size="13" font-weight="bold" lengthAdjust="spacing" textLength="176" x="223.25" y="175.7686">Approve Restaurant Review</text><polygon fill="#181818" points="409.75,214.3281,419.75,218.3281,409.75,222.3281,413.75,218.3281" style="stroke:#181818;stroke-width:1.0;"/><line style="stroke:#181818;stroke-width:1.0;" x1="235.75" x2="415.75" y1="218.3281" y2="218.3281"/><text fill="#000000" font-family="sans-serif" font-size="13" lengthAdjust="spacing" textLength="157" x="242.75" y="197.1201">Approve Restaurant Review</text><text fill="#000000" font-family="sans-serif" font-size="13" lengthAdjust="spacing" textLength="162" x="242.75" y="213.4717">[HTTPS/WebSockets, SQL]</text><path d="M374.25,233.3281 L595.25,233.3281 L595.25,241.6797 L585.25,251.6797 L374.25,251.6797 L374.25,233.3281 " fill="#EEEEEE" style="stroke:#000000;stroke-width:1.5;"/><rect fill="none" height="65.0547" style="stroke:#000000;stroke-width:1.5;" width="277" x="374.25" y="233.3281"/><text fill="#000000" font-family="sans-serif" font-size="13" font-weight="bold" lengthAdjust="spacing" textLength="176" x="389.25" y="247.8232">Approve Restaurant Review</text><polygon fill="#181818" points="602.25,286.3828,612.25,290.3828,602.25,294.3828,606.25,290.3828" style="stroke:#181818;stroke-width:1.0;"/><line style="stroke:#181818;stroke-width:1.0;" x1="421.75" x2="608.25" y1="290.3828" y2="290.3828"/><text fill="#000000" font-family="sans-serif" font-size="13" lengthAdjust="spacing" textLength="143" x="428.75" y="269.1748">Show Restaurant Review</text><text fill="#000000" font-family="sans-serif" font-size="13" lengthAdjust="spacing" textLength="49" x="428.75" y="285.5264">[HTTPS]</text><!--SRC=[hPB1IyCm5CRl-IiUzUhgnPC7OLH5mO8kWnrqXxHxRi7sfIQlxVplJLkxKSR0W8MMDFc-z_to4jPS82I668aXLQIsM7P3-UqOIvX1alhFlAgiQH0Mw5ZLLdd10XkDhL-J-5KZvTXfJLaPwkm5DbW8KIdBEjTLPuZkzuoML161Sf1SF_bC-r2ODfRcWrjbSSXqyIWS_gT5adIm3yH7u45xKYf9f_OxnIfJ3eEAZ2OXChE7QBufDKLmiTffHW7-6UR7BahCMHjo4ycKGfEcRH137nftQgK9hOj_ZMDOVEYzv-tB2wGDU31n78Y_Tnrcjm5DXflpL-ITtXwNonTvjS9CclmJsQt5rfgwEkyH0T41eED11k9UWdnz_Z_c0qK0UVZn-ptAdMdFRt3TtOl-5Jy0]--></g></svg>