<?xml version="1.0" encoding="us-ascii" standalone="no"?><svg xmlns="http://www.w3.org/2000/svg" xmlns:xlink="http://www.w3.org/1999/xlink" contentStyleType="text/css" height="347px" preserveAspectRatio="none" style="width:684px;height:347px;background:#FFFFFF;" version="1.1" viewBox="0 0 684 347" width="684px" zoomAndPan="magnify"><defs/><g><text fill="#000000" font-family="sans-serif" font-size="14" font-weight="bold" lengthAdjust="spacing" textLength="656" x="10" y="29.5332">Content Management System - CM - Approve Restaurant Review - Sequence - Container level</text><rect fill="#FFFFFF" height="297.0313" style="stroke:#181818;stroke-width:0.5;" width="130" x="513.75" y="44.6094"/><text fill="#000000" font-family="sans-serif" font-size="13" font-weight="bold" lengthAdjust="spacing" textLength="41" x="558.25" y="58.1045">Admin</text><rect fill="none" height="127.7578" style="stroke:#000000;stroke-width:1.5;" width="461.5" x="198.25" y="161.2734"/><rect fill="none" height="48.7031" style="stroke:#000000;stroke-width:1.5;" width="285.5" x="364.25" y="233.3281"/><line style="stroke:#181818;stroke-width:0.5;stroke-dasharray:5.0,5.0;" x1="44.25" x2="44.25" y1="97.5703" y2="306.0313"/><line style="stroke:#181818;stroke-width:0.5;stroke-dasharray:5.0,5.0;" x1="225.25" x2="225.25" y1="97.5703" y2="306.0313"/><line style="stroke:#181818;stroke-width:0.5;stroke-dasharray:5.0,5.0;" x1="411.25" x2="411.25" y1="97.5703" y2="306.0313"/><line style="stroke:#181818;stroke-width:0.5;stroke-dasharray:5.0,5.0;" x1="578.75" x2="578.75" y1="97.5703" y2="306.0313"/><rect fill="#E2E2F0" height="31.6094" rx="2.5" ry="2.5" style="stroke:#181818;stroke-width:0.5;" width="65" x="12.25" y="64.9609"/><text fill="#000000" font-family="sans-serif" font-size="14" lengthAdjust="spacing" textLength="51" x="19.25" y="86.4941">External</text><rect fill="#E2E2F0" height="31.6094" rx="2.5" ry="2.5" style="stroke:#181818;stroke-width:0.5;" width="65" x="12.25" y="305.0313"/><text fill="#000000" font-family="sans-serif" font-size="14" lengthAdjust="spacing" textLength="51" x="19.25" y="326.5645">External</text><rect fill="#E2E2F0" height="31.6094" rx="2.5" ry="2.5" style="stroke:#181818;stroke-width:0.5;" width="35" x="208.25" y="64.9609"/><text fill="#000000" font-family="sans-serif" font-size="14" lengthAdjust="spacing" textLength="21" x="215.25" y="86.4941">CM</text><rect fill="#E2E2F0" height="31.6094" rx="2.5" ry="2.5" style="stroke:#181818;stroke-width:0.5;" width="35" x="208.25" y="305.0313"/><text fill="#000000" font-family="sans-serif" font-size="14" lengthAdjust="spacing" textLength="21" x="215.25" y="326.5645">CM</text><rect fill="#E2E2F0" height="31.6094" rx="2.5" ry="2.5" style="stroke:#181818;stroke-width:0.5;" width="75" x="374.25" y="64.9609"/><text fill="#000000" font-family="sans-serif" font-size="14" lengthAdjust="spacing" textLength="61" x="381.25" y="86.4941">Database</text><rect fill="#E2E2F0" height="31.6094" rx="2.5" ry="2.5" style="stroke:#181818;stroke-width:0.5;" width="75" x="374.25" y="305.0313"/><text fill="#000000" font-family="sans-serif" font-size="14" lengthAdjust="spacing" textLength="61" x="381.25" y="326.5645">Database</text><rect fill="#E2E2F0" height="31.6094" rx="2.5" ry="2.5" style="stroke:#181818;stroke-width:0.5;" width="122" x="517.75" y="64.9609"/><text fill="#000000" font-family="sans-serif" font-size="14" lengthAdjust="spacing" textLength="108" x="524.75" y="86.4941">Content Sections</text><rect fill="#E2E2F0" height="31.6094" rx="2.5" ry="2.5" style="stroke:#181818;stroke-width:0.5;" width="122" x="517.75" y="305.0313"/><text fill="#000000" font-family="sans-serif" font-size="14" lengthAdjust="spacing" textLength="108" x="524.75" y="326.5645">Content Sections</text><polygon fill="#181818" points="213.75,142.2734,223.75,146.2734,213.75,150.2734,217.75,146.2734" style="stroke:#181818;stroke-width:1.0;"/><line style="stroke:#181818;stroke-width:1.0;" x1="44.75" x2="219.75" y1="146.2734" y2="146.2734"/><text fill="#000000" font-family="sans-serif" font-size="13" lengthAdjust="spacing" textLength="157" x="51.75" y="125.0654">Approve Restaurant Review</text><text fill="#000000" font-family="sans-serif" font-size="13" lengthAdjust="spacing" textLength="128" x="51.75" y="141.417">[HTTPS/WebSockets]</text><path d="M198.25,161.2734 L419.25,161.2734 L419.25,169.625 L409.25,179.625 L198.25,179.625 L198.25,161.2734 " fill="#EEEEEE" style="stroke:#000000;stroke-width:1.5;"/><rect fill="none" height="127.7578" style="stroke:#000000;stroke-width:1.5;" width="461.5" x="198.25" y="161.2734"/><text fill="#000000" font-family="sans-serif" font-size="13" font-weight="bold" lengthAdjust="spacing" textLength="176" x="213.25" y="175.7686">Approve Restaurant Review</text><polygon fill="#181818" points="399.75,214.3281,409.75,218.3281,399.75,222.3281,403.75,218.3281" style="stroke:#181818;stroke-width:1.0;"/><line style="stroke:#181818;stroke-width:1.0;" x1="225.75" x2="405.75" y1="218.3281" y2="218.3281"/><text fill="#000000" font-family="sans-serif" font-size="13" lengthAdjust="spacing" textLength="157" x="232.75" y="197.1201">Approve Restaurant Review</text><text fill="#000000" font-family="sans-serif" font-size="13" lengthAdjust="spacing" textLength="162" x="232.75" y="213.4717">[HTTPS/WebSockets, SQL]</text><path d="M364.25,233.3281 L585.25,233.3281 L585.25,241.6797 L575.25,251.6797 L364.25,251.6797 L364.25,233.3281 " fill="#EEEEEE" style="stroke:#000000;stroke-width:1.5;"/><rect fill="none" height="48.7031" style="stroke:#000000;stroke-width:1.5;" width="285.5" x="364.25" y="233.3281"/><text fill="#000000" font-family="sans-serif" font-size="13" font-weight="bold" lengthAdjust="spacing" textLength="176" x="379.25" y="247.8232">Approve Restaurant Review</text><polygon fill="#181818" points="566.75,270.0313,576.75,274.0313,566.75,278.0313,570.75,274.0313" style="stroke:#181818;stroke-width:1.0;"/><line style="stroke:#181818;stroke-width:1.0;" x1="411.75" x2="572.75" y1="274.0313" y2="274.0313"/><text fill="#000000" font-family="sans-serif" font-size="13" lengthAdjust="spacing" textLength="143" x="418.75" y="269.1748">Show Restaurant Review</text><!--SRC=[hP51JyCm38Nl_XLMkR9ouSG1QIeWaAW4owGTW8FRcIsYJKhYhkFVawthq0GJHA9IgaJnU_xY9regnimQOIEOaw45rvkj-l32DOumoyDlt3JEhXWdx8LQHw5WmYlDNRXJ_DwoANbJ6tn86tPOyOehW8QSw58t6q5olHPsXge4oMDsVXTwkflATgcohzAHuxwdJuV2_dneakMzl2V-0kvhlrbb-Q7yYeGAyXnbCeW02hl6P3oljKdmPBRKme3XEoJS3LDnATeQ7zLgwvtkv-ZJdN0m0pPp31G0yFS9ukWoOc1uSJpkP_DqEvq-gBCP5ygMRop-1HREjirn3KIqZW0TGed4FKNrUFz_p7kA2FBVCWulKalR_K0Lmjyk-0G0]--></g></svg>