<?xml version="1.0" encoding="us-ascii" standalone="no"?><svg xmlns="http://www.w3.org/2000/svg" xmlns:xlink="http://www.w3.org/1999/xlink" contentStyleType="text/css" height="1388px" preserveAspectRatio="none" style="width:1108px;height:1388px;background:#FFFFFF;" version="1.1" viewBox="0 0 1108 1388" width="1108px" zoomAndPan="magnify"><defs/><g><text fill="#000000" font-family="sans-serif" font-size="14" font-weight="bold" lengthAdjust="spacing" textLength="599" x="256.25" y="29.5332">Content Management System - Edit Restaurant Review - Sequence - Component level</text><rect fill="#FFFFFF" height="1337.4453" style="stroke:#181818;stroke-width:0.5;" width="113" x="528" y="44.6094"/><text fill="#000000" font-family="sans-serif" font-size="13" font-weight="bold" lengthAdjust="spacing" textLength="107" x="531" y="58.1045">Content Sections</text><rect fill="none" height="442.3281" style="stroke:#000000;stroke-width:1.5;" width="631.5" x="10" y="114.5703"/><rect fill="none" height="111.7578" style="stroke:#000000;stroke-width:1.5;" width="261" x="178.5" y="186.625"/><rect fill="none" height="144.1094" style="stroke:#000000;stroke-width:1.5;" width="453" x="178.5" y="359.0859"/><rect fill="none" height="65.0547" style="stroke:#000000;stroke-width:1.5;" width="277" x="344.5" y="431.1406"/><rect fill="none" height="144.1094" style="stroke:#000000;stroke-width:1.5;" width="565" x="537.5" y="570.8984"/><rect fill="none" height="65.0547" style="stroke:#000000;stroke-width:1.5;" width="400" x="547.5" y="642.9531"/><rect fill="none" height="442.3281" style="stroke:#000000;stroke-width:1.5;" width="734.5" x="168.5" y="729.0078"/><rect fill="none" height="111.7578" style="stroke:#000000;stroke-width:1.5;" width="261" x="178.5" y="801.0625"/><rect fill="none" height="144.1094" style="stroke:#000000;stroke-width:1.5;" width="453" x="178.5" y="973.5234"/><rect fill="none" height="65.0547" style="stroke:#000000;stroke-width:1.5;" width="277" x="344.5" y="1045.5781"/><rect fill="none" height="144.1094" style="stroke:#000000;stroke-width:1.5;" width="538" x="537.5" y="1185.3359"/><rect fill="none" height="65.0547" style="stroke:#000000;stroke-width:1.5;" width="359" x="547.5" y="1257.3906"/><line style="stroke:#181818;stroke-width:0.5;stroke-dasharray:5.0,5.0;" x1="48" x2="48" y1="97.5703" y2="1346.4453"/><line style="stroke:#181818;stroke-width:0.5;stroke-dasharray:5.0,5.0;" x1="205.5" x2="205.5" y1="97.5703" y2="1346.4453"/><line style="stroke:#181818;stroke-width:0.5;stroke-dasharray:5.0,5.0;" x1="391.5" x2="391.5" y1="97.5703" y2="1346.4453"/><line style="stroke:#181818;stroke-width:0.5;stroke-dasharray:5.0,5.0;" x1="584.5" x2="584.5" y1="97.5703" y2="1346.4453"/><line style="stroke:#181818;stroke-width:0.5;stroke-dasharray:5.0,5.0;" x1="741" x2="741" y1="97.5703" y2="1346.4453"/><line style="stroke:#181818;stroke-width:0.5;stroke-dasharray:5.0,5.0;" x1="867" x2="867" y1="97.5703" y2="1346.4453"/><rect fill="#E2E2F0" height="31.6094" rx="2.5" ry="2.5" style="stroke:#181818;stroke-width:0.5;" width="56" x="20" y="64.9609"/><text fill="#000000" font-family="sans-serif" font-size="14" lengthAdjust="spacing" textLength="42" x="27" y="86.4941">Author</text><rect fill="#E2E2F0" height="31.6094" rx="2.5" ry="2.5" style="stroke:#181818;stroke-width:0.5;" width="56" x="20" y="1345.4453"/><text fill="#000000" font-family="sans-serif" font-size="14" lengthAdjust="spacing" textLength="42" x="27" y="1366.9785">Author</text><rect fill="#E2E2F0" height="31.6094" rx="2.5" ry="2.5" style="stroke:#181818;stroke-width:0.5;" width="35" x="188.5" y="64.9609"/><text fill="#000000" font-family="sans-serif" font-size="14" lengthAdjust="spacing" textLength="21" x="195.5" y="86.4941">CM</text><rect fill="#E2E2F0" height="31.6094" rx="2.5" ry="2.5" style="stroke:#181818;stroke-width:0.5;" width="35" x="188.5" y="1345.4453"/><text fill="#000000" font-family="sans-serif" font-size="14" lengthAdjust="spacing" textLength="21" x="195.5" y="1366.9785">CM</text><rect fill="#E2E2F0" height="31.6094" rx="2.5" ry="2.5" style="stroke:#181818;stroke-width:0.5;" width="75" x="354.5" y="64.9609"/><text fill="#000000" font-family="sans-serif" font-size="14" lengthAdjust="spacing" textLength="61" x="361.5" y="86.4941">Database</text><rect fill="#E2E2F0" height="31.6094" rx="2.5" ry="2.5" style="stroke:#181818;stroke-width:0.5;" width="75" x="354.5" y="1345.4453"/><text fill="#000000" font-family="sans-serif" font-size="14" lengthAdjust="spacing" textLength="61" x="361.5" y="1366.9785">Database</text><rect fill="#E2E2F0" height="31.6094" rx="2.5" ry="2.5" style="stroke:#181818;stroke-width:0.5;" width="54" x="557.5" y="64.9609"/><text fill="#000000" font-family="sans-serif" font-size="14" lengthAdjust="spacing" textLength="40" x="564.5" y="86.4941">Dining</text><rect fill="#E2E2F0" height="31.6094" rx="2.5" ry="2.5" style="stroke:#181818;stroke-width:0.5;" width="54" x="557.5" y="1345.4453"/><text fill="#000000" font-family="sans-serif" font-size="14" lengthAdjust="spacing" textLength="40" x="564.5" y="1366.9785">Dining</text><rect fill="#E2E2F0" height="31.6094" rx="2.5" ry="2.5" style="stroke:#181818;stroke-width:0.5;" width="182" x="650" y="64.9609"/><text fill="#000000" font-family="sans-serif" font-size="14" lengthAdjust="spacing" textLength="168" x="657" y="86.4941">Regular Public Web Surfer</text><rect fill="#E2E2F0" height="31.6094" rx="2.5" ry="2.5" style="stroke:#181818;stroke-width:0.5;" width="182" x="650" y="1345.4453"/><text fill="#000000" font-family="sans-serif" font-size="14" lengthAdjust="spacing" textLength="168" x="657" y="1366.9785">Regular Public Web Surfer</text><rect fill="#E2E2F0" height="31.6094" rx="2.5" ry="2.5" style="stroke:#181818;stroke-width:0.5;" width="51" x="842" y="64.9609"/><text fill="#000000" font-family="sans-serif" font-size="14" lengthAdjust="spacing" textLength="37" x="849" y="86.4941">Editor</text><rect fill="#E2E2F0" height="31.6094" rx="2.5" ry="2.5" style="stroke:#181818;stroke-width:0.5;" width="51" x="842" y="1345.4453"/><text fill="#000000" font-family="sans-serif" font-size="14" lengthAdjust="spacing" textLength="37" x="849" y="1366.9785">Editor</text><path d="M10,114.5703 L302,114.5703 L302,122.9219 L292,132.9219 L10,132.9219 L10,114.5703 " fill="#EEEEEE" style="stroke:#000000;stroke-width:1.5;"/><rect fill="none" height="442.3281" style="stroke:#000000;stroke-width:1.5;" width="631.5" x="10" y="114.5703"/><text fill="#000000" font-family="sans-serif" font-size="13" font-weight="bold" lengthAdjust="spacing" textLength="247" x="25" y="129.0654">Author - Author Edit Restaurant Review</text><polygon fill="#181818" points="194,167.625,204,171.625,194,175.625,198,171.625" style="stroke:#181818;stroke-width:1.0;"/><line style="stroke:#181818;stroke-width:1.0;" x1="48" x2="200" y1="171.625" y2="171.625"/><text fill="#000000" font-family="sans-serif" font-size="13" lengthAdjust="spacing" textLength="77" x="55" y="150.417">Author Log In</text><text fill="#000000" font-family="sans-serif" font-size="13" lengthAdjust="spacing" textLength="49" x="55" y="166.7686">[HTTPS]</text><path d="M178.5,186.625 L309.5,186.625 L309.5,194.9766 L299.5,204.9766 L178.5,204.9766 L178.5,186.625 " fill="#EEEEEE" style="stroke:#000000;stroke-width:1.5;"/><rect fill="none" height="111.7578" style="stroke:#000000;stroke-width:1.5;" width="261" x="178.5" y="186.625"/><text fill="#000000" font-family="sans-serif" font-size="13" font-weight="bold" lengthAdjust="spacing" textLength="86" x="193.5" y="201.1201">Author Log In</text><polygon fill="#181818" points="380,239.6797,390,243.6797,380,247.6797,384,243.6797" style="stroke:#181818;stroke-width:1.0;"/><line style="stroke:#181818;stroke-width:1.0;" x1="206" x2="386" y1="243.6797" y2="243.6797"/><text fill="#000000" font-family="sans-serif" font-size="13" lengthAdjust="spacing" textLength="99" x="213" y="222.4717">Select User Data</text><text fill="#000000" font-family="sans-serif" font-size="13" lengthAdjust="spacing" textLength="83" x="213" y="238.8232">[TCP/IP, SQL]</text><polygon fill="#181818" points="380,286.3828,390,290.3828,380,294.3828,384,290.3828" style="stroke:#181818;stroke-width:1.0;"/><line style="stroke:#181818;stroke-width:1.0;" x1="206" x2="386" y1="290.3828" y2="290.3828"/><text fill="#000000" font-family="sans-serif" font-size="13" lengthAdjust="spacing" textLength="104" x="213" y="269.1748">Authenticate User</text><text fill="#000000" font-family="sans-serif" font-size="13" lengthAdjust="spacing" textLength="83" x="213" y="285.5264">[TCP/IP, SQL]</text><polygon fill="#181818" points="194,340.0859,204,344.0859,194,348.0859,198,344.0859" style="stroke:#181818;stroke-width:1.0;"/><line style="stroke:#181818;stroke-width:1.0;" x1="48" x2="200" y1="344.0859" y2="344.0859"/><text fill="#000000" font-family="sans-serif" font-size="13" lengthAdjust="spacing" textLength="134" x="55" y="322.8779">Edit Restaurant Review</text><text fill="#000000" font-family="sans-serif" font-size="13" lengthAdjust="spacing" textLength="42" x="55" y="339.2295">[HTML]</text><path d="M178.5,359.0859 L370.5,359.0859 L370.5,367.4375 L360.5,377.4375 L178.5,377.4375 L178.5,359.0859 " fill="#EEEEEE" style="stroke:#000000;stroke-width:1.5;"/><rect fill="none" height="144.1094" style="stroke:#000000;stroke-width:1.5;" width="453" x="178.5" y="359.0859"/><text fill="#000000" font-family="sans-serif" font-size="13" font-weight="bold" lengthAdjust="spacing" textLength="147" x="193.5" y="373.5811">Edit Restaurant Review</text><polygon fill="#181818" points="572.5,412.1406,582.5,416.1406,572.5,420.1406,576.5,416.1406" style="stroke:#181818;stroke-width:1.0;"/><line style="stroke:#181818;stroke-width:1.0;" x1="206" x2="578.5" y1="416.1406" y2="416.1406"/><text fill="#000000" font-family="sans-serif" font-size="13" lengthAdjust="spacing" textLength="134" x="213" y="394.9326">Edit Restaurant Review</text><text fill="#000000" font-family="sans-serif" font-size="13" lengthAdjust="spacing" textLength="42" x="213" y="411.2842">[HTML]</text><path d="M344.5,431.1406 L536.5,431.1406 L536.5,439.4922 L526.5,449.4922 L344.5,449.4922 L344.5,431.1406 " fill="#EEEEEE" style="stroke:#000000;stroke-width:1.5;"/><rect fill="none" height="65.0547" style="stroke:#000000;stroke-width:1.5;" width="277" x="344.5" y="431.1406"/><text fill="#000000" font-family="sans-serif" font-size="13" font-weight="bold" lengthAdjust="spacing" textLength="147" x="359.5" y="445.6357">Edit Restaurant Review</text><polygon fill="#181818" points="403,484.1953,393,488.1953,403,492.1953,399,488.1953" style="stroke:#181818;stroke-width:1.0;"/><line style="stroke:#181818;stroke-width:1.0;" x1="397" x2="583.5" y1="488.1953" y2="488.1953"/><text fill="#000000" font-family="sans-serif" font-size="13" lengthAdjust="spacing" textLength="76" x="409" y="466.9873">Data Storage</text><text fill="#000000" font-family="sans-serif" font-size="13" lengthAdjust="spacing" textLength="34" x="409" y="483.3389">[SQL]</text><polygon fill="#181818" points="194,544.8984,204,548.8984,194,552.8984,198,548.8984" style="stroke:#181818;stroke-width:1.0;"/><line style="stroke:#181818;stroke-width:1.0;" x1="48" x2="200" y1="548.8984" y2="548.8984"/><text fill="#000000" font-family="sans-serif" font-size="13" lengthAdjust="spacing" textLength="88" x="55" y="527.6904">Author Log Out</text><text fill="#000000" font-family="sans-serif" font-size="13" lengthAdjust="spacing" textLength="49" x="55" y="544.042">[HTTPS]</text><path d="M537.5,570.8984 L1097.5,570.8984 L1097.5,579.25 L1087.5,589.25 L537.5,589.25 L537.5,570.8984 " fill="#EEEEEE" style="stroke:#000000;stroke-width:1.5;"/><rect fill="none" height="144.1094" style="stroke:#000000;stroke-width:1.5;" width="565" x="537.5" y="570.8984"/><text fill="#000000" font-family="sans-serif" font-size="13" font-weight="bold" lengthAdjust="spacing" textLength="515" x="552.5" y="585.3936">Regular Public Web Surfer - Only See The Old Version Of The Restaurant Review</text><polygon fill="#181818" points="595.5,623.9531,585.5,627.9531,595.5,631.9531,591.5,627.9531" style="stroke:#181818;stroke-width:1.0;"/><line style="stroke:#181818;stroke-width:1.0;" x1="589.5" x2="740" y1="627.9531" y2="627.9531"/><text fill="#000000" font-family="sans-serif" font-size="13" lengthAdjust="spacing" textLength="106" x="601.5" y="606.7451">Public Visit Dining</text><text fill="#000000" font-family="sans-serif" font-size="13" lengthAdjust="spacing" textLength="49" x="601.5" y="623.0967">[HTTPS]</text><path d="M547.5,642.9531 L608.5,642.9531 L608.5,651.3047 L598.5,661.3047 L547.5,661.3047 L547.5,642.9531 " fill="#EEEEEE" style="stroke:#000000;stroke-width:1.5;"/><rect fill="none" height="65.0547" style="stroke:#000000;stroke-width:1.5;" width="400" x="547.5" y="642.9531"/><text fill="#000000" font-family="sans-serif" font-size="13" font-weight="bold" lengthAdjust="spacing" textLength="16" x="562.5" y="657.4482">alt</text><text fill="#000000" font-family="sans-serif" font-size="11" font-weight="bold" lengthAdjust="spacing" textLength="319" x="623.5" y="656.3721">[The edited restaurant review has not been approved yet]</text><polygon fill="#181818" points="595.5,696.0078,585.5,700.0078,595.5,704.0078,591.5,700.0078" style="stroke:#181818;stroke-width:1.0;"/><line style="stroke:#181818;stroke-width:1.0;" x1="589.5" x2="740" y1="700.0078" y2="700.0078"/><text fill="#000000" font-family="sans-serif" font-size="13" lengthAdjust="spacing" textLength="107" x="601.5" y="678.7998">Restaurant Review</text><text fill="#000000" font-family="sans-serif" font-size="13" lengthAdjust="spacing" textLength="49" x="601.5" y="695.1514">[HTTPS]</text><path d="M168.5,729.0078 L523.5,729.0078 L523.5,737.3594 L513.5,747.3594 L168.5,747.3594 L168.5,729.0078 " fill="#EEEEEE" style="stroke:#000000;stroke-width:1.5;"/><rect fill="none" height="442.3281" style="stroke:#000000;stroke-width:1.5;" width="734.5" x="168.5" y="729.0078"/><text fill="#000000" font-family="sans-serif" font-size="13" font-weight="bold" lengthAdjust="spacing" textLength="310" x="183.5" y="743.5029">Editor - Editor Approve Edited Restaurant Review</text><polygon fill="#181818" points="217,782.0625,207,786.0625,217,790.0625,213,786.0625" style="stroke:#181818;stroke-width:1.0;"/><line style="stroke:#181818;stroke-width:1.0;" x1="211" x2="866.5" y1="786.0625" y2="786.0625"/><text fill="#000000" font-family="sans-serif" font-size="13" lengthAdjust="spacing" textLength="73" x="223" y="764.8545">Editor Log In</text><text fill="#000000" font-family="sans-serif" font-size="13" lengthAdjust="spacing" textLength="49" x="223" y="781.2061">[HTTPS]</text><path d="M178.5,801.0625 L304.5,801.0625 L304.5,809.4141 L294.5,819.4141 L178.5,819.4141 L178.5,801.0625 " fill="#EEEEEE" style="stroke:#000000;stroke-width:1.5;"/><rect fill="none" height="111.7578" style="stroke:#000000;stroke-width:1.5;" width="261" x="178.5" y="801.0625"/><text fill="#000000" font-family="sans-serif" font-size="13" font-weight="bold" lengthAdjust="spacing" textLength="81" x="193.5" y="815.5576">Editor Log In</text><polygon fill="#181818" points="380,854.1172,390,858.1172,380,862.1172,384,858.1172" style="stroke:#181818;stroke-width:1.0;"/><line style="stroke:#181818;stroke-width:1.0;" x1="206" x2="386" y1="858.1172" y2="858.1172"/><text fill="#000000" font-family="sans-serif" font-size="13" lengthAdjust="spacing" textLength="99" x="213" y="836.9092">Select User Data</text><text fill="#000000" font-family="sans-serif" font-size="13" lengthAdjust="spacing" textLength="83" x="213" y="853.2607">[TCP/IP, SQL]</text><polygon fill="#181818" points="380,900.8203,390,904.8203,380,908.8203,384,904.8203" style="stroke:#181818;stroke-width:1.0;"/><line style="stroke:#181818;stroke-width:1.0;" x1="206" x2="386" y1="904.8203" y2="904.8203"/><text fill="#000000" font-family="sans-serif" font-size="13" lengthAdjust="spacing" textLength="104" x="213" y="883.6123">Authenticate User</text><text fill="#000000" font-family="sans-serif" font-size="13" lengthAdjust="spacing" textLength="83" x="213" y="899.9639">[TCP/IP, SQL]</text><polygon fill="#181818" points="217,954.5234,207,958.5234,217,962.5234,213,958.5234" style="stroke:#181818;stroke-width:1.0;"/><line style="stroke:#181818;stroke-width:1.0;" x1="211" x2="866.5" y1="958.5234" y2="958.5234"/><text fill="#000000" font-family="sans-serif" font-size="13" lengthAdjust="spacing" textLength="157" x="223" y="937.3154">Approve Restaurant Review</text><text fill="#000000" font-family="sans-serif" font-size="13" lengthAdjust="spacing" textLength="128" x="223" y="953.667">[HTTPS/WebSockets]</text><path d="M178.5,973.5234 L399.5,973.5234 L399.5,981.875 L389.5,991.875 L178.5,991.875 L178.5,973.5234 " fill="#EEEEEE" style="stroke:#000000;stroke-width:1.5;"/><rect fill="none" height="144.1094" style="stroke:#000000;stroke-width:1.5;" width="453" x="178.5" y="973.5234"/><text fill="#000000" font-family="sans-serif" font-size="13" font-weight="bold" lengthAdjust="spacing" textLength="176" x="193.5" y="988.0186">Approve Restaurant Review</text><polygon fill="#181818" points="380,1026.5781,390,1030.5781,380,1034.5781,384,1030.5781" style="stroke:#181818;stroke-width:1.0;"/><line style="stroke:#181818;stroke-width:1.0;" x1="206" x2="386" y1="1030.5781" y2="1030.5781"/><text fill="#000000" font-family="sans-serif" font-size="13" lengthAdjust="spacing" textLength="157" x="213" y="1009.3701">Approve Restaurant Review</text><text fill="#000000" font-family="sans-serif" font-size="13" lengthAdjust="spacing" textLength="162" x="213" y="1025.7217">[HTTPS/WebSockets, SQL]</text><path d="M344.5,1045.5781 L565.5,1045.5781 L565.5,1053.9297 L555.5,1063.9297 L344.5,1063.9297 L344.5,1045.5781 " fill="#EEEEEE" style="stroke:#000000;stroke-width:1.5;"/><rect fill="none" height="65.0547" style="stroke:#000000;stroke-width:1.5;" width="277" x="344.5" y="1045.5781"/><text fill="#000000" font-family="sans-serif" font-size="13" font-weight="bold" lengthAdjust="spacing" textLength="176" x="359.5" y="1060.0732">Approve Restaurant Review</text><polygon fill="#181818" points="572.5,1098.6328,582.5,1102.6328,572.5,1106.6328,576.5,1102.6328" style="stroke:#181818;stroke-width:1.0;"/><line style="stroke:#181818;stroke-width:1.0;" x1="392" x2="578.5" y1="1102.6328" y2="1102.6328"/><text fill="#000000" font-family="sans-serif" font-size="13" lengthAdjust="spacing" textLength="143" x="399" y="1081.4248">Show Restaurant Review</text><text fill="#000000" font-family="sans-serif" font-size="13" lengthAdjust="spacing" textLength="49" x="399" y="1097.7764">[HTTPS]</text><polygon fill="#181818" points="217,1159.3359,207,1163.3359,217,1167.3359,213,1163.3359" style="stroke:#181818;stroke-width:1.0;"/><line style="stroke:#181818;stroke-width:1.0;" x1="211" x2="866.5" y1="1163.3359" y2="1163.3359"/><text fill="#000000" font-family="sans-serif" font-size="13" lengthAdjust="spacing" textLength="84" x="223" y="1142.1279">Editor Log Out</text><text fill="#000000" font-family="sans-serif" font-size="13" lengthAdjust="spacing" textLength="49" x="223" y="1158.4795">[HTTPS]</text><path d="M537.5,1185.3359 L1070.5,1185.3359 L1070.5,1193.6875 L1060.5,1203.6875 L537.5,1203.6875 L537.5,1185.3359 " fill="#EEEEEE" style="stroke:#000000;stroke-width:1.5;"/><rect fill="none" height="144.1094" style="stroke:#000000;stroke-width:1.5;" width="538" x="537.5" y="1185.3359"/><text fill="#000000" font-family="sans-serif" font-size="13" font-weight="bold" lengthAdjust="spacing" textLength="488" x="552.5" y="1199.8311">Regular Public Web Surfer - See The New Version Of The Restaurant Review</text><polygon fill="#181818" points="595.5,1238.3906,585.5,1242.3906,595.5,1246.3906,591.5,1242.3906" style="stroke:#181818;stroke-width:1.0;"/><line style="stroke:#181818;stroke-width:1.0;" x1="589.5" x2="740" y1="1242.3906" y2="1242.3906"/><text fill="#000000" font-family="sans-serif" font-size="13" lengthAdjust="spacing" textLength="106" x="601.5" y="1221.1826">Public Visit Dining</text><text fill="#000000" font-family="sans-serif" font-size="13" lengthAdjust="spacing" textLength="49" x="601.5" y="1237.5342">[HTTPS]</text><path d="M547.5,1257.3906 L608.5,1257.3906 L608.5,1265.7422 L598.5,1275.7422 L547.5,1275.7422 L547.5,1257.3906 " fill="#EEEEEE" style="stroke:#000000;stroke-width:1.5;"/><rect fill="none" height="65.0547" style="stroke:#000000;stroke-width:1.5;" width="359" x="547.5" y="1257.3906"/><text fill="#000000" font-family="sans-serif" font-size="13" font-weight="bold" lengthAdjust="spacing" textLength="16" x="562.5" y="1271.8857">alt</text><text fill="#000000" font-family="sans-serif" font-size="11" font-weight="bold" lengthAdjust="spacing" textLength="278" x="623.5" y="1270.8096">[The edited restaurant review has been approved]</text><polygon fill="#181818" points="595.5,1310.4453,585.5,1314.4453,595.5,1318.4453,591.5,1314.4453" style="stroke:#181818;stroke-width:1.0;"/><line style="stroke:#181818;stroke-width:1.0;" x1="589.5" x2="740" y1="1314.4453" y2="1314.4453"/><text fill="#000000" font-family="sans-serif" font-size="13" lengthAdjust="spacing" textLength="107" x="601.5" y="1293.2373">Restaurant Review</text><text fill="#000000" font-family="sans-serif" font-size="13" lengthAdjust="spacing" textLength="49" x="601.5" y="1309.5889">[HTTPS]</text><!--SRC=[xLR1ZjCm4BtxAqRbocRl792gWCHAxRPioku1zk0aqyGYjOFZjFJl6ST9iq4jIW9PiOAU7DlZUJFlpKoDC1c2hwH1QM399KzmPvV1iJ2uWoju7mi3TrWONcekxN8ly4070NuhKKP8Ir_jSYMjMOPxp1ZBkJOY4harcCrBaoez0ruqZbe_peqtZupIXUTkTgtzvIyj0xKr1wxHVHQUl-oQl-E6Xxp0GOyqHeo5wZi54E-4dC6hXrGOP40_jz-aBS3822MBpfKk2Y65J0PXg9nwzZON4YavjM7Zp3ibdV1MppEKCH0mrYuw8EumAJEkOLs6cOZW0KC8Iht5NjJKniwMJ9rbru6LIZ-YtKt64gtA71pjfADwSLvoh9TuuEhj0At0cyRdGYLm8x_8pnysctNms4Nc3jc0TmUWQCH6M0BCY5tuLA06kqrmDlxw-cRz6eAFYyVf0TXuwQA8kC4Aniy8I5aJyN2Uz8gGvQBXOw0oVYylmolmcS8O0MoS7EmI0cALB2Y4amAcKy6JWbkLfYr7wz7bxc8Ne_wnajcHYWXXaoAiiXZkAJkK4LXjgwt1FULyrvjSH7Lizw8WdRZTDXKyCrKmI2B267GRatQZEQN-AvM14542ptEjzdJlYEOlZVPyjPneRwbtKwF-JqABkOkj-gG81xFRl3UYKrsS69t3_nEZryGOoKD3_qNzN5iDg-Whck8qq2_PF4Ec1i2jS_UdC9zGJ5tAGQeEVUfvyi8SCJoQkN5BBVIVdHkTcV5ovmNx0G00]--></g></svg>