<?xml version="1.0" encoding="us-ascii" standalone="no"?><svg xmlns="http://www.w3.org/2000/svg" xmlns:xlink="http://www.w3.org/1999/xlink" contentStyleType="text/css" height="1289px" preserveAspectRatio="none" style="width:1049px;height:1289px;background:#FFFFFF;" version="1.1" viewBox="0 0 1049 1289" width="1049px" zoomAndPan="magnify"><defs/><g><text fill="#000000" font-family="sans-serif" font-size="14" font-weight="bold" lengthAdjust="spacing" textLength="587" x="232.5" y="29.5332">Content Management System - Edit Restaurant Review - Sequence - Container level</text><rect fill="#FFFFFF" height="1239.3359" style="stroke:#181818;stroke-width:0.5;" width="130" x="494" y="44.6094"/><text fill="#000000" font-family="sans-serif" font-size="13" font-weight="bold" lengthAdjust="spacing" textLength="41" x="538.5" y="58.1045">Admin</text><rect fill="none" height="425.9766" style="stroke:#000000;stroke-width:1.5;" width="640" x="10" y="114.5703"/><rect fill="none" height="111.7578" style="stroke:#000000;stroke-width:1.5;" width="261" x="178.5" y="186.625"/><rect fill="none" height="127.7578" style="stroke:#000000;stroke-width:1.5;" width="461.5" x="178.5" y="359.0859"/><rect fill="none" height="65.0547" style="stroke:#000000;stroke-width:1.5;" width="285.5" x="344.5" y="414.7891"/><rect fill="none" height="111.4063" style="stroke:#000000;stroke-width:1.5;" width="565" x="478" y="554.5469"/><rect fill="none" height="48.7031" style="stroke:#000000;stroke-width:1.5;" width="400" x="488" y="610.25"/><rect fill="none" height="425.9766" style="stroke:#000000;stroke-width:1.5;" width="714.5" x="168.5" y="679.9531"/><rect fill="none" height="111.7578" style="stroke:#000000;stroke-width:1.5;" width="261" x="178.5" y="752.0078"/><rect fill="none" height="127.7578" style="stroke:#000000;stroke-width:1.5;" width="461.5" x="178.5" y="924.4688"/><rect fill="none" height="48.7031" style="stroke:#000000;stroke-width:1.5;" width="285.5" x="344.5" y="996.5234"/><rect fill="none" height="111.4063" style="stroke:#000000;stroke-width:1.5;" width="538" x="478" y="1119.9297"/><rect fill="none" height="48.7031" style="stroke:#000000;stroke-width:1.5;" width="359" x="488" y="1175.6328"/><line style="stroke:#181818;stroke-width:0.5;stroke-dasharray:5.0,5.0;" x1="48" x2="48" y1="97.5703" y2="1248.3359"/><line style="stroke:#181818;stroke-width:0.5;stroke-dasharray:5.0,5.0;" x1="205.5" x2="205.5" y1="97.5703" y2="1248.3359"/><line style="stroke:#181818;stroke-width:0.5;stroke-dasharray:5.0,5.0;" x1="391.5" x2="391.5" y1="97.5703" y2="1248.3359"/><line style="stroke:#181818;stroke-width:0.5;stroke-dasharray:5.0,5.0;" x1="559" x2="559" y1="97.5703" y2="1248.3359"/><line style="stroke:#181818;stroke-width:0.5;stroke-dasharray:5.0,5.0;" x1="721" x2="721" y1="97.5703" y2="1248.3359"/><line style="stroke:#181818;stroke-width:0.5;stroke-dasharray:5.0,5.0;" x1="847" x2="847" y1="97.5703" y2="1248.3359"/><rect fill="#E2E2F0" height="31.6094" rx="2.5" ry="2.5" style="stroke:#181818;stroke-width:0.5;" width="56" x="20" y="64.9609"/><text fill="#000000" font-family="sans-serif" font-size="14" lengthAdjust="spacing" textLength="42" x="27" y="86.4941">Author</text><rect fill="#E2E2F0" height="31.6094" rx="2.5" ry="2.5" style="stroke:#181818;stroke-width:0.5;" width="56" x="20" y="1247.3359"/><text fill="#000000" font-family="sans-serif" font-size="14" lengthAdjust="spacing" textLength="42" x="27" y="1268.8691">Author</text><rect fill="#E2E2F0" height="31.6094" rx="2.5" ry="2.5" style="stroke:#181818;stroke-width:0.5;" width="35" x="188.5" y="64.9609"/><text fill="#000000" font-family="sans-serif" font-size="14" lengthAdjust="spacing" textLength="21" x="195.5" y="86.4941">CM</text><rect fill="#E2E2F0" height="31.6094" rx="2.5" ry="2.5" style="stroke:#181818;stroke-width:0.5;" width="35" x="188.5" y="1247.3359"/><text fill="#000000" font-family="sans-serif" font-size="14" lengthAdjust="spacing" textLength="21" x="195.5" y="1268.8691">CM</text><rect fill="#E2E2F0" height="31.6094" rx="2.5" ry="2.5" style="stroke:#181818;stroke-width:0.5;" width="75" x="354.5" y="64.9609"/><text fill="#000000" font-family="sans-serif" font-size="14" lengthAdjust="spacing" textLength="61" x="361.5" y="86.4941">Database</text><rect fill="#E2E2F0" height="31.6094" rx="2.5" ry="2.5" style="stroke:#181818;stroke-width:0.5;" width="75" x="354.5" y="1247.3359"/><text fill="#000000" font-family="sans-serif" font-size="14" lengthAdjust="spacing" textLength="61" x="361.5" y="1268.8691">Database</text><rect fill="#E2E2F0" height="31.6094" rx="2.5" ry="2.5" style="stroke:#181818;stroke-width:0.5;" width="122" x="498" y="64.9609"/><text fill="#000000" font-family="sans-serif" font-size="14" lengthAdjust="spacing" textLength="108" x="505" y="86.4941">Content Sections</text><rect fill="#E2E2F0" height="31.6094" rx="2.5" ry="2.5" style="stroke:#181818;stroke-width:0.5;" width="122" x="498" y="1247.3359"/><text fill="#000000" font-family="sans-serif" font-size="14" lengthAdjust="spacing" textLength="108" x="505" y="1268.8691">Content Sections</text><rect fill="#E2E2F0" height="31.6094" rx="2.5" ry="2.5" style="stroke:#181818;stroke-width:0.5;" width="182" x="630" y="64.9609"/><text fill="#000000" font-family="sans-serif" font-size="14" lengthAdjust="spacing" textLength="168" x="637" y="86.4941">Regular Public Web Surfer</text><rect fill="#E2E2F0" height="31.6094" rx="2.5" ry="2.5" style="stroke:#181818;stroke-width:0.5;" width="182" x="630" y="1247.3359"/><text fill="#000000" font-family="sans-serif" font-size="14" lengthAdjust="spacing" textLength="168" x="637" y="1268.8691">Regular Public Web Surfer</text><rect fill="#E2E2F0" height="31.6094" rx="2.5" ry="2.5" style="stroke:#181818;stroke-width:0.5;" width="51" x="822" y="64.9609"/><text fill="#000000" font-family="sans-serif" font-size="14" lengthAdjust="spacing" textLength="37" x="829" y="86.4941">Editor</text><rect fill="#E2E2F0" height="31.6094" rx="2.5" ry="2.5" style="stroke:#181818;stroke-width:0.5;" width="51" x="822" y="1247.3359"/><text fill="#000000" font-family="sans-serif" font-size="14" lengthAdjust="spacing" textLength="37" x="829" y="1268.8691">Editor</text><path d="M10,114.5703 L302,114.5703 L302,122.9219 L292,132.9219 L10,132.9219 L10,114.5703 " fill="#EEEEEE" style="stroke:#000000;stroke-width:1.5;"/><rect fill="none" height="425.9766" style="stroke:#000000;stroke-width:1.5;" width="640" x="10" y="114.5703"/><text fill="#000000" font-family="sans-serif" font-size="13" font-weight="bold" lengthAdjust="spacing" textLength="247" x="25" y="129.0654">Author - Author Edit Restaurant Review</text><polygon fill="#181818" points="194,167.625,204,171.625,194,175.625,198,171.625" style="stroke:#181818;stroke-width:1.0;"/><line style="stroke:#181818;stroke-width:1.0;" x1="48" x2="200" y1="171.625" y2="171.625"/><text fill="#000000" font-family="sans-serif" font-size="13" lengthAdjust="spacing" textLength="77" x="55" y="150.417">Author Log In</text><text fill="#000000" font-family="sans-serif" font-size="13" lengthAdjust="spacing" textLength="49" x="55" y="166.7686">[HTTPS]</text><path d="M178.5,186.625 L309.5,186.625 L309.5,194.9766 L299.5,204.9766 L178.5,204.9766 L178.5,186.625 " fill="#EEEEEE" style="stroke:#000000;stroke-width:1.5;"/><rect fill="none" height="111.7578" style="stroke:#000000;stroke-width:1.5;" width="261" x="178.5" y="186.625"/><text fill="#000000" font-family="sans-serif" font-size="13" font-weight="bold" lengthAdjust="spacing" textLength="86" x="193.5" y="201.1201">Author Log In</text><polygon fill="#181818" points="380,239.6797,390,243.6797,380,247.6797,384,243.6797" style="stroke:#181818;stroke-width:1.0;"/><line style="stroke:#181818;stroke-width:1.0;" x1="206" x2="386" y1="243.6797" y2="243.6797"/><text fill="#000000" font-family="sans-serif" font-size="13" lengthAdjust="spacing" textLength="99" x="213" y="222.4717">Select User Data</text><text fill="#000000" font-family="sans-serif" font-size="13" lengthAdjust="spacing" textLength="83" x="213" y="238.8232">[TCP/IP, SQL]</text><polygon fill="#181818" points="380,286.3828,390,290.3828,380,294.3828,384,290.3828" style="stroke:#181818;stroke-width:1.0;"/><line style="stroke:#181818;stroke-width:1.0;" x1="206" x2="386" y1="290.3828" y2="290.3828"/><text fill="#000000" font-family="sans-serif" font-size="13" lengthAdjust="spacing" textLength="104" x="213" y="269.1748">Authenticate User</text><text fill="#000000" font-family="sans-serif" font-size="13" lengthAdjust="spacing" textLength="83" x="213" y="285.5264">[TCP/IP, SQL]</text><polygon fill="#181818" points="194,340.0859,204,344.0859,194,348.0859,198,344.0859" style="stroke:#181818;stroke-width:1.0;"/><line style="stroke:#181818;stroke-width:1.0;" x1="48" x2="200" y1="344.0859" y2="344.0859"/><text fill="#000000" font-family="sans-serif" font-size="13" lengthAdjust="spacing" textLength="134" x="55" y="322.8779">Edit Restaurant Review</text><text fill="#000000" font-family="sans-serif" font-size="13" lengthAdjust="spacing" textLength="42" x="55" y="339.2295">[HTML]</text><path d="M178.5,359.0859 L370.5,359.0859 L370.5,367.4375 L360.5,377.4375 L178.5,377.4375 L178.5,359.0859 " fill="#EEEEEE" style="stroke:#000000;stroke-width:1.5;"/><rect fill="none" height="127.7578" style="stroke:#000000;stroke-width:1.5;" width="461.5" x="178.5" y="359.0859"/><text fill="#000000" font-family="sans-serif" font-size="13" font-weight="bold" lengthAdjust="spacing" textLength="147" x="193.5" y="373.5811">Edit Restaurant Review</text><polygon fill="#181818" points="547,395.7891,557,399.7891,547,403.7891,551,399.7891" style="stroke:#181818;stroke-width:1.0;"/><line style="stroke:#181818;stroke-width:1.0;" x1="206" x2="553" y1="399.7891" y2="399.7891"/><text fill="#000000" font-family="sans-serif" font-size="13" lengthAdjust="spacing" textLength="134" x="213" y="394.9326">Edit Restaurant Review</text><path d="M344.5,414.7891 L536.5,414.7891 L536.5,423.1406 L526.5,433.1406 L344.5,433.1406 L344.5,414.7891 " fill="#EEEEEE" style="stroke:#000000;stroke-width:1.5;"/><rect fill="none" height="65.0547" style="stroke:#000000;stroke-width:1.5;" width="285.5" x="344.5" y="414.7891"/><text fill="#000000" font-family="sans-serif" font-size="13" font-weight="bold" lengthAdjust="spacing" textLength="147" x="359.5" y="429.2842">Edit Restaurant Review</text><polygon fill="#181818" points="403,467.8438,393,471.8438,403,475.8438,399,471.8438" style="stroke:#181818;stroke-width:1.0;"/><line style="stroke:#181818;stroke-width:1.0;" x1="397" x2="558" y1="471.8438" y2="471.8438"/><text fill="#000000" font-family="sans-serif" font-size="13" lengthAdjust="spacing" textLength="76" x="409" y="450.6357">Data Storage</text><text fill="#000000" font-family="sans-serif" font-size="13" lengthAdjust="spacing" textLength="34" x="409" y="466.9873">[SQL]</text><polygon fill="#181818" points="194,528.5469,204,532.5469,194,536.5469,198,532.5469" style="stroke:#181818;stroke-width:1.0;"/><line style="stroke:#181818;stroke-width:1.0;" x1="48" x2="200" y1="532.5469" y2="532.5469"/><text fill="#000000" font-family="sans-serif" font-size="13" lengthAdjust="spacing" textLength="88" x="55" y="511.3389">Author Log Out</text><text fill="#000000" font-family="sans-serif" font-size="13" lengthAdjust="spacing" textLength="49" x="55" y="527.6904">[HTTPS]</text><path d="M478,554.5469 L1038,554.5469 L1038,562.8984 L1028,572.8984 L478,572.8984 L478,554.5469 " fill="#EEEEEE" style="stroke:#000000;stroke-width:1.5;"/><rect fill="none" height="111.4063" style="stroke:#000000;stroke-width:1.5;" width="565" x="478" y="554.5469"/><text fill="#000000" font-family="sans-serif" font-size="13" font-weight="bold" lengthAdjust="spacing" textLength="515" x="493" y="569.042">Regular Public Web Surfer - Only See The Old Version Of The Restaurant Review</text><polygon fill="#181818" points="570,591.25,560,595.25,570,599.25,566,595.25" style="stroke:#181818;stroke-width:1.0;"/><line style="stroke:#181818;stroke-width:1.0;" x1="564" x2="720" y1="595.25" y2="595.25"/><text fill="#000000" font-family="sans-serif" font-size="13" lengthAdjust="spacing" textLength="106" x="576" y="590.3936">Public Visit Dining</text><path d="M488,610.25 L549,610.25 L549,618.6016 L539,628.6016 L488,628.6016 L488,610.25 " fill="#EEEEEE" style="stroke:#000000;stroke-width:1.5;"/><rect fill="none" height="48.7031" style="stroke:#000000;stroke-width:1.5;" width="400" x="488" y="610.25"/><text fill="#000000" font-family="sans-serif" font-size="13" font-weight="bold" lengthAdjust="spacing" textLength="16" x="503" y="624.7451">alt</text><text fill="#000000" font-family="sans-serif" font-size="11" font-weight="bold" lengthAdjust="spacing" textLength="319" x="564" y="623.6689">[The edited restaurant review has not been approved yet]</text><polygon fill="#181818" points="570,646.9531,560,650.9531,570,654.9531,566,650.9531" style="stroke:#181818;stroke-width:1.0;"/><line style="stroke:#181818;stroke-width:1.0;" x1="564" x2="720" y1="650.9531" y2="650.9531"/><text fill="#000000" font-family="sans-serif" font-size="13" lengthAdjust="spacing" textLength="107" x="576" y="646.0967">Restaurant Review</text><path d="M168.5,679.9531 L523.5,679.9531 L523.5,688.3047 L513.5,698.3047 L168.5,698.3047 L168.5,679.9531 " fill="#EEEEEE" style="stroke:#000000;stroke-width:1.5;"/><rect fill="none" height="425.9766" style="stroke:#000000;stroke-width:1.5;" width="714.5" x="168.5" y="679.9531"/><text fill="#000000" font-family="sans-serif" font-size="13" font-weight="bold" lengthAdjust="spacing" textLength="310" x="183.5" y="694.4482">Editor - Editor Approve Edited Restaurant Review</text><polygon fill="#181818" points="217,733.0078,207,737.0078,217,741.0078,213,737.0078" style="stroke:#181818;stroke-width:1.0;"/><line style="stroke:#181818;stroke-width:1.0;" x1="211" x2="846.5" y1="737.0078" y2="737.0078"/><text fill="#000000" font-family="sans-serif" font-size="13" lengthAdjust="spacing" textLength="73" x="223" y="715.7998">Editor Log In</text><text fill="#000000" font-family="sans-serif" font-size="13" lengthAdjust="spacing" textLength="49" x="223" y="732.1514">[HTTPS]</text><path d="M178.5,752.0078 L304.5,752.0078 L304.5,760.3594 L294.5,770.3594 L178.5,770.3594 L178.5,752.0078 " fill="#EEEEEE" style="stroke:#000000;stroke-width:1.5;"/><rect fill="none" height="111.7578" style="stroke:#000000;stroke-width:1.5;" width="261" x="178.5" y="752.0078"/><text fill="#000000" font-family="sans-serif" font-size="13" font-weight="bold" lengthAdjust="spacing" textLength="81" x="193.5" y="766.5029">Editor Log In</text><polygon fill="#181818" points="380,805.0625,390,809.0625,380,813.0625,384,809.0625" style="stroke:#181818;stroke-width:1.0;"/><line style="stroke:#181818;stroke-width:1.0;" x1="206" x2="386" y1="809.0625" y2="809.0625"/><text fill="#000000" font-family="sans-serif" font-size="13" lengthAdjust="spacing" textLength="99" x="213" y="787.8545">Select User Data</text><text fill="#000000" font-family="sans-serif" font-size="13" lengthAdjust="spacing" textLength="83" x="213" y="804.2061">[TCP/IP, SQL]</text><polygon fill="#181818" points="380,851.7656,390,855.7656,380,859.7656,384,855.7656" style="stroke:#181818;stroke-width:1.0;"/><line style="stroke:#181818;stroke-width:1.0;" x1="206" x2="386" y1="855.7656" y2="855.7656"/><text fill="#000000" font-family="sans-serif" font-size="13" lengthAdjust="spacing" textLength="104" x="213" y="834.5576">Authenticate User</text><text fill="#000000" font-family="sans-serif" font-size="13" lengthAdjust="spacing" textLength="83" x="213" y="850.9092">[TCP/IP, SQL]</text><polygon fill="#181818" points="217,905.4688,207,909.4688,217,913.4688,213,909.4688" style="stroke:#181818;stroke-width:1.0;"/><line style="stroke:#181818;stroke-width:1.0;" x1="211" x2="846.5" y1="909.4688" y2="909.4688"/><text fill="#000000" font-family="sans-serif" font-size="13" lengthAdjust="spacing" textLength="157" x="223" y="888.2607">Approve Restaurant Review</text><text fill="#000000" font-family="sans-serif" font-size="13" lengthAdjust="spacing" textLength="128" x="223" y="904.6123">[HTTPS/WebSockets]</text><path d="M178.5,924.4688 L399.5,924.4688 L399.5,932.8203 L389.5,942.8203 L178.5,942.8203 L178.5,924.4688 " fill="#EEEEEE" style="stroke:#000000;stroke-width:1.5;"/><rect fill="none" height="127.7578" style="stroke:#000000;stroke-width:1.5;" width="461.5" x="178.5" y="924.4688"/><text fill="#000000" font-family="sans-serif" font-size="13" font-weight="bold" lengthAdjust="spacing" textLength="176" x="193.5" y="938.9639">Approve Restaurant Review</text><polygon fill="#181818" points="380,977.5234,390,981.5234,380,985.5234,384,981.5234" style="stroke:#181818;stroke-width:1.0;"/><line style="stroke:#181818;stroke-width:1.0;" x1="206" x2="386" y1="981.5234" y2="981.5234"/><text fill="#000000" font-family="sans-serif" font-size="13" lengthAdjust="spacing" textLength="157" x="213" y="960.3154">Approve Restaurant Review</text><text fill="#000000" font-family="sans-serif" font-size="13" lengthAdjust="spacing" textLength="162" x="213" y="976.667">[HTTPS/WebSockets, SQL]</text><path d="M344.5,996.5234 L565.5,996.5234 L565.5,1004.875 L555.5,1014.875 L344.5,1014.875 L344.5,996.5234 " fill="#EEEEEE" style="stroke:#000000;stroke-width:1.5;"/><rect fill="none" height="48.7031" style="stroke:#000000;stroke-width:1.5;" width="285.5" x="344.5" y="996.5234"/><text fill="#000000" font-family="sans-serif" font-size="13" font-weight="bold" lengthAdjust="spacing" textLength="176" x="359.5" y="1011.0186">Approve Restaurant Review</text><polygon fill="#181818" points="547,1033.2266,557,1037.2266,547,1041.2266,551,1037.2266" style="stroke:#181818;stroke-width:1.0;"/><line style="stroke:#181818;stroke-width:1.0;" x1="392" x2="553" y1="1037.2266" y2="1037.2266"/><text fill="#000000" font-family="sans-serif" font-size="13" lengthAdjust="spacing" textLength="143" x="399" y="1032.3701">Show Restaurant Review</text><polygon fill="#181818" points="217,1093.9297,207,1097.9297,217,1101.9297,213,1097.9297" style="stroke:#181818;stroke-width:1.0;"/><line style="stroke:#181818;stroke-width:1.0;" x1="211" x2="846.5" y1="1097.9297" y2="1097.9297"/><text fill="#000000" font-family="sans-serif" font-size="13" lengthAdjust="spacing" textLength="84" x="223" y="1076.7217">Editor Log Out</text><text fill="#000000" font-family="sans-serif" font-size="13" lengthAdjust="spacing" textLength="49" x="223" y="1093.0732">[HTTPS]</text><path d="M478,1119.9297 L1011,1119.9297 L1011,1128.2813 L1001,1138.2813 L478,1138.2813 L478,1119.9297 " fill="#EEEEEE" style="stroke:#000000;stroke-width:1.5;"/><rect fill="none" height="111.4063" style="stroke:#000000;stroke-width:1.5;" width="538" x="478" y="1119.9297"/><text fill="#000000" font-family="sans-serif" font-size="13" font-weight="bold" lengthAdjust="spacing" textLength="488" x="493" y="1134.4248">Regular Public Web Surfer - See The New Version Of The Restaurant Review</text><polygon fill="#181818" points="570,1156.6328,560,1160.6328,570,1164.6328,566,1160.6328" style="stroke:#181818;stroke-width:1.0;"/><line style="stroke:#181818;stroke-width:1.0;" x1="564" x2="720" y1="1160.6328" y2="1160.6328"/><text fill="#000000" font-family="sans-serif" font-size="13" lengthAdjust="spacing" textLength="106" x="576" y="1155.7764">Public Visit Dining</text><path d="M488,1175.6328 L549,1175.6328 L549,1183.9844 L539,1193.9844 L488,1193.9844 L488,1175.6328 " fill="#EEEEEE" style="stroke:#000000;stroke-width:1.5;"/><rect fill="none" height="48.7031" style="stroke:#000000;stroke-width:1.5;" width="359" x="488" y="1175.6328"/><text fill="#000000" font-family="sans-serif" font-size="13" font-weight="bold" lengthAdjust="spacing" textLength="16" x="503" y="1190.1279">alt</text><text fill="#000000" font-family="sans-serif" font-size="11" font-weight="bold" lengthAdjust="spacing" textLength="278" x="564" y="1189.0518">[The edited restaurant review has been approved]</text><polygon fill="#181818" points="570,1212.3359,560,1216.3359,570,1220.3359,566,1216.3359" style="stroke:#181818;stroke-width:1.0;"/><line style="stroke:#181818;stroke-width:1.0;" x1="564" x2="720" y1="1216.3359" y2="1216.3359"/><text fill="#000000" font-family="sans-serif" font-size="13" lengthAdjust="spacing" textLength="107" x="576" y="1211.4795">Restaurant Review</text><!--SRC=[xLN1Sjem4BthAtRejI7t7Zh3aCuqCn1eJ9D3cuDiBxQcHd8b6ShVTsLP4AUGO0gPJAS-oPQUzks-tMShR84mLDAYj33cacUuSCjeRImku08-fSB2BHhBAysbMou5hcWZmfyLoWHfwV1SIDHGu18BnagkhKX4wG2zGMLpfNl0JGYqZUF3z0U9LThq_SasUZX-5XcfkLrnZVxLz8VZDloAMnvpWvqk2I36OlMB4aWNGlRWtNqkB3AWfysmgLw4YHLAcawXwhlxcmAQVWCCbp6KAH2B9pMznQmgk8Pf5HSYWNkC8Qhq70ygSmFsM89wP3k0a_qmqVn9nZAjgXAyXDGJpM9t-x236W4kFdRG7Jw4c2ELmRNyBhzzdiscqKERcTza7Uxjm28q3d69i209uQkXgN2VYSviEBsydhw7wCleuVm4NBvqK2JSOatZAGFgh3Ffi5lqMf3nAEZHiJF-hYulZTbUqgSX-sBuuoHsIuX8AK9GTJUgda_PHqCqgUnsn5n4NwczpaIUC975cWO3OPOZJ8eKxgWMb3zCvlMdpZwnsybEt1XD9dV2K0zS2IbandXXQyP8VO4fw2rnxV-FEHcdL1PYH0cyBBLQqharsZUHqf-53cspRVVQnPl5m2TGlr8QdNKAzntX8tlzlBNvtyyFylCZTGZoxxPqqkJIDQfAVg0rcz_jFimhLAe3tQPsf-AyON7QUOrojNfcQCy-VKTuVR3v6pB3VzlcMnR_nksT_GO0]--></g></svg>