<?xml version="1.0" encoding="us-ascii" standalone="no"?><svg xmlns="http://www.w3.org/2000/svg" xmlns:xlink="http://www.w3.org/1999/xlink" contentStyleType="text/css" height="1263px" preserveAspectRatio="none" style="width:1083px;height:1263px;background:#FFFFFF;" version="1.1" viewBox="0 0 1083 1263" width="1083px" zoomAndPan="magnify"><defs/><g><text fill="#000000" font-family="sans-serif" font-size="14" font-weight="bold" lengthAdjust="spacing" textLength="573" x="256.75" y="29.5332">Content Management System - Edit Restaurant Review - Sequence - Context level</text><rect fill="none" height="425.9766" style="stroke:#000000;stroke-width:1.5;" width="605.5" x="10" y="93.2188"/><rect fill="none" height="111.7578" style="stroke:#000000;stroke-width:1.5;" width="261" x="178.5" y="165.2734"/><rect fill="none" height="127.7578" style="stroke:#000000;stroke-width:1.5;" width="427" x="178.5" y="337.7344"/><rect fill="none" height="65.0547" style="stroke:#000000;stroke-width:1.5;" width="251" x="344.5" y="393.4375"/><rect fill="none" height="111.4063" style="stroke:#000000;stroke-width:1.5;" width="565" x="512.5" y="533.1953"/><rect fill="none" height="48.7031" style="stroke:#000000;stroke-width:1.5;" width="400" x="522.5" y="588.8984"/><rect fill="none" height="425.9766" style="stroke:#000000;stroke-width:1.5;" width="683.5" x="168.5" y="658.6016"/><rect fill="none" height="111.7578" style="stroke:#000000;stroke-width:1.5;" width="261" x="178.5" y="730.6563"/><rect fill="none" height="127.7578" style="stroke:#000000;stroke-width:1.5;" width="427" x="178.5" y="903.1172"/><rect fill="none" height="48.7031" style="stroke:#000000;stroke-width:1.5;" width="251" x="344.5" y="975.1719"/><rect fill="none" height="111.4063" style="stroke:#000000;stroke-width:1.5;" width="538" x="512.5" y="1098.5781"/><rect fill="none" height="48.7031" style="stroke:#000000;stroke-width:1.5;" width="359" x="522.5" y="1154.2813"/><line style="stroke:#181818;stroke-width:0.5;stroke-dasharray:5.0,5.0;" x1="48" x2="48" y1="76.2188" y2="1226.9844"/><line style="stroke:#181818;stroke-width:0.5;stroke-dasharray:5.0,5.0;" x1="205.5" x2="205.5" y1="76.2188" y2="1226.9844"/><line style="stroke:#181818;stroke-width:0.5;stroke-dasharray:5.0,5.0;" x1="391.5" x2="391.5" y1="76.2188" y2="1226.9844"/><line style="stroke:#181818;stroke-width:0.5;stroke-dasharray:5.0,5.0;" x1="558.5" x2="558.5" y1="76.2188" y2="1226.9844"/><line style="stroke:#181818;stroke-width:0.5;stroke-dasharray:5.0,5.0;" x1="690" x2="690" y1="76.2188" y2="1226.9844"/><line style="stroke:#181818;stroke-width:0.5;stroke-dasharray:5.0,5.0;" x1="816" x2="816" y1="76.2188" y2="1226.9844"/><rect fill="#E2E2F0" height="31.6094" rx="2.5" ry="2.5" style="stroke:#181818;stroke-width:0.5;" width="56" x="20" y="43.6094"/><text fill="#000000" font-family="sans-serif" font-size="14" lengthAdjust="spacing" textLength="42" x="27" y="65.1426">Author</text><rect fill="#E2E2F0" height="31.6094" rx="2.5" ry="2.5" style="stroke:#181818;stroke-width:0.5;" width="56" x="20" y="1225.9844"/><text fill="#000000" font-family="sans-serif" font-size="14" lengthAdjust="spacing" textLength="42" x="27" y="1247.5176">Author</text><rect fill="#E2E2F0" height="31.6094" rx="2.5" ry="2.5" style="stroke:#181818;stroke-width:0.5;" width="35" x="188.5" y="43.6094"/><text fill="#000000" font-family="sans-serif" font-size="14" lengthAdjust="spacing" textLength="21" x="195.5" y="65.1426">CM</text><rect fill="#E2E2F0" height="31.6094" rx="2.5" ry="2.5" style="stroke:#181818;stroke-width:0.5;" width="35" x="188.5" y="1225.9844"/><text fill="#000000" font-family="sans-serif" font-size="14" lengthAdjust="spacing" textLength="21" x="195.5" y="1247.5176">CM</text><rect fill="#E2E2F0" height="31.6094" rx="2.5" ry="2.5" style="stroke:#181818;stroke-width:0.5;" width="75" x="354.5" y="43.6094"/><text fill="#000000" font-family="sans-serif" font-size="14" lengthAdjust="spacing" textLength="61" x="361.5" y="65.1426">Database</text><rect fill="#E2E2F0" height="31.6094" rx="2.5" ry="2.5" style="stroke:#181818;stroke-width:0.5;" width="75" x="354.5" y="1225.9844"/><text fill="#000000" font-family="sans-serif" font-size="14" lengthAdjust="spacing" textLength="61" x="361.5" y="1247.5176">Database</text><rect fill="#E2E2F0" height="31.6094" rx="2.5" ry="2.5" style="stroke:#181818;stroke-width:0.5;" width="53" x="532.5" y="43.6094"/><text fill="#000000" font-family="sans-serif" font-size="14" lengthAdjust="spacing" textLength="39" x="539.5" y="65.1426">Admin</text><rect fill="#E2E2F0" height="31.6094" rx="2.5" ry="2.5" style="stroke:#181818;stroke-width:0.5;" width="53" x="532.5" y="1225.9844"/><text fill="#000000" font-family="sans-serif" font-size="14" lengthAdjust="spacing" textLength="39" x="539.5" y="1247.5176">Admin</text><rect fill="#E2E2F0" height="31.6094" rx="2.5" ry="2.5" style="stroke:#181818;stroke-width:0.5;" width="182" x="599" y="43.6094"/><text fill="#000000" font-family="sans-serif" font-size="14" lengthAdjust="spacing" textLength="168" x="606" y="65.1426">Regular Public Web Surfer</text><rect fill="#E2E2F0" height="31.6094" rx="2.5" ry="2.5" style="stroke:#181818;stroke-width:0.5;" width="182" x="599" y="1225.9844"/><text fill="#000000" font-family="sans-serif" font-size="14" lengthAdjust="spacing" textLength="168" x="606" y="1247.5176">Regular Public Web Surfer</text><rect fill="#E2E2F0" height="31.6094" rx="2.5" ry="2.5" style="stroke:#181818;stroke-width:0.5;" width="51" x="791" y="43.6094"/><text fill="#000000" font-family="sans-serif" font-size="14" lengthAdjust="spacing" textLength="37" x="798" y="65.1426">Editor</text><rect fill="#E2E2F0" height="31.6094" rx="2.5" ry="2.5" style="stroke:#181818;stroke-width:0.5;" width="51" x="791" y="1225.9844"/><text fill="#000000" font-family="sans-serif" font-size="14" lengthAdjust="spacing" textLength="37" x="798" y="1247.5176">Editor</text><path d="M10,93.2188 L302,93.2188 L302,101.5703 L292,111.5703 L10,111.5703 L10,93.2188 " fill="#EEEEEE" style="stroke:#000000;stroke-width:1.5;"/><rect fill="none" height="425.9766" style="stroke:#000000;stroke-width:1.5;" width="605.5" x="10" y="93.2188"/><text fill="#000000" font-family="sans-serif" font-size="13" font-weight="bold" lengthAdjust="spacing" textLength="247" x="25" y="107.7139">Author - Author Edit Restaurant Review</text><polygon fill="#181818" points="194,146.2734,204,150.2734,194,154.2734,198,150.2734" style="stroke:#181818;stroke-width:1.0;"/><line style="stroke:#181818;stroke-width:1.0;" x1="48" x2="200" y1="150.2734" y2="150.2734"/><text fill="#000000" font-family="sans-serif" font-size="13" lengthAdjust="spacing" textLength="77" x="55" y="129.0654">Author Log In</text><text fill="#000000" font-family="sans-serif" font-size="13" lengthAdjust="spacing" textLength="49" x="55" y="145.417">[HTTPS]</text><path d="M178.5,165.2734 L309.5,165.2734 L309.5,173.625 L299.5,183.625 L178.5,183.625 L178.5,165.2734 " fill="#EEEEEE" style="stroke:#000000;stroke-width:1.5;"/><rect fill="none" height="111.7578" style="stroke:#000000;stroke-width:1.5;" width="261" x="178.5" y="165.2734"/><text fill="#000000" font-family="sans-serif" font-size="13" font-weight="bold" lengthAdjust="spacing" textLength="86" x="193.5" y="179.7686">Author Log In</text><polygon fill="#181818" points="380,218.3281,390,222.3281,380,226.3281,384,222.3281" style="stroke:#181818;stroke-width:1.0;"/><line style="stroke:#181818;stroke-width:1.0;" x1="206" x2="386" y1="222.3281" y2="222.3281"/><text fill="#000000" font-family="sans-serif" font-size="13" lengthAdjust="spacing" textLength="99" x="213" y="201.1201">Select User Data</text><text fill="#000000" font-family="sans-serif" font-size="13" lengthAdjust="spacing" textLength="83" x="213" y="217.4717">[TCP/IP, SQL]</text><polygon fill="#181818" points="380,265.0313,390,269.0313,380,273.0313,384,269.0313" style="stroke:#181818;stroke-width:1.0;"/><line style="stroke:#181818;stroke-width:1.0;" x1="206" x2="386" y1="269.0313" y2="269.0313"/><text fill="#000000" font-family="sans-serif" font-size="13" lengthAdjust="spacing" textLength="104" x="213" y="247.8232">Authenticate User</text><text fill="#000000" font-family="sans-serif" font-size="13" lengthAdjust="spacing" textLength="83" x="213" y="264.1748">[TCP/IP, SQL]</text><polygon fill="#181818" points="194,318.7344,204,322.7344,194,326.7344,198,322.7344" style="stroke:#181818;stroke-width:1.0;"/><line style="stroke:#181818;stroke-width:1.0;" x1="48" x2="200" y1="322.7344" y2="322.7344"/><text fill="#000000" font-family="sans-serif" font-size="13" lengthAdjust="spacing" textLength="134" x="55" y="301.5264">Edit Restaurant Review</text><text fill="#000000" font-family="sans-serif" font-size="13" lengthAdjust="spacing" textLength="42" x="55" y="317.8779">[HTML]</text><path d="M178.5,337.7344 L370.5,337.7344 L370.5,346.0859 L360.5,356.0859 L178.5,356.0859 L178.5,337.7344 " fill="#EEEEEE" style="stroke:#000000;stroke-width:1.5;"/><rect fill="none" height="127.7578" style="stroke:#000000;stroke-width:1.5;" width="427" x="178.5" y="337.7344"/><text fill="#000000" font-family="sans-serif" font-size="13" font-weight="bold" lengthAdjust="spacing" textLength="147" x="193.5" y="352.2295">Edit Restaurant Review</text><polygon fill="#181818" points="547,374.4375,557,378.4375,547,382.4375,551,378.4375" style="stroke:#181818;stroke-width:1.0;"/><line style="stroke:#181818;stroke-width:1.0;" x1="206" x2="553" y1="378.4375" y2="378.4375"/><text fill="#000000" font-family="sans-serif" font-size="13" lengthAdjust="spacing" textLength="134" x="213" y="373.5811">Edit Restaurant Review</text><path d="M344.5,393.4375 L536.5,393.4375 L536.5,401.7891 L526.5,411.7891 L344.5,411.7891 L344.5,393.4375 " fill="#EEEEEE" style="stroke:#000000;stroke-width:1.5;"/><rect fill="none" height="65.0547" style="stroke:#000000;stroke-width:1.5;" width="251" x="344.5" y="393.4375"/><text fill="#000000" font-family="sans-serif" font-size="13" font-weight="bold" lengthAdjust="spacing" textLength="147" x="359.5" y="407.9326">Edit Restaurant Review</text><polygon fill="#181818" points="403,446.4922,393,450.4922,403,454.4922,399,450.4922" style="stroke:#181818;stroke-width:1.0;"/><line style="stroke:#181818;stroke-width:1.0;" x1="397" x2="558" y1="450.4922" y2="450.4922"/><text fill="#000000" font-family="sans-serif" font-size="13" lengthAdjust="spacing" textLength="76" x="409" y="429.2842">Data Storage</text><text fill="#000000" font-family="sans-serif" font-size="13" lengthAdjust="spacing" textLength="34" x="409" y="445.6357">[SQL]</text><polygon fill="#181818" points="194,507.1953,204,511.1953,194,515.1953,198,511.1953" style="stroke:#181818;stroke-width:1.0;"/><line style="stroke:#181818;stroke-width:1.0;" x1="48" x2="200" y1="511.1953" y2="511.1953"/><text fill="#000000" font-family="sans-serif" font-size="13" lengthAdjust="spacing" textLength="88" x="55" y="489.9873">Author Log Out</text><text fill="#000000" font-family="sans-serif" font-size="13" lengthAdjust="spacing" textLength="49" x="55" y="506.3389">[HTTPS]</text><path d="M512.5,533.1953 L1072.5,533.1953 L1072.5,541.5469 L1062.5,551.5469 L512.5,551.5469 L512.5,533.1953 " fill="#EEEEEE" style="stroke:#000000;stroke-width:1.5;"/><rect fill="none" height="111.4063" style="stroke:#000000;stroke-width:1.5;" width="565" x="512.5" y="533.1953"/><text fill="#000000" font-family="sans-serif" font-size="13" font-weight="bold" lengthAdjust="spacing" textLength="515" x="527.5" y="547.6904">Regular Public Web Surfer - Only See The Old Version Of The Restaurant Review</text><polygon fill="#181818" points="570,569.8984,560,573.8984,570,577.8984,566,573.8984" style="stroke:#181818;stroke-width:1.0;"/><line style="stroke:#181818;stroke-width:1.0;" x1="564" x2="689" y1="573.8984" y2="573.8984"/><text fill="#000000" font-family="sans-serif" font-size="13" lengthAdjust="spacing" textLength="106" x="576" y="569.042">Public Visit Dining</text><path d="M522.5,588.8984 L583.5,588.8984 L583.5,597.25 L573.5,607.25 L522.5,607.25 L522.5,588.8984 " fill="#EEEEEE" style="stroke:#000000;stroke-width:1.5;"/><rect fill="none" height="48.7031" style="stroke:#000000;stroke-width:1.5;" width="400" x="522.5" y="588.8984"/><text fill="#000000" font-family="sans-serif" font-size="13" font-weight="bold" lengthAdjust="spacing" textLength="16" x="537.5" y="603.3936">alt</text><text fill="#000000" font-family="sans-serif" font-size="11" font-weight="bold" lengthAdjust="spacing" textLength="319" x="598.5" y="602.3174">[The edited restaurant review has not been approved yet]</text><polygon fill="#181818" points="570,625.6016,560,629.6016,570,633.6016,566,629.6016" style="stroke:#181818;stroke-width:1.0;"/><line style="stroke:#181818;stroke-width:1.0;" x1="564" x2="689" y1="629.6016" y2="629.6016"/><text fill="#000000" font-family="sans-serif" font-size="13" lengthAdjust="spacing" textLength="107" x="576" y="624.7451">Restaurant Review</text><path d="M168.5,658.6016 L523.5,658.6016 L523.5,666.9531 L513.5,676.9531 L168.5,676.9531 L168.5,658.6016 " fill="#EEEEEE" style="stroke:#000000;stroke-width:1.5;"/><rect fill="none" height="425.9766" style="stroke:#000000;stroke-width:1.5;" width="683.5" x="168.5" y="658.6016"/><text fill="#000000" font-family="sans-serif" font-size="13" font-weight="bold" lengthAdjust="spacing" textLength="310" x="183.5" y="673.0967">Editor - Editor Approve Edited Restaurant Review</text><polygon fill="#181818" points="217,711.6563,207,715.6563,217,719.6563,213,715.6563" style="stroke:#181818;stroke-width:1.0;"/><line style="stroke:#181818;stroke-width:1.0;" x1="211" x2="815.5" y1="715.6563" y2="715.6563"/><text fill="#000000" font-family="sans-serif" font-size="13" lengthAdjust="spacing" textLength="73" x="223" y="694.4482">Editor Log In</text><text fill="#000000" font-family="sans-serif" font-size="13" lengthAdjust="spacing" textLength="49" x="223" y="710.7998">[HTTPS]</text><path d="M178.5,730.6563 L304.5,730.6563 L304.5,739.0078 L294.5,749.0078 L178.5,749.0078 L178.5,730.6563 " fill="#EEEEEE" style="stroke:#000000;stroke-width:1.5;"/><rect fill="none" height="111.7578" style="stroke:#000000;stroke-width:1.5;" width="261" x="178.5" y="730.6563"/><text fill="#000000" font-family="sans-serif" font-size="13" font-weight="bold" lengthAdjust="spacing" textLength="81" x="193.5" y="745.1514">Editor Log In</text><polygon fill="#181818" points="380,783.7109,390,787.7109,380,791.7109,384,787.7109" style="stroke:#181818;stroke-width:1.0;"/><line style="stroke:#181818;stroke-width:1.0;" x1="206" x2="386" y1="787.7109" y2="787.7109"/><text fill="#000000" font-family="sans-serif" font-size="13" lengthAdjust="spacing" textLength="99" x="213" y="766.5029">Select User Data</text><text fill="#000000" font-family="sans-serif" font-size="13" lengthAdjust="spacing" textLength="83" x="213" y="782.8545">[TCP/IP, SQL]</text><polygon fill="#181818" points="380,830.4141,390,834.4141,380,838.4141,384,834.4141" style="stroke:#181818;stroke-width:1.0;"/><line style="stroke:#181818;stroke-width:1.0;" x1="206" x2="386" y1="834.4141" y2="834.4141"/><text fill="#000000" font-family="sans-serif" font-size="13" lengthAdjust="spacing" textLength="104" x="213" y="813.2061">Authenticate User</text><text fill="#000000" font-family="sans-serif" font-size="13" lengthAdjust="spacing" textLength="83" x="213" y="829.5576">[TCP/IP, SQL]</text><polygon fill="#181818" points="217,884.1172,207,888.1172,217,892.1172,213,888.1172" style="stroke:#181818;stroke-width:1.0;"/><line style="stroke:#181818;stroke-width:1.0;" x1="211" x2="815.5" y1="888.1172" y2="888.1172"/><text fill="#000000" font-family="sans-serif" font-size="13" lengthAdjust="spacing" textLength="157" x="223" y="866.9092">Approve Restaurant Review</text><text fill="#000000" font-family="sans-serif" font-size="13" lengthAdjust="spacing" textLength="128" x="223" y="883.2607">[HTTPS/WebSockets]</text><path d="M178.5,903.1172 L399.5,903.1172 L399.5,911.4688 L389.5,921.4688 L178.5,921.4688 L178.5,903.1172 " fill="#EEEEEE" style="stroke:#000000;stroke-width:1.5;"/><rect fill="none" height="127.7578" style="stroke:#000000;stroke-width:1.5;" width="427" x="178.5" y="903.1172"/><text fill="#000000" font-family="sans-serif" font-size="13" font-weight="bold" lengthAdjust="spacing" textLength="176" x="193.5" y="917.6123">Approve Restaurant Review</text><polygon fill="#181818" points="380,956.1719,390,960.1719,380,964.1719,384,960.1719" style="stroke:#181818;stroke-width:1.0;"/><line style="stroke:#181818;stroke-width:1.0;" x1="206" x2="386" y1="960.1719" y2="960.1719"/><text fill="#000000" font-family="sans-serif" font-size="13" lengthAdjust="spacing" textLength="157" x="213" y="938.9639">Approve Restaurant Review</text><text fill="#000000" font-family="sans-serif" font-size="13" lengthAdjust="spacing" textLength="162" x="213" y="955.3154">[HTTPS/WebSockets, SQL]</text><path d="M344.5,975.1719 L565.5,975.1719 L565.5,983.5234 L555.5,993.5234 L344.5,993.5234 L344.5,975.1719 " fill="#EEEEEE" style="stroke:#000000;stroke-width:1.5;"/><rect fill="none" height="48.7031" style="stroke:#000000;stroke-width:1.5;" width="251" x="344.5" y="975.1719"/><text fill="#000000" font-family="sans-serif" font-size="13" font-weight="bold" lengthAdjust="spacing" textLength="176" x="359.5" y="989.667">Approve Restaurant Review</text><polygon fill="#181818" points="547,1011.875,557,1015.875,547,1019.875,551,1015.875" style="stroke:#181818;stroke-width:1.0;"/><line style="stroke:#181818;stroke-width:1.0;" x1="392" x2="553" y1="1015.875" y2="1015.875"/><text fill="#000000" font-family="sans-serif" font-size="13" lengthAdjust="spacing" textLength="143" x="399" y="1011.0186">Show Restaurant Review</text><polygon fill="#181818" points="217,1072.5781,207,1076.5781,217,1080.5781,213,1076.5781" style="stroke:#181818;stroke-width:1.0;"/><line style="stroke:#181818;stroke-width:1.0;" x1="211" x2="815.5" y1="1076.5781" y2="1076.5781"/><text fill="#000000" font-family="sans-serif" font-size="13" lengthAdjust="spacing" textLength="84" x="223" y="1055.3701">Editor Log Out</text><text fill="#000000" font-family="sans-serif" font-size="13" lengthAdjust="spacing" textLength="49" x="223" y="1071.7217">[HTTPS]</text><path d="M512.5,1098.5781 L1045.5,1098.5781 L1045.5,1106.9297 L1035.5,1116.9297 L512.5,1116.9297 L512.5,1098.5781 " fill="#EEEEEE" style="stroke:#000000;stroke-width:1.5;"/><rect fill="none" height="111.4063" style="stroke:#000000;stroke-width:1.5;" width="538" x="512.5" y="1098.5781"/><text fill="#000000" font-family="sans-serif" font-size="13" font-weight="bold" lengthAdjust="spacing" textLength="488" x="527.5" y="1113.0732">Regular Public Web Surfer - See The New Version Of The Restaurant Review</text><polygon fill="#181818" points="570,1135.2813,560,1139.2813,570,1143.2813,566,1139.2813" style="stroke:#181818;stroke-width:1.0;"/><line style="stroke:#181818;stroke-width:1.0;" x1="564" x2="689" y1="1139.2813" y2="1139.2813"/><text fill="#000000" font-family="sans-serif" font-size="13" lengthAdjust="spacing" textLength="106" x="576" y="1134.4248">Public Visit Dining</text><path d="M522.5,1154.2813 L583.5,1154.2813 L583.5,1162.6328 L573.5,1172.6328 L522.5,1172.6328 L522.5,1154.2813 " fill="#EEEEEE" style="stroke:#000000;stroke-width:1.5;"/><rect fill="none" height="48.7031" style="stroke:#000000;stroke-width:1.5;" width="359" x="522.5" y="1154.2813"/><text fill="#000000" font-family="sans-serif" font-size="13" font-weight="bold" lengthAdjust="spacing" textLength="16" x="537.5" y="1168.7764">alt</text><text fill="#000000" font-family="sans-serif" font-size="11" font-weight="bold" lengthAdjust="spacing" textLength="278" x="598.5" y="1167.7002">[The edited restaurant review has been approved]</text><polygon fill="#181818" points="570,1190.9844,560,1194.9844,570,1198.9844,566,1194.9844" style="stroke:#181818;stroke-width:1.0;"/><line style="stroke:#181818;stroke-width:1.0;" x1="564" x2="689" y1="1194.9844" y2="1194.9844"/><text fill="#000000" font-family="sans-serif" font-size="13" lengthAdjust="spacing" textLength="107" x="576" y="1190.1279">Restaurant Review</text><!--SRC=[xLN1Sjem4BtxAtPoRiYzXyumf3FD31GQaVJGvY3inMXY95TQG_ZxhYKRuXGos0sPJ2QtjQMdVNvF-qoACeI1qOIQO2IrJ75PbcBZ29Tm3byJHN2DZcHXfIxBbS8rBmZyKw2EaKkFVo38S8LP5ENIaefLNcu_wnUqCFOCfAlRxBg49hr-JCQwNjZPH0z6poA5cTDQMWoFhZSODU6NakHCEcnrI0rwyXt9KkbMvtX4yv1hJ8jCMfWKiqp5y1Dd80exnwFqgS01oz20R3OetJfExR0pYb9hYXo2zcnbLUntFJhAGJZ_qi8m-5pt79eKhlHl_UlRT3eHTqrcOJ5gSMuB5hNZp4LWXZ71ZKCBvMkcCnrCBgucdq3y6DwTda3vlRnHnPBGqtZA07Lo8X_sc-uD6GrhFrhUZF_JnO_GGMOlmoZqw6PMMO9WpHd1EctzEPr7ZyPXND1kMCgEGOw36SFJFTRPXgyumdI1CCuIk4NhbD4mdljNhIT-VoPriRYYUwiSktcfjD9f93Foj90TnWJiZfqDVw45vvms13D43JBFhLdnlWtIw_7-LxBw0knkfq_MgkW7blwHkRPMl3wlmsmVpDZ6uaV67fMn7NsexTyVi-p9HNaRJNoFvBQ_m4EOLr2g1TrAkvVYl6NHOIZ5mgoVcSoJZrY7QAvJ-Jl7sZj8vKOYluKqZlu2]--></g></svg>