<?xml version="1.0" encoding="us-ascii" standalone="no"?><svg xmlns="http://www.w3.org/2000/svg" xmlns:xlink="http://www.w3.org/1999/xlink" contentStyleType="text/css" height="615px" preserveAspectRatio="none" style="width:574px;height:615px;background:#FFFFFF;" version="1.1" viewBox="0 0 574 615" width="574px" zoomAndPan="magnify"><defs/><g><text fill="#000000" font-family="sans-serif" font-size="14" font-weight="bold" lengthAdjust="spacing" textLength="546" x="10" y="29.5332">Content Management System - CM - Navigation - Sequence - Component level</text><rect fill="#FFFFFF" height="564.8984" style="stroke:#181818;stroke-width:0.5;" width="248.5" x="249" y="44.6094"/><text fill="#000000" font-family="sans-serif" font-size="13" font-weight="bold" lengthAdjust="spacing" textLength="107" x="319.75" y="58.1045">Content Sections</text><rect fill="none" height="395.625" style="stroke:#000000;stroke-width:1.5;" width="377" x="136.5" y="161.2734"/><rect fill="none" height="65.0547" style="stroke:#000000;stroke-width:1.5;" width="175" x="243" y="233.3281"/><rect fill="none" height="65.0547" style="stroke:#000000;stroke-width:1.5;" width="163.5" x="340" y="359.0859"/><rect fill="none" height="65.0547" style="stroke:#000000;stroke-width:1.5;" width="175" x="243" y="484.8438"/><line style="stroke:#181818;stroke-width:0.5;stroke-dasharray:5.0,5.0;" x1="80.5" x2="80.5" y1="97.5703" y2="573.8984"/><line style="stroke:#181818;stroke-width:0.5;stroke-dasharray:5.0,5.0;" x1="163.5" x2="163.5" y1="97.5703" y2="573.8984"/><line style="stroke:#181818;stroke-width:0.5;stroke-dasharray:5.0,5.0;" x1="280" x2="280" y1="97.5703" y2="573.8984"/><line style="stroke:#181818;stroke-width:0.5;stroke-dasharray:5.0,5.0;" x1="379" x2="379" y1="97.5703" y2="573.8984"/><line style="stroke:#181818;stroke-width:0.5;stroke-dasharray:5.0,5.0;" x1="469.5" x2="469.5" y1="97.5703" y2="573.8984"/><rect fill="#E2E2F0" height="31.6094" rx="2.5" ry="2.5" style="stroke:#181818;stroke-width:0.5;" width="65" x="48.5" y="64.9609"/><text fill="#000000" font-family="sans-serif" font-size="14" lengthAdjust="spacing" textLength="51" x="55.5" y="86.4941">External</text><rect fill="#E2E2F0" height="31.6094" rx="2.5" ry="2.5" style="stroke:#181818;stroke-width:0.5;" width="65" x="48.5" y="572.8984"/><text fill="#000000" font-family="sans-serif" font-size="14" lengthAdjust="spacing" textLength="51" x="55.5" y="594.4316">External</text><rect fill="#E2E2F0" height="31.6094" rx="2.5" ry="2.5" style="stroke:#181818;stroke-width:0.5;" width="35" x="146.5" y="64.9609"/><text fill="#000000" font-family="sans-serif" font-size="14" lengthAdjust="spacing" textLength="21" x="153.5" y="86.4941">CM</text><rect fill="#E2E2F0" height="31.6094" rx="2.5" ry="2.5" style="stroke:#181818;stroke-width:0.5;" width="35" x="146.5" y="572.8984"/><text fill="#000000" font-family="sans-serif" font-size="14" lengthAdjust="spacing" textLength="21" x="153.5" y="594.4316">CM</text><rect fill="#E2E2F0" height="31.6094" rx="2.5" ry="2.5" style="stroke:#181818;stroke-width:0.5;" width="54" x="253" y="64.9609"/><text fill="#000000" font-family="sans-serif" font-size="14" lengthAdjust="spacing" textLength="40" x="260" y="86.4941">Dining</text><rect fill="#E2E2F0" height="31.6094" rx="2.5" ry="2.5" style="stroke:#181818;stroke-width:0.5;" width="54" x="253" y="572.8984"/><text fill="#000000" font-family="sans-serif" font-size="14" lengthAdjust="spacing" textLength="40" x="260" y="594.4316">Dining</text><rect fill="#E2E2F0" height="31.6094" rx="2.5" ry="2.5" style="stroke:#181818;stroke-width:0.5;" width="58" x="350" y="64.9609"/><text fill="#000000" font-family="sans-serif" font-size="14" lengthAdjust="spacing" textLength="44" x="357" y="86.4941">Movies</text><rect fill="#E2E2F0" height="31.6094" rx="2.5" ry="2.5" style="stroke:#181818;stroke-width:0.5;" width="58" x="350" y="572.8984"/><text fill="#000000" font-family="sans-serif" font-size="14" lengthAdjust="spacing" textLength="44" x="357" y="594.4316">Movies</text><rect fill="#E2E2F0" height="31.6094" rx="2.5" ry="2.5" style="stroke:#181818;stroke-width:0.5;" width="47" x="446.5" y="64.9609"/><text fill="#000000" font-family="sans-serif" font-size="14" lengthAdjust="spacing" textLength="33" x="453.5" y="86.4941">News</text><rect fill="#E2E2F0" height="31.6094" rx="2.5" ry="2.5" style="stroke:#181818;stroke-width:0.5;" width="47" x="446.5" y="572.8984"/><text fill="#000000" font-family="sans-serif" font-size="14" lengthAdjust="spacing" textLength="33" x="453.5" y="594.4316">News</text><polygon fill="#181818" points="152,142.2734,162,146.2734,152,150.2734,156,146.2734" style="stroke:#181818;stroke-width:1.0;"/><line style="stroke:#181818;stroke-width:1.0;" x1="81" x2="158" y1="146.2734" y2="146.2734"/><text fill="#000000" font-family="sans-serif" font-size="13" lengthAdjust="spacing" textLength="59" x="88" y="125.0654">Navigation</text><text fill="#000000" font-family="sans-serif" font-size="13" lengthAdjust="spacing" textLength="42" x="88" y="141.417">[HTML]</text><path d="M136.5,161.2734 L249.5,161.2734 L249.5,169.625 L239.5,179.625 L136.5,179.625 L136.5,161.2734 " fill="#EEEEEE" style="stroke:#000000;stroke-width:1.5;"/><rect fill="none" height="395.625" style="stroke:#000000;stroke-width:1.5;" width="377" x="136.5" y="161.2734"/><text fill="#000000" font-family="sans-serif" font-size="13" font-weight="bold" lengthAdjust="spacing" textLength="68" x="151.5" y="175.7686">Navigation</text><polygon fill="#181818" points="268,214.3281,278,218.3281,268,222.3281,272,218.3281" style="stroke:#181818;stroke-width:1.0;"/><line style="stroke:#181818;stroke-width:1.0;" x1="164" x2="274" y1="218.3281" y2="218.3281"/><text fill="#000000" font-family="sans-serif" font-size="13" lengthAdjust="spacing" textLength="92" x="171" y="197.1201">Move To Movies</text><text fill="#000000" font-family="sans-serif" font-size="13" lengthAdjust="spacing" textLength="62" x="171" y="213.4717">[Hyperlink]</text><path d="M243,233.3281 L390,233.3281 L390,241.6797 L380,251.6797 L243,251.6797 L243,233.3281 " fill="#EEEEEE" style="stroke:#000000;stroke-width:1.5;"/><rect fill="none" height="65.0547" style="stroke:#000000;stroke-width:1.5;" width="175" x="243" y="233.3281"/><text fill="#000000" font-family="sans-serif" font-size="13" font-weight="bold" lengthAdjust="spacing" textLength="102" x="258" y="247.8232">Move To Movies</text><polygon fill="#181818" points="367,286.3828,377,290.3828,367,294.3828,371,290.3828" style="stroke:#181818;stroke-width:1.0;"/><line style="stroke:#181818;stroke-width:1.0;" x1="280" x2="373" y1="290.3828" y2="290.3828"/><text fill="#000000" font-family="sans-serif" font-size="13" lengthAdjust="spacing" textLength="75" x="287" y="269.1748">Enter Movies</text><text fill="#000000" font-family="sans-serif" font-size="13" lengthAdjust="spacing" textLength="49" x="287" y="285.5264">[HTTPS]</text><polygon fill="#181818" points="367,340.0859,377,344.0859,367,348.0859,371,344.0859" style="stroke:#181818;stroke-width:1.0;"/><line style="stroke:#181818;stroke-width:1.0;" x1="164" x2="373" y1="344.0859" y2="344.0859"/><text fill="#000000" font-family="sans-serif" font-size="13" lengthAdjust="spacing" textLength="84" x="171" y="322.8779">Move To News</text><text fill="#000000" font-family="sans-serif" font-size="13" lengthAdjust="spacing" textLength="62" x="171" y="339.2295">[Hyperlink]</text><path d="M340,359.0859 L477,359.0859 L477,367.4375 L467,377.4375 L340,377.4375 L340,359.0859 " fill="#EEEEEE" style="stroke:#000000;stroke-width:1.5;"/><rect fill="none" height="65.0547" style="stroke:#000000;stroke-width:1.5;" width="163.5" x="340" y="359.0859"/><text fill="#000000" font-family="sans-serif" font-size="13" font-weight="bold" lengthAdjust="spacing" textLength="92" x="355" y="373.5811">Move To News</text><polygon fill="#181818" points="458,412.1406,468,416.1406,458,420.1406,462,416.1406" style="stroke:#181818;stroke-width:1.0;"/><line style="stroke:#181818;stroke-width:1.0;" x1="379" x2="464" y1="416.1406" y2="416.1406"/><text fill="#000000" font-family="sans-serif" font-size="13" lengthAdjust="spacing" textLength="67" x="386" y="394.9326">Enter News</text><text fill="#000000" font-family="sans-serif" font-size="13" lengthAdjust="spacing" textLength="49" x="386" y="411.2842">[HTTPS]</text><polygon fill="#181818" points="367,465.8438,377,469.8438,367,473.8438,371,469.8438" style="stroke:#181818;stroke-width:1.0;"/><line style="stroke:#181818;stroke-width:1.0;" x1="164" x2="373" y1="469.8438" y2="469.8438"/><text fill="#000000" font-family="sans-serif" font-size="13" lengthAdjust="spacing" textLength="88" x="171" y="448.6357">Move To Dining</text><text fill="#000000" font-family="sans-serif" font-size="13" lengthAdjust="spacing" textLength="62" x="171" y="464.9873">[Hyperlink]</text><path d="M243,484.8438 L387,484.8438 L387,493.1953 L377,503.1953 L243,503.1953 L243,484.8438 " fill="#EEEEEE" style="stroke:#000000;stroke-width:1.5;"/><rect fill="none" height="65.0547" style="stroke:#000000;stroke-width:1.5;" width="175" x="243" y="484.8438"/><text fill="#000000" font-family="sans-serif" font-size="13" font-weight="bold" lengthAdjust="spacing" textLength="99" x="258" y="499.3389">Move To Dining</text><polygon fill="#181818" points="291,537.8984,281,541.8984,291,545.8984,287,541.8984" style="stroke:#181818;stroke-width:1.0;"/><line style="stroke:#181818;stroke-width:1.0;" x1="285" x2="378" y1="541.8984" y2="541.8984"/><text fill="#000000" font-family="sans-serif" font-size="13" lengthAdjust="spacing" textLength="71" x="297" y="520.6904">Enter Dining</text><text fill="#000000" font-family="sans-serif" font-size="13" lengthAdjust="spacing" textLength="49" x="297" y="537.042">[HTTPS]</text><!--SRC=[rLHDIyGm5BpdLppgUNlov46Gkg9W5w453xg7s7tMOFjIasox- -zDDjil5XPxAAo5bYHzUJEJ6MA4AH0YIGR9GCo9vrYwORBN1ajOG1JRpuhN8kT6IBAJ17-sI1cwdxAi9Bdw0cii6AkuCY8J5RTBmN9dK14l0k0Qekid2w8U2jc4YVmq3LVeGNJO5lhvk4aK- -sUOi_GrvwqYcB6FkGEWhjDAIY0gzSlOP21VVnwgpN1pEdHev8HyhqWGVaaz0DewAgv85GwF6vimSBkm7Jesv_2nh8Mg6U3zUrFOLVOp0VgcZEa3LWBM3zWVmy5B6udP01k1f5zfxV7D7vUirp9RJNumIOqd00_FGIMhhK58PNWxN6KznMgGj1totjSmMPaCvDMJzngNJhF1qhJz2LPkrHSW24ToVQuNNJFsN68zenCPjBfQ7TMj1elsWWVpdDM76_K_sT6TmjuEtgblI7kPRy0]--></g></svg>