<?xml version="1.0" encoding="us-ascii" standalone="no"?><svg xmlns="http://www.w3.org/2000/svg" xmlns:xlink="http://www.w3.org/1999/xlink" contentStyleType="text/css" height="302px" preserveAspectRatio="none" style="width:548px;height:302px;background:#FFFFFF;" version="1.1" viewBox="0 0 548 302" width="548px" zoomAndPan="magnify"><defs/><g><text fill="#000000" font-family="sans-serif" font-size="14" font-weight="bold" lengthAdjust="spacing" textLength="520" x="10" y="29.5332">Content Management System - CM - Navigation - Sequence - Context level</text><rect fill="none" height="109.4063" style="stroke:#000000;stroke-width:1.5;" width="180" x="222" y="139.9219"/><line style="stroke:#181818;stroke-width:0.5;stroke-dasharray:5.0,5.0;" x1="166" x2="166" y1="76.2188" y2="266.3281"/><line style="stroke:#181818;stroke-width:0.5;stroke-dasharray:5.0,5.0;" x1="249" x2="249" y1="76.2188" y2="266.3281"/><line style="stroke:#181818;stroke-width:0.5;stroke-dasharray:5.0,5.0;" x1="365" x2="365" y1="76.2188" y2="266.3281"/><rect fill="#E2E2F0" height="31.6094" rx="2.5" ry="2.5" style="stroke:#181818;stroke-width:0.5;" width="65" x="134" y="43.6094"/><text fill="#000000" font-family="sans-serif" font-size="14" lengthAdjust="spacing" textLength="51" x="141" y="65.1426">External</text><rect fill="#E2E2F0" height="31.6094" rx="2.5" ry="2.5" style="stroke:#181818;stroke-width:0.5;" width="65" x="134" y="265.3281"/><text fill="#000000" font-family="sans-serif" font-size="14" lengthAdjust="spacing" textLength="51" x="141" y="286.8613">External</text><rect fill="#E2E2F0" height="31.6094" rx="2.5" ry="2.5" style="stroke:#181818;stroke-width:0.5;" width="35" x="232" y="43.6094"/><text fill="#000000" font-family="sans-serif" font-size="14" lengthAdjust="spacing" textLength="21" x="239" y="65.1426">CM</text><rect fill="#E2E2F0" height="31.6094" rx="2.5" ry="2.5" style="stroke:#181818;stroke-width:0.5;" width="35" x="232" y="265.3281"/><text fill="#000000" font-family="sans-serif" font-size="14" lengthAdjust="spacing" textLength="21" x="239" y="286.8613">CM</text><rect fill="#E2E2F0" height="31.6094" rx="2.5" ry="2.5" style="stroke:#181818;stroke-width:0.5;" width="53" x="339" y="43.6094"/><text fill="#000000" font-family="sans-serif" font-size="14" lengthAdjust="spacing" textLength="39" x="346" y="65.1426">Admin</text><rect fill="#E2E2F0" height="31.6094" rx="2.5" ry="2.5" style="stroke:#181818;stroke-width:0.5;" width="53" x="339" y="265.3281"/><text fill="#000000" font-family="sans-serif" font-size="14" lengthAdjust="spacing" textLength="39" x="346" y="286.8613">Admin</text><polygon fill="#181818" points="237.5,120.9219,247.5,124.9219,237.5,128.9219,241.5,124.9219" style="stroke:#181818;stroke-width:1.0;"/><line style="stroke:#181818;stroke-width:1.0;" x1="166.5" x2="243.5" y1="124.9219" y2="124.9219"/><text fill="#000000" font-family="sans-serif" font-size="13" lengthAdjust="spacing" textLength="59" x="173.5" y="103.7139">Navigation</text><text fill="#000000" font-family="sans-serif" font-size="13" lengthAdjust="spacing" textLength="42" x="173.5" y="120.0654">[HTML]</text><path d="M222,139.9219 L335,139.9219 L335,148.2734 L325,158.2734 L222,158.2734 L222,139.9219 " fill="#EEEEEE" style="stroke:#000000;stroke-width:1.5;"/><rect fill="none" height="109.4063" style="stroke:#000000;stroke-width:1.5;" width="180" x="222" y="139.9219"/><text fill="#000000" font-family="sans-serif" font-size="13" font-weight="bold" lengthAdjust="spacing" textLength="68" x="237" y="154.417">Navigation</text><polygon fill="#181818" points="353.5,176.625,363.5,180.625,353.5,184.625,357.5,180.625" style="stroke:#181818;stroke-width:1.0;"/><line style="stroke:#181818;stroke-width:1.0;" x1="249.5" x2="359.5" y1="180.625" y2="180.625"/><text fill="#000000" font-family="sans-serif" font-size="13" lengthAdjust="spacing" textLength="92" x="256.5" y="175.7686">Move To Movies</text><polygon fill="#181818" points="353.5,206.9766,363.5,210.9766,353.5,214.9766,357.5,210.9766" style="stroke:#181818;stroke-width:1.0;"/><line style="stroke:#181818;stroke-width:1.0;" x1="249.5" x2="359.5" y1="210.9766" y2="210.9766"/><text fill="#000000" font-family="sans-serif" font-size="13" lengthAdjust="spacing" textLength="84" x="256.5" y="206.1201">Move To News</text><polygon fill="#181818" points="353.5,237.3281,363.5,241.3281,353.5,245.3281,357.5,241.3281" style="stroke:#181818;stroke-width:1.0;"/><line style="stroke:#181818;stroke-width:1.0;" x1="249.5" x2="359.5" y1="241.3281" y2="241.3281"/><text fill="#000000" font-family="sans-serif" font-size="13" lengthAdjust="spacing" textLength="88" x="256.5" y="236.4717">Move To Dining</text><!--SRC=[lL2zRW8n3Dxz51OxJ9qw85LfgrOYBCTM62nmJvPopf4pT_JjcoEg2khIMrZYMFx-R1CBZ2wgiHfwKggv6R_LLsVSu1oTpy-QUgd996fkAZwUMFSy3aVYsJ1mpm6WfMIobvQomEpbR9oKmWofG_Vmdf7fDSHXKSLF6oXniUWMFy3ItueuN-Wbu6- -WlqZvVmj_UdGY4vIk300_fyNvyi9yV3nwfPR_NZR-DKEwXHFxTK09WXEiB_ibXFus3DkubY5kpkPhNcubzMpg6WDh0U0Rm00]--></g></svg>