<?xml version="1.0" encoding="us-ascii" standalone="no"?><svg xmlns="http://www.w3.org/2000/svg" xmlns:xlink="http://www.w3.org/1999/xlink" contentStyleType="text/css" height="992px" preserveAspectRatio="none" style="width:653px;height:992px;background:#FFFFFF;" version="1.1" viewBox="0 0 653 992" width="653px" zoomAndPan="magnify"><defs/><g><text fill="#000000" font-family="sans-serif" font-size="14" font-weight="bold" lengthAdjust="spacing" textLength="546" x="55.25" y="29.5332">Content Management System - Editor Activities - Sequence - Component level</text><rect fill="#FFFFFF" height="942.1719" style="stroke:#181818;stroke-width:0.5;" width="130" x="501.5" y="44.6094"/><text fill="#000000" font-family="sans-serif" font-size="13" font-weight="bold" lengthAdjust="spacing" textLength="107" x="513" y="58.1045">Content Sections</text><rect fill="none" height="111.7578" style="stroke:#000000;stroke-width:1.5;" width="261" x="184" y="161.2734"/><rect fill="none" height="144.1094" style="stroke:#000000;stroke-width:1.5;" width="399.5" x="184" y="333.7344"/><rect fill="none" height="65.0547" style="stroke:#000000;stroke-width:1.5;" width="223.5" x="350" y="405.7891"/><rect fill="none" height="144.1094" style="stroke:#000000;stroke-width:1.5;" width="399.5" x="184" y="538.5469"/><rect fill="none" height="65.0547" style="stroke:#000000;stroke-width:1.5;" width="223.5" x="350" y="610.6016"/><rect fill="none" height="144.1094" style="stroke:#000000;stroke-width:1.5;" width="463.5" x="184" y="743.3594"/><rect fill="none" height="65.0547" style="stroke:#000000;stroke-width:1.5;" width="287.5" x="350" y="815.4141"/><line style="stroke:#181818;stroke-width:0.5;stroke-dasharray:5.0,5.0;" x1="30" x2="30" y1="97.5703" y2="951.1719"/><line style="stroke:#181818;stroke-width:0.5;stroke-dasharray:5.0,5.0;" x1="211" x2="211" y1="97.5703" y2="951.1719"/><line style="stroke:#181818;stroke-width:0.5;stroke-dasharray:5.0,5.0;" x1="397" x2="397" y1="97.5703" y2="951.1719"/><line style="stroke:#181818;stroke-width:0.5;stroke-dasharray:5.0,5.0;" x1="534.5" x2="534.5" y1="97.5703" y2="951.1719"/><line style="stroke:#181818;stroke-width:0.5;stroke-dasharray:5.0,5.0;" x1="600.5" x2="600.5" y1="97.5703" y2="951.1719"/><rect fill="#E2E2F0" height="31.6094" rx="2.5" ry="2.5" style="stroke:#181818;stroke-width:0.5;" width="51" x="5" y="64.9609"/><text fill="#000000" font-family="sans-serif" font-size="14" lengthAdjust="spacing" textLength="37" x="12" y="86.4941">Editor</text><rect fill="#E2E2F0" height="31.6094" rx="2.5" ry="2.5" style="stroke:#181818;stroke-width:0.5;" width="51" x="5" y="950.1719"/><text fill="#000000" font-family="sans-serif" font-size="14" lengthAdjust="spacing" textLength="37" x="12" y="971.7051">Editor</text><rect fill="#E2E2F0" height="31.6094" rx="2.5" ry="2.5" style="stroke:#181818;stroke-width:0.5;" width="35" x="194" y="64.9609"/><text fill="#000000" font-family="sans-serif" font-size="14" lengthAdjust="spacing" textLength="21" x="201" y="86.4941">CM</text><rect fill="#E2E2F0" height="31.6094" rx="2.5" ry="2.5" style="stroke:#181818;stroke-width:0.5;" width="35" x="194" y="950.1719"/><text fill="#000000" font-family="sans-serif" font-size="14" lengthAdjust="spacing" textLength="21" x="201" y="971.7051">CM</text><rect fill="#E2E2F0" height="31.6094" rx="2.5" ry="2.5" style="stroke:#181818;stroke-width:0.5;" width="75" x="360" y="64.9609"/><text fill="#000000" font-family="sans-serif" font-size="14" lengthAdjust="spacing" textLength="61" x="367" y="86.4941">Database</text><rect fill="#E2E2F0" height="31.6094" rx="2.5" ry="2.5" style="stroke:#181818;stroke-width:0.5;" width="75" x="360" y="950.1719"/><text fill="#000000" font-family="sans-serif" font-size="14" lengthAdjust="spacing" textLength="61" x="367" y="971.7051">Database</text><rect fill="#E2E2F0" height="31.6094" rx="2.5" ry="2.5" style="stroke:#181818;stroke-width:0.5;" width="58" x="505.5" y="64.9609"/><text fill="#000000" font-family="sans-serif" font-size="14" lengthAdjust="spacing" textLength="44" x="512.5" y="86.4941">Movies</text><rect fill="#E2E2F0" height="31.6094" rx="2.5" ry="2.5" style="stroke:#181818;stroke-width:0.5;" width="58" x="505.5" y="950.1719"/><text fill="#000000" font-family="sans-serif" font-size="14" lengthAdjust="spacing" textLength="44" x="512.5" y="971.7051">Movies</text><rect fill="#E2E2F0" height="31.6094" rx="2.5" ry="2.5" style="stroke:#181818;stroke-width:0.5;" width="54" x="573.5" y="64.9609"/><text fill="#000000" font-family="sans-serif" font-size="14" lengthAdjust="spacing" textLength="40" x="580.5" y="86.4941">Dining</text><rect fill="#E2E2F0" height="31.6094" rx="2.5" ry="2.5" style="stroke:#181818;stroke-width:0.5;" width="54" x="573.5" y="950.1719"/><text fill="#000000" font-family="sans-serif" font-size="14" lengthAdjust="spacing" textLength="40" x="580.5" y="971.7051">Dining</text><polygon fill="#181818" points="199.5,142.2734,209.5,146.2734,199.5,150.2734,203.5,146.2734" style="stroke:#181818;stroke-width:1.0;"/><line style="stroke:#181818;stroke-width:1.0;" x1="30.5" x2="205.5" y1="146.2734" y2="146.2734"/><text fill="#000000" font-family="sans-serif" font-size="13" lengthAdjust="spacing" textLength="73" x="37.5" y="125.0654">Editor Log In</text><text fill="#000000" font-family="sans-serif" font-size="13" lengthAdjust="spacing" textLength="49" x="37.5" y="141.417">[HTTPS]</text><path d="M184,161.2734 L310,161.2734 L310,169.625 L300,179.625 L184,179.625 L184,161.2734 " fill="#EEEEEE" style="stroke:#000000;stroke-width:1.5;"/><rect fill="none" height="111.7578" style="stroke:#000000;stroke-width:1.5;" width="261" x="184" y="161.2734"/><text fill="#000000" font-family="sans-serif" font-size="13" font-weight="bold" lengthAdjust="spacing" textLength="81" x="199" y="175.7686">Editor Log In</text><polygon fill="#181818" points="385.5,214.3281,395.5,218.3281,385.5,222.3281,389.5,218.3281" style="stroke:#181818;stroke-width:1.0;"/><line style="stroke:#181818;stroke-width:1.0;" x1="211.5" x2="391.5" y1="218.3281" y2="218.3281"/><text fill="#000000" font-family="sans-serif" font-size="13" lengthAdjust="spacing" textLength="99" x="218.5" y="197.1201">Select User Data</text><text fill="#000000" font-family="sans-serif" font-size="13" lengthAdjust="spacing" textLength="83" x="218.5" y="213.4717">[TCP/IP, SQL]</text><polygon fill="#181818" points="385.5,261.0313,395.5,265.0313,385.5,269.0313,389.5,265.0313" style="stroke:#181818;stroke-width:1.0;"/><line style="stroke:#181818;stroke-width:1.0;" x1="211.5" x2="391.5" y1="265.0313" y2="265.0313"/><text fill="#000000" font-family="sans-serif" font-size="13" lengthAdjust="spacing" textLength="104" x="218.5" y="243.8232">Authenticate User</text><text fill="#000000" font-family="sans-serif" font-size="13" lengthAdjust="spacing" textLength="83" x="218.5" y="260.1748">[TCP/IP, SQL]</text><polygon fill="#181818" points="199.5,314.7344,209.5,318.7344,199.5,322.7344,203.5,318.7344" style="stroke:#181818;stroke-width:1.0;"/><line style="stroke:#181818;stroke-width:1.0;" x1="30.5" x2="205.5" y1="318.7344" y2="318.7344"/><text fill="#000000" font-family="sans-serif" font-size="13" lengthAdjust="spacing" textLength="127" x="37.5" y="297.5264">Approve Movie Review</text><text fill="#000000" font-family="sans-serif" font-size="13" lengthAdjust="spacing" textLength="128" x="37.5" y="313.8779">[HTTPS/WebSockets]</text><path d="M184,333.7344 L375,333.7344 L375,342.0859 L365,352.0859 L184,352.0859 L184,333.7344 " fill="#EEEEEE" style="stroke:#000000;stroke-width:1.5;"/><rect fill="none" height="144.1094" style="stroke:#000000;stroke-width:1.5;" width="399.5" x="184" y="333.7344"/><text fill="#000000" font-family="sans-serif" font-size="13" font-weight="bold" lengthAdjust="spacing" textLength="146" x="199" y="348.2295">Approve Movie Review</text><polygon fill="#181818" points="385.5,386.7891,395.5,390.7891,385.5,394.7891,389.5,390.7891" style="stroke:#181818;stroke-width:1.0;"/><line style="stroke:#181818;stroke-width:1.0;" x1="211.5" x2="391.5" y1="390.7891" y2="390.7891"/><text fill="#000000" font-family="sans-serif" font-size="13" lengthAdjust="spacing" textLength="127" x="218.5" y="369.5811">Approve Movie Review</text><text fill="#000000" font-family="sans-serif" font-size="13" lengthAdjust="spacing" textLength="162" x="218.5" y="385.9326">[HTTPS/WebSockets, SQL]</text><path d="M350,405.7891 L541,405.7891 L541,414.1406 L531,424.1406 L350,424.1406 L350,405.7891 " fill="#EEEEEE" style="stroke:#000000;stroke-width:1.5;"/><rect fill="none" height="65.0547" style="stroke:#000000;stroke-width:1.5;" width="223.5" x="350" y="405.7891"/><text fill="#000000" font-family="sans-serif" font-size="13" font-weight="bold" lengthAdjust="spacing" textLength="146" x="365" y="420.2842">Approve Movie Review</text><polygon fill="#181818" points="522.5,458.8438,532.5,462.8438,522.5,466.8438,526.5,462.8438" style="stroke:#181818;stroke-width:1.0;"/><line style="stroke:#181818;stroke-width:1.0;" x1="397.5" x2="528.5" y1="462.8438" y2="462.8438"/><text fill="#000000" font-family="sans-serif" font-size="13" lengthAdjust="spacing" textLength="113" x="404.5" y="441.6357">Show Movie Review</text><text fill="#000000" font-family="sans-serif" font-size="13" lengthAdjust="spacing" textLength="49" x="404.5" y="457.9873">[HTTPS]</text><polygon fill="#181818" points="199.5,519.5469,209.5,523.5469,199.5,527.5469,203.5,523.5469" style="stroke:#181818;stroke-width:1.0;"/><line style="stroke:#181818;stroke-width:1.0;" x1="30.5" x2="205.5" y1="523.5469" y2="523.5469"/><text fill="#000000" font-family="sans-serif" font-size="13" lengthAdjust="spacing" textLength="121" x="37.5" y="502.3389">Approve Actor Profile</text><text fill="#000000" font-family="sans-serif" font-size="13" lengthAdjust="spacing" textLength="128" x="37.5" y="518.6904">[HTTPS/WebSockets]</text><path d="M184,538.5469 L365,538.5469 L365,546.8984 L355,556.8984 L184,556.8984 L184,538.5469 " fill="#EEEEEE" style="stroke:#000000;stroke-width:1.5;"/><rect fill="none" height="144.1094" style="stroke:#000000;stroke-width:1.5;" width="399.5" x="184" y="538.5469"/><text fill="#000000" font-family="sans-serif" font-size="13" font-weight="bold" lengthAdjust="spacing" textLength="136" x="199" y="553.042">Approve Actor Profile</text><polygon fill="#181818" points="385.5,591.6016,395.5,595.6016,385.5,599.6016,389.5,595.6016" style="stroke:#181818;stroke-width:1.0;"/><line style="stroke:#181818;stroke-width:1.0;" x1="211.5" x2="391.5" y1="595.6016" y2="595.6016"/><text fill="#000000" font-family="sans-serif" font-size="13" lengthAdjust="spacing" textLength="121" x="218.5" y="574.3936">Approve Actor Profile</text><text fill="#000000" font-family="sans-serif" font-size="13" lengthAdjust="spacing" textLength="162" x="218.5" y="590.7451">[HTTPS/WebSockets, SQL]</text><path d="M350,610.6016 L531,610.6016 L531,618.9531 L521,628.9531 L350,628.9531 L350,610.6016 " fill="#EEEEEE" style="stroke:#000000;stroke-width:1.5;"/><rect fill="none" height="65.0547" style="stroke:#000000;stroke-width:1.5;" width="223.5" x="350" y="610.6016"/><text fill="#000000" font-family="sans-serif" font-size="13" font-weight="bold" lengthAdjust="spacing" textLength="136" x="365" y="625.0967">Approve Actor Profile</text><polygon fill="#181818" points="522.5,663.6563,532.5,667.6563,522.5,671.6563,526.5,667.6563" style="stroke:#181818;stroke-width:1.0;"/><line style="stroke:#181818;stroke-width:1.0;" x1="397.5" x2="528.5" y1="667.6563" y2="667.6563"/><text fill="#000000" font-family="sans-serif" font-size="13" lengthAdjust="spacing" textLength="107" x="404.5" y="646.4482">Show Actor Profile</text><text fill="#000000" font-family="sans-serif" font-size="13" lengthAdjust="spacing" textLength="49" x="404.5" y="662.7998">[HTTPS]</text><polygon fill="#181818" points="199.5,724.3594,209.5,728.3594,199.5,732.3594,203.5,728.3594" style="stroke:#181818;stroke-width:1.0;"/><line style="stroke:#181818;stroke-width:1.0;" x1="30.5" x2="205.5" y1="728.3594" y2="728.3594"/><text fill="#000000" font-family="sans-serif" font-size="13" lengthAdjust="spacing" textLength="157" x="37.5" y="707.1514">Approve Restaurant Review</text><text fill="#000000" font-family="sans-serif" font-size="13" lengthAdjust="spacing" textLength="128" x="37.5" y="723.5029">[HTTPS/WebSockets]</text><path d="M184,743.3594 L405,743.3594 L405,751.7109 L395,761.7109 L184,761.7109 L184,743.3594 " fill="#EEEEEE" style="stroke:#000000;stroke-width:1.5;"/><rect fill="none" height="144.1094" style="stroke:#000000;stroke-width:1.5;" width="463.5" x="184" y="743.3594"/><text fill="#000000" font-family="sans-serif" font-size="13" font-weight="bold" lengthAdjust="spacing" textLength="176" x="199" y="757.8545">Approve Restaurant Review</text><polygon fill="#181818" points="385.5,796.4141,395.5,800.4141,385.5,804.4141,389.5,800.4141" style="stroke:#181818;stroke-width:1.0;"/><line style="stroke:#181818;stroke-width:1.0;" x1="211.5" x2="391.5" y1="800.4141" y2="800.4141"/><text fill="#000000" font-family="sans-serif" font-size="13" lengthAdjust="spacing" textLength="157" x="218.5" y="779.2061">Approve Restaurant Review</text><text fill="#000000" font-family="sans-serif" font-size="13" lengthAdjust="spacing" textLength="162" x="218.5" y="795.5576">[HTTPS/WebSockets, SQL]</text><path d="M350,815.4141 L571,815.4141 L571,823.7656 L561,833.7656 L350,833.7656 L350,815.4141 " fill="#EEEEEE" style="stroke:#000000;stroke-width:1.5;"/><rect fill="none" height="65.0547" style="stroke:#000000;stroke-width:1.5;" width="287.5" x="350" y="815.4141"/><text fill="#000000" font-family="sans-serif" font-size="13" font-weight="bold" lengthAdjust="spacing" textLength="176" x="365" y="829.9092">Approve Restaurant Review</text><polygon fill="#181818" points="588.5,868.4688,598.5,872.4688,588.5,876.4688,592.5,872.4688" style="stroke:#181818;stroke-width:1.0;"/><line style="stroke:#181818;stroke-width:1.0;" x1="397.5" x2="594.5" y1="872.4688" y2="872.4688"/><text fill="#000000" font-family="sans-serif" font-size="13" lengthAdjust="spacing" textLength="143" x="404.5" y="851.2607">Show Restaurant Review</text><text fill="#000000" font-family="sans-serif" font-size="13" lengthAdjust="spacing" textLength="49" x="404.5" y="867.6123">[HTTPS]</text><polygon fill="#181818" points="199.5,929.1719,209.5,933.1719,199.5,937.1719,203.5,933.1719" style="stroke:#181818;stroke-width:1.0;"/><line style="stroke:#181818;stroke-width:1.0;" x1="30.5" x2="205.5" y1="933.1719" y2="933.1719"/><text fill="#000000" font-family="sans-serif" font-size="13" lengthAdjust="spacing" textLength="84" x="37.5" y="911.9639">Editor Log Out</text><text fill="#000000" font-family="sans-serif" font-size="13" lengthAdjust="spacing" textLength="49" x="37.5" y="928.3154">[HTTPS]</text><!--SRC=[lLL1JiCm4Bpx5QjoXN3dW1G592greZH57823csvRYzGEzYQ5t-FKc188a5GaELIkixipdfd892X5Y9Gab0HZBlaAD-KoVZM46pY1ouKWfI5CI1I211gx5-DpZZ91kupK9bEox4Ynm9InZ6iIYSYutHguvW5mup7s40uXi8ELDe6hh7P7uryxOxMaBTVe_feW6bVRBpZnEJVOQeXlOcokNc0GBZP23k3eRYq86TZ7xNl5OhIwA6ag9HKMOrLOqLfns846PJKN4gquxuqUBFWGtGHk_7VO2o65N7K6wyOpb0kmUh3zWZNo6KxEMzWAPpw58xM2eNoGzrUpsIH-P2kjygpwahMOsuA5puNb4cDg5O5RWnhARKjd5arEXvDZY6z6ZzqJ27DQsqAHSC8TZQyCh1iT-H1ccLO5mYvsC4Nxk_LsdDxXF5R94vBnpjILzw1FCvBlOlq3qm_i5dpRV-HbzDPgMtiivtdtlk-cm4IhfKYnWV6L-lwS_ujchVM7SUtN-zg3zMN-50tnN9VtI-Cl_rjFVo5eGhSs28TpxZeCxjhrOVZnW5q7ujE5UvtJ7fMz0G00]--></g></svg>