<?xml version="1.0" encoding="us-ascii" standalone="no"?><svg xmlns="http://www.w3.org/2000/svg" xmlns:xlink="http://www.w3.org/1999/xlink" contentStyleType="text/css" height="917px" preserveAspectRatio="none" style="width:617px;height:917px;background:#FFFFFF;" version="1.1" viewBox="0 0 617 917" width="617px" zoomAndPan="magnify"><defs/><g><text fill="#000000" font-family="sans-serif" font-size="14" font-weight="bold" lengthAdjust="spacing" textLength="520" x="50" y="29.5332">Content Management System - Editor Activities - Sequence - Context level</text><rect fill="none" height="111.7578" style="stroke:#000000;stroke-width:1.5;" width="261" x="184" y="139.9219"/><rect fill="none" height="127.7578" style="stroke:#000000;stroke-width:1.5;" width="427" x="184" y="312.3828"/><rect fill="none" height="48.7031" style="stroke:#000000;stroke-width:1.5;" width="251" x="350" y="384.4375"/><rect fill="none" height="127.7578" style="stroke:#000000;stroke-width:1.5;" width="427" x="184" y="500.8438"/><rect fill="none" height="48.7031" style="stroke:#000000;stroke-width:1.5;" width="251" x="350" y="572.8984"/><rect fill="none" height="127.7578" style="stroke:#000000;stroke-width:1.5;" width="427" x="184" y="689.3047"/><rect fill="none" height="48.7031" style="stroke:#000000;stroke-width:1.5;" width="251" x="350" y="761.3594"/><line style="stroke:#181818;stroke-width:0.5;stroke-dasharray:5.0,5.0;" x1="30" x2="30" y1="76.2188" y2="880.7656"/><line style="stroke:#181818;stroke-width:0.5;stroke-dasharray:5.0,5.0;" x1="211" x2="211" y1="76.2188" y2="880.7656"/><line style="stroke:#181818;stroke-width:0.5;stroke-dasharray:5.0,5.0;" x1="397" x2="397" y1="76.2188" y2="880.7656"/><line style="stroke:#181818;stroke-width:0.5;stroke-dasharray:5.0,5.0;" x1="564" x2="564" y1="76.2188" y2="880.7656"/><rect fill="#E2E2F0" height="31.6094" rx="2.5" ry="2.5" style="stroke:#181818;stroke-width:0.5;" width="51" x="5" y="43.6094"/><text fill="#000000" font-family="sans-serif" font-size="14" lengthAdjust="spacing" textLength="37" x="12" y="65.1426">Editor</text><rect fill="#E2E2F0" height="31.6094" rx="2.5" ry="2.5" style="stroke:#181818;stroke-width:0.5;" width="51" x="5" y="879.7656"/><text fill="#000000" font-family="sans-serif" font-size="14" lengthAdjust="spacing" textLength="37" x="12" y="901.2988">Editor</text><rect fill="#E2E2F0" height="31.6094" rx="2.5" ry="2.5" style="stroke:#181818;stroke-width:0.5;" width="35" x="194" y="43.6094"/><text fill="#000000" font-family="sans-serif" font-size="14" lengthAdjust="spacing" textLength="21" x="201" y="65.1426">CM</text><rect fill="#E2E2F0" height="31.6094" rx="2.5" ry="2.5" style="stroke:#181818;stroke-width:0.5;" width="35" x="194" y="879.7656"/><text fill="#000000" font-family="sans-serif" font-size="14" lengthAdjust="spacing" textLength="21" x="201" y="901.2988">CM</text><rect fill="#E2E2F0" height="31.6094" rx="2.5" ry="2.5" style="stroke:#181818;stroke-width:0.5;" width="75" x="360" y="43.6094"/><text fill="#000000" font-family="sans-serif" font-size="14" lengthAdjust="spacing" textLength="61" x="367" y="65.1426">Database</text><rect fill="#E2E2F0" height="31.6094" rx="2.5" ry="2.5" style="stroke:#181818;stroke-width:0.5;" width="75" x="360" y="879.7656"/><text fill="#000000" font-family="sans-serif" font-size="14" lengthAdjust="spacing" textLength="61" x="367" y="901.2988">Database</text><rect fill="#E2E2F0" height="31.6094" rx="2.5" ry="2.5" style="stroke:#181818;stroke-width:0.5;" width="53" x="538" y="43.6094"/><text fill="#000000" font-family="sans-serif" font-size="14" lengthAdjust="spacing" textLength="39" x="545" y="65.1426">Admin</text><rect fill="#E2E2F0" height="31.6094" rx="2.5" ry="2.5" style="stroke:#181818;stroke-width:0.5;" width="53" x="538" y="879.7656"/><text fill="#000000" font-family="sans-serif" font-size="14" lengthAdjust="spacing" textLength="39" x="545" y="901.2988">Admin</text><polygon fill="#181818" points="199.5,120.9219,209.5,124.9219,199.5,128.9219,203.5,124.9219" style="stroke:#181818;stroke-width:1.0;"/><line style="stroke:#181818;stroke-width:1.0;" x1="30.5" x2="205.5" y1="124.9219" y2="124.9219"/><text fill="#000000" font-family="sans-serif" font-size="13" lengthAdjust="spacing" textLength="73" x="37.5" y="103.7139">Editor Log In</text><text fill="#000000" font-family="sans-serif" font-size="13" lengthAdjust="spacing" textLength="49" x="37.5" y="120.0654">[HTTPS]</text><path d="M184,139.9219 L310,139.9219 L310,148.2734 L300,158.2734 L184,158.2734 L184,139.9219 " fill="#EEEEEE" style="stroke:#000000;stroke-width:1.5;"/><rect fill="none" height="111.7578" style="stroke:#000000;stroke-width:1.5;" width="261" x="184" y="139.9219"/><text fill="#000000" font-family="sans-serif" font-size="13" font-weight="bold" lengthAdjust="spacing" textLength="81" x="199" y="154.417">Editor Log In</text><polygon fill="#181818" points="385.5,192.9766,395.5,196.9766,385.5,200.9766,389.5,196.9766" style="stroke:#181818;stroke-width:1.0;"/><line style="stroke:#181818;stroke-width:1.0;" x1="211.5" x2="391.5" y1="196.9766" y2="196.9766"/><text fill="#000000" font-family="sans-serif" font-size="13" lengthAdjust="spacing" textLength="99" x="218.5" y="175.7686">Select User Data</text><text fill="#000000" font-family="sans-serif" font-size="13" lengthAdjust="spacing" textLength="83" x="218.5" y="192.1201">[TCP/IP, SQL]</text><polygon fill="#181818" points="385.5,239.6797,395.5,243.6797,385.5,247.6797,389.5,243.6797" style="stroke:#181818;stroke-width:1.0;"/><line style="stroke:#181818;stroke-width:1.0;" x1="211.5" x2="391.5" y1="243.6797" y2="243.6797"/><text fill="#000000" font-family="sans-serif" font-size="13" lengthAdjust="spacing" textLength="104" x="218.5" y="222.4717">Authenticate User</text><text fill="#000000" font-family="sans-serif" font-size="13" lengthAdjust="spacing" textLength="83" x="218.5" y="238.8232">[TCP/IP, SQL]</text><polygon fill="#181818" points="199.5,293.3828,209.5,297.3828,199.5,301.3828,203.5,297.3828" style="stroke:#181818;stroke-width:1.0;"/><line style="stroke:#181818;stroke-width:1.0;" x1="30.5" x2="205.5" y1="297.3828" y2="297.3828"/><text fill="#000000" font-family="sans-serif" font-size="13" lengthAdjust="spacing" textLength="127" x="37.5" y="276.1748">Approve Movie Review</text><text fill="#000000" font-family="sans-serif" font-size="13" lengthAdjust="spacing" textLength="128" x="37.5" y="292.5264">[HTTPS/WebSockets]</text><path d="M184,312.3828 L375,312.3828 L375,320.7344 L365,330.7344 L184,330.7344 L184,312.3828 " fill="#EEEEEE" style="stroke:#000000;stroke-width:1.5;"/><rect fill="none" height="127.7578" style="stroke:#000000;stroke-width:1.5;" width="427" x="184" y="312.3828"/><text fill="#000000" font-family="sans-serif" font-size="13" font-weight="bold" lengthAdjust="spacing" textLength="146" x="199" y="326.8779">Approve Movie Review</text><polygon fill="#181818" points="385.5,365.4375,395.5,369.4375,385.5,373.4375,389.5,369.4375" style="stroke:#181818;stroke-width:1.0;"/><line style="stroke:#181818;stroke-width:1.0;" x1="211.5" x2="391.5" y1="369.4375" y2="369.4375"/><text fill="#000000" font-family="sans-serif" font-size="13" lengthAdjust="spacing" textLength="127" x="218.5" y="348.2295">Approve Movie Review</text><text fill="#000000" font-family="sans-serif" font-size="13" lengthAdjust="spacing" textLength="162" x="218.5" y="364.5811">[HTTPS/WebSockets, SQL]</text><path d="M350,384.4375 L541,384.4375 L541,392.7891 L531,402.7891 L350,402.7891 L350,384.4375 " fill="#EEEEEE" style="stroke:#000000;stroke-width:1.5;"/><rect fill="none" height="48.7031" style="stroke:#000000;stroke-width:1.5;" width="251" x="350" y="384.4375"/><text fill="#000000" font-family="sans-serif" font-size="13" font-weight="bold" lengthAdjust="spacing" textLength="146" x="365" y="398.9326">Approve Movie Review</text><polygon fill="#181818" points="552.5,421.1406,562.5,425.1406,552.5,429.1406,556.5,425.1406" style="stroke:#181818;stroke-width:1.0;"/><line style="stroke:#181818;stroke-width:1.0;" x1="397.5" x2="558.5" y1="425.1406" y2="425.1406"/><text fill="#000000" font-family="sans-serif" font-size="13" lengthAdjust="spacing" textLength="113" x="404.5" y="420.2842">Show Movie Review</text><polygon fill="#181818" points="199.5,481.8438,209.5,485.8438,199.5,489.8438,203.5,485.8438" style="stroke:#181818;stroke-width:1.0;"/><line style="stroke:#181818;stroke-width:1.0;" x1="30.5" x2="205.5" y1="485.8438" y2="485.8438"/><text fill="#000000" font-family="sans-serif" font-size="13" lengthAdjust="spacing" textLength="121" x="37.5" y="464.6357">Approve Actor Profile</text><text fill="#000000" font-family="sans-serif" font-size="13" lengthAdjust="spacing" textLength="128" x="37.5" y="480.9873">[HTTPS/WebSockets]</text><path d="M184,500.8438 L365,500.8438 L365,509.1953 L355,519.1953 L184,519.1953 L184,500.8438 " fill="#EEEEEE" style="stroke:#000000;stroke-width:1.5;"/><rect fill="none" height="127.7578" style="stroke:#000000;stroke-width:1.5;" width="427" x="184" y="500.8438"/><text fill="#000000" font-family="sans-serif" font-size="13" font-weight="bold" lengthAdjust="spacing" textLength="136" x="199" y="515.3389">Approve Actor Profile</text><polygon fill="#181818" points="385.5,553.8984,395.5,557.8984,385.5,561.8984,389.5,557.8984" style="stroke:#181818;stroke-width:1.0;"/><line style="stroke:#181818;stroke-width:1.0;" x1="211.5" x2="391.5" y1="557.8984" y2="557.8984"/><text fill="#000000" font-family="sans-serif" font-size="13" lengthAdjust="spacing" textLength="121" x="218.5" y="536.6904">Approve Actor Profile</text><text fill="#000000" font-family="sans-serif" font-size="13" lengthAdjust="spacing" textLength="162" x="218.5" y="553.042">[HTTPS/WebSockets, SQL]</text><path d="M350,572.8984 L531,572.8984 L531,581.25 L521,591.25 L350,591.25 L350,572.8984 " fill="#EEEEEE" style="stroke:#000000;stroke-width:1.5;"/><rect fill="none" height="48.7031" style="stroke:#000000;stroke-width:1.5;" width="251" x="350" y="572.8984"/><text fill="#000000" font-family="sans-serif" font-size="13" font-weight="bold" lengthAdjust="spacing" textLength="136" x="365" y="587.3936">Approve Actor Profile</text><polygon fill="#181818" points="552.5,609.6016,562.5,613.6016,552.5,617.6016,556.5,613.6016" style="stroke:#181818;stroke-width:1.0;"/><line style="stroke:#181818;stroke-width:1.0;" x1="397.5" x2="558.5" y1="613.6016" y2="613.6016"/><text fill="#000000" font-family="sans-serif" font-size="13" lengthAdjust="spacing" textLength="107" x="404.5" y="608.7451">Show Actor Profile</text><polygon fill="#181818" points="199.5,670.3047,209.5,674.3047,199.5,678.3047,203.5,674.3047" style="stroke:#181818;stroke-width:1.0;"/><line style="stroke:#181818;stroke-width:1.0;" x1="30.5" x2="205.5" y1="674.3047" y2="674.3047"/><text fill="#000000" font-family="sans-serif" font-size="13" lengthAdjust="spacing" textLength="157" x="37.5" y="653.0967">Approve Restaurant Review</text><text fill="#000000" font-family="sans-serif" font-size="13" lengthAdjust="spacing" textLength="128" x="37.5" y="669.4482">[HTTPS/WebSockets]</text><path d="M184,689.3047 L405,689.3047 L405,697.6563 L395,707.6563 L184,707.6563 L184,689.3047 " fill="#EEEEEE" style="stroke:#000000;stroke-width:1.5;"/><rect fill="none" height="127.7578" style="stroke:#000000;stroke-width:1.5;" width="427" x="184" y="689.3047"/><text fill="#000000" font-family="sans-serif" font-size="13" font-weight="bold" lengthAdjust="spacing" textLength="176" x="199" y="703.7998">Approve Restaurant Review</text><polygon fill="#181818" points="385.5,742.3594,395.5,746.3594,385.5,750.3594,389.5,746.3594" style="stroke:#181818;stroke-width:1.0;"/><line style="stroke:#181818;stroke-width:1.0;" x1="211.5" x2="391.5" y1="746.3594" y2="746.3594"/><text fill="#000000" font-family="sans-serif" font-size="13" lengthAdjust="spacing" textLength="157" x="218.5" y="725.1514">Approve Restaurant Review</text><text fill="#000000" font-family="sans-serif" font-size="13" lengthAdjust="spacing" textLength="162" x="218.5" y="741.5029">[HTTPS/WebSockets, SQL]</text><path d="M350,761.3594 L571,761.3594 L571,769.7109 L561,779.7109 L350,779.7109 L350,761.3594 " fill="#EEEEEE" style="stroke:#000000;stroke-width:1.5;"/><rect fill="none" height="48.7031" style="stroke:#000000;stroke-width:1.5;" width="251" x="350" y="761.3594"/><text fill="#000000" font-family="sans-serif" font-size="13" font-weight="bold" lengthAdjust="spacing" textLength="176" x="365" y="775.8545">Approve Restaurant Review</text><polygon fill="#181818" points="552.5,798.0625,562.5,802.0625,552.5,806.0625,556.5,802.0625" style="stroke:#181818;stroke-width:1.0;"/><line style="stroke:#181818;stroke-width:1.0;" x1="397.5" x2="558.5" y1="802.0625" y2="802.0625"/><text fill="#000000" font-family="sans-serif" font-size="13" lengthAdjust="spacing" textLength="143" x="404.5" y="797.2061">Show Restaurant Review</text><polygon fill="#181818" points="199.5,858.7656,209.5,862.7656,199.5,866.7656,203.5,862.7656" style="stroke:#181818;stroke-width:1.0;"/><line style="stroke:#181818;stroke-width:1.0;" x1="30.5" x2="205.5" y1="862.7656" y2="862.7656"/><text fill="#000000" font-family="sans-serif" font-size="13" lengthAdjust="spacing" textLength="84" x="37.5" y="841.5576">Editor Log Out</text><text fill="#000000" font-family="sans-serif" font-size="13" lengthAdjust="spacing" textLength="49" x="37.5" y="857.9092">[HTTPS]</text><!--SRC=[lPN1JuCm5CRl_IjUTdRRtOC9GHENZ8XZneFkqB6thP6rs3wO_lSM42UEA6p2XPJolkzzxOy22OeGN2K99O779T_WBXi6xuPm1qEuMGbI6foGH2f8eB5p0RucA4EqmrpwHX1XYX5ZCTSaGX5pQp4ef0FWfknmQ53uZwojqcPKL5RLhlUhCb1hsdEDnQqPkLvLVis9Bxd1LYQbg6hbh7P2jlB95OmrMZKChrei4YvB8bErWObyba-tyxaVBDX6goIkFcGjV5kaA7V9PWammf3WmQ26RDh6cRl-UE9VG70_NNGVm4beQmj5o0dp63yJe5nrnC69OwrI14-b0c66zhelSOmVSHcey0N9b6JgodlOdsOXFpVh7v9-zMwHDpyksTkqLVjgrunUzmHp5_2rMei86o2irFV7yA-OjH1FotesnMhRVZ3Eq11FTFRDRdmQZpJzuMmIjnRfwPdFndhSkbkqttvdTmaTVdRi0m00]--></g></svg>