<?xml version="1.0" encoding="us-ascii" standalone="no"?><svg xmlns="http://www.w3.org/2000/svg" xmlns:xlink="http://www.w3.org/1999/xlink" contentStyleType="text/css" height="943px" preserveAspectRatio="none" style="width:651px;height:943px;background:#FFFFFF;" version="1.1" viewBox="0 0 651 943" width="651px" zoomAndPan="magnify"><defs/><g><text fill="#000000" font-family="sans-serif" font-size="14" font-weight="bold" lengthAdjust="spacing" textLength="534" x="60.25" y="29.5332">Content Management System - Editor Activities - Sequence - Container level</text><rect fill="#FFFFFF" height="893.1172" style="stroke:#181818;stroke-width:0.5;" width="130" x="499.5" y="44.6094"/><text fill="#000000" font-family="sans-serif" font-size="13" font-weight="bold" lengthAdjust="spacing" textLength="41" x="544" y="58.1045">Admin</text><rect fill="none" height="111.7578" style="stroke:#000000;stroke-width:1.5;" width="261" x="184" y="161.2734"/><rect fill="none" height="127.7578" style="stroke:#000000;stroke-width:1.5;" width="461.5" x="184" y="333.7344"/><rect fill="none" height="48.7031" style="stroke:#000000;stroke-width:1.5;" width="285.5" x="350" y="405.7891"/><rect fill="none" height="127.7578" style="stroke:#000000;stroke-width:1.5;" width="461.5" x="184" y="522.1953"/><rect fill="none" height="48.7031" style="stroke:#000000;stroke-width:1.5;" width="285.5" x="350" y="594.25"/><rect fill="none" height="127.7578" style="stroke:#000000;stroke-width:1.5;" width="461.5" x="184" y="710.6563"/><rect fill="none" height="48.7031" style="stroke:#000000;stroke-width:1.5;" width="285.5" x="350" y="782.7109"/><line style="stroke:#181818;stroke-width:0.5;stroke-dasharray:5.0,5.0;" x1="30" x2="30" y1="97.5703" y2="902.1172"/><line style="stroke:#181818;stroke-width:0.5;stroke-dasharray:5.0,5.0;" x1="211" x2="211" y1="97.5703" y2="902.1172"/><line style="stroke:#181818;stroke-width:0.5;stroke-dasharray:5.0,5.0;" x1="397" x2="397" y1="97.5703" y2="902.1172"/><line style="stroke:#181818;stroke-width:0.5;stroke-dasharray:5.0,5.0;" x1="564.5" x2="564.5" y1="97.5703" y2="902.1172"/><rect fill="#E2E2F0" height="31.6094" rx="2.5" ry="2.5" style="stroke:#181818;stroke-width:0.5;" width="51" x="5" y="64.9609"/><text fill="#000000" font-family="sans-serif" font-size="14" lengthAdjust="spacing" textLength="37" x="12" y="86.4941">Editor</text><rect fill="#E2E2F0" height="31.6094" rx="2.5" ry="2.5" style="stroke:#181818;stroke-width:0.5;" width="51" x="5" y="901.1172"/><text fill="#000000" font-family="sans-serif" font-size="14" lengthAdjust="spacing" textLength="37" x="12" y="922.6504">Editor</text><rect fill="#E2E2F0" height="31.6094" rx="2.5" ry="2.5" style="stroke:#181818;stroke-width:0.5;" width="35" x="194" y="64.9609"/><text fill="#000000" font-family="sans-serif" font-size="14" lengthAdjust="spacing" textLength="21" x="201" y="86.4941">CM</text><rect fill="#E2E2F0" height="31.6094" rx="2.5" ry="2.5" style="stroke:#181818;stroke-width:0.5;" width="35" x="194" y="901.1172"/><text fill="#000000" font-family="sans-serif" font-size="14" lengthAdjust="spacing" textLength="21" x="201" y="922.6504">CM</text><rect fill="#E2E2F0" height="31.6094" rx="2.5" ry="2.5" style="stroke:#181818;stroke-width:0.5;" width="75" x="360" y="64.9609"/><text fill="#000000" font-family="sans-serif" font-size="14" lengthAdjust="spacing" textLength="61" x="367" y="86.4941">Database</text><rect fill="#E2E2F0" height="31.6094" rx="2.5" ry="2.5" style="stroke:#181818;stroke-width:0.5;" width="75" x="360" y="901.1172"/><text fill="#000000" font-family="sans-serif" font-size="14" lengthAdjust="spacing" textLength="61" x="367" y="922.6504">Database</text><rect fill="#E2E2F0" height="31.6094" rx="2.5" ry="2.5" style="stroke:#181818;stroke-width:0.5;" width="122" x="503.5" y="64.9609"/><text fill="#000000" font-family="sans-serif" font-size="14" lengthAdjust="spacing" textLength="108" x="510.5" y="86.4941">Content Sections</text><rect fill="#E2E2F0" height="31.6094" rx="2.5" ry="2.5" style="stroke:#181818;stroke-width:0.5;" width="122" x="503.5" y="901.1172"/><text fill="#000000" font-family="sans-serif" font-size="14" lengthAdjust="spacing" textLength="108" x="510.5" y="922.6504">Content Sections</text><polygon fill="#181818" points="199.5,142.2734,209.5,146.2734,199.5,150.2734,203.5,146.2734" style="stroke:#181818;stroke-width:1.0;"/><line style="stroke:#181818;stroke-width:1.0;" x1="30.5" x2="205.5" y1="146.2734" y2="146.2734"/><text fill="#000000" font-family="sans-serif" font-size="13" lengthAdjust="spacing" textLength="73" x="37.5" y="125.0654">Editor Log In</text><text fill="#000000" font-family="sans-serif" font-size="13" lengthAdjust="spacing" textLength="49" x="37.5" y="141.417">[HTTPS]</text><path d="M184,161.2734 L310,161.2734 L310,169.625 L300,179.625 L184,179.625 L184,161.2734 " fill="#EEEEEE" style="stroke:#000000;stroke-width:1.5;"/><rect fill="none" height="111.7578" style="stroke:#000000;stroke-width:1.5;" width="261" x="184" y="161.2734"/><text fill="#000000" font-family="sans-serif" font-size="13" font-weight="bold" lengthAdjust="spacing" textLength="81" x="199" y="175.7686">Editor Log In</text><polygon fill="#181818" points="385.5,214.3281,395.5,218.3281,385.5,222.3281,389.5,218.3281" style="stroke:#181818;stroke-width:1.0;"/><line style="stroke:#181818;stroke-width:1.0;" x1="211.5" x2="391.5" y1="218.3281" y2="218.3281"/><text fill="#000000" font-family="sans-serif" font-size="13" lengthAdjust="spacing" textLength="99" x="218.5" y="197.1201">Select User Data</text><text fill="#000000" font-family="sans-serif" font-size="13" lengthAdjust="spacing" textLength="83" x="218.5" y="213.4717">[TCP/IP, SQL]</text><polygon fill="#181818" points="385.5,261.0313,395.5,265.0313,385.5,269.0313,389.5,265.0313" style="stroke:#181818;stroke-width:1.0;"/><line style="stroke:#181818;stroke-width:1.0;" x1="211.5" x2="391.5" y1="265.0313" y2="265.0313"/><text fill="#000000" font-family="sans-serif" font-size="13" lengthAdjust="spacing" textLength="104" x="218.5" y="243.8232">Authenticate User</text><text fill="#000000" font-family="sans-serif" font-size="13" lengthAdjust="spacing" textLength="83" x="218.5" y="260.1748">[TCP/IP, SQL]</text><polygon fill="#181818" points="199.5,314.7344,209.5,318.7344,199.5,322.7344,203.5,318.7344" style="stroke:#181818;stroke-width:1.0;"/><line style="stroke:#181818;stroke-width:1.0;" x1="30.5" x2="205.5" y1="318.7344" y2="318.7344"/><text fill="#000000" font-family="sans-serif" font-size="13" lengthAdjust="spacing" textLength="127" x="37.5" y="297.5264">Approve Movie Review</text><text fill="#000000" font-family="sans-serif" font-size="13" lengthAdjust="spacing" textLength="128" x="37.5" y="313.8779">[HTTPS/WebSockets]</text><path d="M184,333.7344 L375,333.7344 L375,342.0859 L365,352.0859 L184,352.0859 L184,333.7344 " fill="#EEEEEE" style="stroke:#000000;stroke-width:1.5;"/><rect fill="none" height="127.7578" style="stroke:#000000;stroke-width:1.5;" width="461.5" x="184" y="333.7344"/><text fill="#000000" font-family="sans-serif" font-size="13" font-weight="bold" lengthAdjust="spacing" textLength="146" x="199" y="348.2295">Approve Movie Review</text><polygon fill="#181818" points="385.5,386.7891,395.5,390.7891,385.5,394.7891,389.5,390.7891" style="stroke:#181818;stroke-width:1.0;"/><line style="stroke:#181818;stroke-width:1.0;" x1="211.5" x2="391.5" y1="390.7891" y2="390.7891"/><text fill="#000000" font-family="sans-serif" font-size="13" lengthAdjust="spacing" textLength="127" x="218.5" y="369.5811">Approve Movie Review</text><text fill="#000000" font-family="sans-serif" font-size="13" lengthAdjust="spacing" textLength="162" x="218.5" y="385.9326">[HTTPS/WebSockets, SQL]</text><path d="M350,405.7891 L541,405.7891 L541,414.1406 L531,424.1406 L350,424.1406 L350,405.7891 " fill="#EEEEEE" style="stroke:#000000;stroke-width:1.5;"/><rect fill="none" height="48.7031" style="stroke:#000000;stroke-width:1.5;" width="285.5" x="350" y="405.7891"/><text fill="#000000" font-family="sans-serif" font-size="13" font-weight="bold" lengthAdjust="spacing" textLength="146" x="365" y="420.2842">Approve Movie Review</text><polygon fill="#181818" points="552.5,442.4922,562.5,446.4922,552.5,450.4922,556.5,446.4922" style="stroke:#181818;stroke-width:1.0;"/><line style="stroke:#181818;stroke-width:1.0;" x1="397.5" x2="558.5" y1="446.4922" y2="446.4922"/><text fill="#000000" font-family="sans-serif" font-size="13" lengthAdjust="spacing" textLength="113" x="404.5" y="441.6357">Show Movie Review</text><polygon fill="#181818" points="199.5,503.1953,209.5,507.1953,199.5,511.1953,203.5,507.1953" style="stroke:#181818;stroke-width:1.0;"/><line style="stroke:#181818;stroke-width:1.0;" x1="30.5" x2="205.5" y1="507.1953" y2="507.1953"/><text fill="#000000" font-family="sans-serif" font-size="13" lengthAdjust="spacing" textLength="121" x="37.5" y="485.9873">Approve Actor Profile</text><text fill="#000000" font-family="sans-serif" font-size="13" lengthAdjust="spacing" textLength="128" x="37.5" y="502.3389">[HTTPS/WebSockets]</text><path d="M184,522.1953 L365,522.1953 L365,530.5469 L355,540.5469 L184,540.5469 L184,522.1953 " fill="#EEEEEE" style="stroke:#000000;stroke-width:1.5;"/><rect fill="none" height="127.7578" style="stroke:#000000;stroke-width:1.5;" width="461.5" x="184" y="522.1953"/><text fill="#000000" font-family="sans-serif" font-size="13" font-weight="bold" lengthAdjust="spacing" textLength="136" x="199" y="536.6904">Approve Actor Profile</text><polygon fill="#181818" points="385.5,575.25,395.5,579.25,385.5,583.25,389.5,579.25" style="stroke:#181818;stroke-width:1.0;"/><line style="stroke:#181818;stroke-width:1.0;" x1="211.5" x2="391.5" y1="579.25" y2="579.25"/><text fill="#000000" font-family="sans-serif" font-size="13" lengthAdjust="spacing" textLength="121" x="218.5" y="558.042">Approve Actor Profile</text><text fill="#000000" font-family="sans-serif" font-size="13" lengthAdjust="spacing" textLength="162" x="218.5" y="574.3936">[HTTPS/WebSockets, SQL]</text><path d="M350,594.25 L531,594.25 L531,602.6016 L521,612.6016 L350,612.6016 L350,594.25 " fill="#EEEEEE" style="stroke:#000000;stroke-width:1.5;"/><rect fill="none" height="48.7031" style="stroke:#000000;stroke-width:1.5;" width="285.5" x="350" y="594.25"/><text fill="#000000" font-family="sans-serif" font-size="13" font-weight="bold" lengthAdjust="spacing" textLength="136" x="365" y="608.7451">Approve Actor Profile</text><polygon fill="#181818" points="552.5,630.9531,562.5,634.9531,552.5,638.9531,556.5,634.9531" style="stroke:#181818;stroke-width:1.0;"/><line style="stroke:#181818;stroke-width:1.0;" x1="397.5" x2="558.5" y1="634.9531" y2="634.9531"/><text fill="#000000" font-family="sans-serif" font-size="13" lengthAdjust="spacing" textLength="107" x="404.5" y="630.0967">Show Actor Profile</text><polygon fill="#181818" points="199.5,691.6563,209.5,695.6563,199.5,699.6563,203.5,695.6563" style="stroke:#181818;stroke-width:1.0;"/><line style="stroke:#181818;stroke-width:1.0;" x1="30.5" x2="205.5" y1="695.6563" y2="695.6563"/><text fill="#000000" font-family="sans-serif" font-size="13" lengthAdjust="spacing" textLength="157" x="37.5" y="674.4482">Approve Restaurant Review</text><text fill="#000000" font-family="sans-serif" font-size="13" lengthAdjust="spacing" textLength="128" x="37.5" y="690.7998">[HTTPS/WebSockets]</text><path d="M184,710.6563 L405,710.6563 L405,719.0078 L395,729.0078 L184,729.0078 L184,710.6563 " fill="#EEEEEE" style="stroke:#000000;stroke-width:1.5;"/><rect fill="none" height="127.7578" style="stroke:#000000;stroke-width:1.5;" width="461.5" x="184" y="710.6563"/><text fill="#000000" font-family="sans-serif" font-size="13" font-weight="bold" lengthAdjust="spacing" textLength="176" x="199" y="725.1514">Approve Restaurant Review</text><polygon fill="#181818" points="385.5,763.7109,395.5,767.7109,385.5,771.7109,389.5,767.7109" style="stroke:#181818;stroke-width:1.0;"/><line style="stroke:#181818;stroke-width:1.0;" x1="211.5" x2="391.5" y1="767.7109" y2="767.7109"/><text fill="#000000" font-family="sans-serif" font-size="13" lengthAdjust="spacing" textLength="157" x="218.5" y="746.5029">Approve Restaurant Review</text><text fill="#000000" font-family="sans-serif" font-size="13" lengthAdjust="spacing" textLength="162" x="218.5" y="762.8545">[HTTPS/WebSockets, SQL]</text><path d="M350,782.7109 L571,782.7109 L571,791.0625 L561,801.0625 L350,801.0625 L350,782.7109 " fill="#EEEEEE" style="stroke:#000000;stroke-width:1.5;"/><rect fill="none" height="48.7031" style="stroke:#000000;stroke-width:1.5;" width="285.5" x="350" y="782.7109"/><text fill="#000000" font-family="sans-serif" font-size="13" font-weight="bold" lengthAdjust="spacing" textLength="176" x="365" y="797.2061">Approve Restaurant Review</text><polygon fill="#181818" points="552.5,819.4141,562.5,823.4141,552.5,827.4141,556.5,823.4141" style="stroke:#181818;stroke-width:1.0;"/><line style="stroke:#181818;stroke-width:1.0;" x1="397.5" x2="558.5" y1="823.4141" y2="823.4141"/><text fill="#000000" font-family="sans-serif" font-size="13" lengthAdjust="spacing" textLength="143" x="404.5" y="818.5576">Show Restaurant Review</text><polygon fill="#181818" points="199.5,880.1172,209.5,884.1172,199.5,888.1172,203.5,884.1172" style="stroke:#181818;stroke-width:1.0;"/><line style="stroke:#181818;stroke-width:1.0;" x1="30.5" x2="205.5" y1="884.1172" y2="884.1172"/><text fill="#000000" font-family="sans-serif" font-size="13" lengthAdjust="spacing" textLength="84" x="37.5" y="862.9092">Editor Log Out</text><text fill="#000000" font-family="sans-serif" font-size="13" lengthAdjust="spacing" textLength="49" x="37.5" y="879.2607">[HTTPS]</text><!--SRC=[lPN1Ru8m5CRl_IjUt7NYVOSbX2sPYMHCN3ni7Ye-jHcsh7tWzj-lYBWnpGGpu41AwVVUZ- -ZAGcA4Jmb2IM1poLVuIOVXf-6S0Dzk5y8KXhSY4GcIA2nSo6-foWZjCDSoeL43J5c63EMS4qY4WctHNg5k0VSb3s-MnGT75jOQUCKAwjgp_zJ6QebRRd6uj4udb-Ltt7YSswmKP5InDXSVK3FNMo4xC7LT2q86TYhIhWtBaHhZvAcKQjTRUTWe77smh8OGxa0Iy4OgsKUz6yRU0KtPRGZjOAXV9Kl3vD94CxOIgiqgRva3Uese2ZDjYmXnlQpuTdOFocVjZWJBnWCWsi8dqQpzW7SbDPseOWuuGxZDu5DewKSt2JHAaFmLIOGncZlspAEmHJdeOhUa4oPpAdb7VXJ3t9lrZ-G7detu3stfV8VRQssLQ0ysFR3tLM1GAkbYB56kfNrtSLx3lDalfUnjXbmbQYRXCTeYASwFnXgx-4ZJNT9ry4zcVRbp6qcVapLRke_piV7bBvFJ_O5]--></g></svg>