<?xml version="1.0" encoding="us-ascii" standalone="no"?><svg xmlns="http://www.w3.org/2000/svg" xmlns:xlink="http://www.w3.org/1999/xlink" contentStyleType="text/css" height="992px" preserveAspectRatio="none" style="width:642px;height:992px;background:#FFFFFF;" version="1.1" viewBox="0 0 642 992" width="642px" zoomAndPan="magnify"><defs/><g><text fill="#000000" font-family="sans-serif" font-size="14" font-weight="bold" lengthAdjust="spacing" textLength="590" x="27.75" y="29.5332">Content Management System - Programmer Activities - Sequence - Component level</text><rect fill="#FFFFFF" height="942.1719" style="stroke:#181818;stroke-width:0.5;" width="130" x="470" y="44.6094"/><text fill="#000000" font-family="sans-serif" font-size="13" font-weight="bold" lengthAdjust="spacing" textLength="107" x="481.5" y="58.1045">Content Sections</text><rect fill="none" height="111.7578" style="stroke:#000000;stroke-width:1.5;" width="203" x="247.5" y="161.2734"/><rect fill="none" height="144.1094" style="stroke:#000000;stroke-width:1.5;" width="362" x="247.5" y="333.7344"/><rect fill="none" height="65.0547" style="stroke:#000000;stroke-width:1.5;" width="244" x="355.5" y="405.7891"/><rect fill="none" height="144.1094" style="stroke:#000000;stroke-width:1.5;" width="352" x="247.5" y="538.5469"/><rect fill="none" height="65.0547" style="stroke:#000000;stroke-width:1.5;" width="234" x="355.5" y="610.6016"/><rect fill="none" height="144.1094" style="stroke:#000000;stroke-width:1.5;" width="389" x="247.5" y="743.3594"/><rect fill="none" height="65.0547" style="stroke:#000000;stroke-width:1.5;" width="271" x="355.5" y="815.4141"/><line style="stroke:#181818;stroke-width:0.5;stroke-dasharray:5.0,5.0;" x1="51" x2="51" y1="97.5703" y2="951.1719"/><line style="stroke:#181818;stroke-width:0.5;stroke-dasharray:5.0,5.0;" x1="274.5" x2="274.5" y1="97.5703" y2="951.1719"/><line style="stroke:#181818;stroke-width:0.5;stroke-dasharray:5.0,5.0;" x1="402.5" x2="402.5" y1="97.5703" y2="951.1719"/><line style="stroke:#181818;stroke-width:0.5;stroke-dasharray:5.0,5.0;" x1="503" x2="503" y1="97.5703" y2="951.1719"/><line style="stroke:#181818;stroke-width:0.5;stroke-dasharray:5.0,5.0;" x1="569" x2="569" y1="97.5703" y2="951.1719"/><rect fill="#E2E2F0" height="31.6094" rx="2.5" ry="2.5" style="stroke:#181818;stroke-width:0.5;" width="92" x="5" y="64.9609"/><text fill="#000000" font-family="sans-serif" font-size="14" lengthAdjust="spacing" textLength="78" x="12" y="86.4941">Programmer</text><rect fill="#E2E2F0" height="31.6094" rx="2.5" ry="2.5" style="stroke:#181818;stroke-width:0.5;" width="92" x="5" y="950.1719"/><text fill="#000000" font-family="sans-serif" font-size="14" lengthAdjust="spacing" textLength="78" x="12" y="971.7051">Programmer</text><rect fill="#E2E2F0" height="31.6094" rx="2.5" ry="2.5" style="stroke:#181818;stroke-width:0.5;" width="35" x="257.5" y="64.9609"/><text fill="#000000" font-family="sans-serif" font-size="14" lengthAdjust="spacing" textLength="21" x="264.5" y="86.4941">CM</text><rect fill="#E2E2F0" height="31.6094" rx="2.5" ry="2.5" style="stroke:#181818;stroke-width:0.5;" width="35" x="257.5" y="950.1719"/><text fill="#000000" font-family="sans-serif" font-size="14" lengthAdjust="spacing" textLength="21" x="264.5" y="971.7051">CM</text><rect fill="#E2E2F0" height="31.6094" rx="2.5" ry="2.5" style="stroke:#181818;stroke-width:0.5;" width="75" x="365.5" y="64.9609"/><text fill="#000000" font-family="sans-serif" font-size="14" lengthAdjust="spacing" textLength="61" x="372.5" y="86.4941">Database</text><rect fill="#E2E2F0" height="31.6094" rx="2.5" ry="2.5" style="stroke:#181818;stroke-width:0.5;" width="75" x="365.5" y="950.1719"/><text fill="#000000" font-family="sans-serif" font-size="14" lengthAdjust="spacing" textLength="61" x="372.5" y="971.7051">Database</text><rect fill="#E2E2F0" height="31.6094" rx="2.5" ry="2.5" style="stroke:#181818;stroke-width:0.5;" width="58" x="474" y="64.9609"/><text fill="#000000" font-family="sans-serif" font-size="14" lengthAdjust="spacing" textLength="44" x="481" y="86.4941">Movies</text><rect fill="#E2E2F0" height="31.6094" rx="2.5" ry="2.5" style="stroke:#181818;stroke-width:0.5;" width="58" x="474" y="950.1719"/><text fill="#000000" font-family="sans-serif" font-size="14" lengthAdjust="spacing" textLength="44" x="481" y="971.7051">Movies</text><rect fill="#E2E2F0" height="31.6094" rx="2.5" ry="2.5" style="stroke:#181818;stroke-width:0.5;" width="54" x="542" y="64.9609"/><text fill="#000000" font-family="sans-serif" font-size="14" lengthAdjust="spacing" textLength="40" x="549" y="86.4941">Dining</text><rect fill="#E2E2F0" height="31.6094" rx="2.5" ry="2.5" style="stroke:#181818;stroke-width:0.5;" width="54" x="542" y="950.1719"/><text fill="#000000" font-family="sans-serif" font-size="14" lengthAdjust="spacing" textLength="40" x="549" y="971.7051">Dining</text><polygon fill="#181818" points="263,142.2734,273,146.2734,263,150.2734,267,146.2734" style="stroke:#181818;stroke-width:1.0;"/><line style="stroke:#181818;stroke-width:1.0;" x1="51" x2="269" y1="146.2734" y2="146.2734"/><text fill="#000000" font-family="sans-serif" font-size="13" lengthAdjust="spacing" textLength="110" x="58" y="125.0654">Programmer Log In</text><text fill="#000000" font-family="sans-serif" font-size="13" lengthAdjust="spacing" textLength="49" x="58" y="141.417">[HTTPS]</text><path d="M247.5,161.2734 L416.5,161.2734 L416.5,169.625 L406.5,179.625 L247.5,179.625 L247.5,161.2734 " fill="#EEEEEE" style="stroke:#000000;stroke-width:1.5;"/><rect fill="none" height="111.7578" style="stroke:#000000;stroke-width:1.5;" width="203" x="247.5" y="161.2734"/><text fill="#000000" font-family="sans-serif" font-size="13" font-weight="bold" lengthAdjust="spacing" textLength="124" x="262.5" y="175.7686">Programmer Log In</text><polygon fill="#181818" points="391,214.3281,401,218.3281,391,222.3281,395,218.3281" style="stroke:#181818;stroke-width:1.0;"/><line style="stroke:#181818;stroke-width:1.0;" x1="275" x2="397" y1="218.3281" y2="218.3281"/><text fill="#000000" font-family="sans-serif" font-size="13" lengthAdjust="spacing" textLength="99" x="282" y="197.1201">Select User Data</text><text fill="#000000" font-family="sans-serif" font-size="13" lengthAdjust="spacing" textLength="83" x="282" y="213.4717">[TCP/IP, SQL]</text><polygon fill="#181818" points="391,261.0313,401,265.0313,391,269.0313,395,265.0313" style="stroke:#181818;stroke-width:1.0;"/><line style="stroke:#181818;stroke-width:1.0;" x1="275" x2="397" y1="265.0313" y2="265.0313"/><text fill="#000000" font-family="sans-serif" font-size="13" lengthAdjust="spacing" textLength="104" x="282" y="243.8232">Authenticate User</text><text fill="#000000" font-family="sans-serif" font-size="13" lengthAdjust="spacing" textLength="83" x="282" y="260.1748">[TCP/IP, SQL]</text><polygon fill="#181818" points="263,314.7344,273,318.7344,263,322.7344,267,318.7344" style="stroke:#181818;stroke-width:1.0;"/><line style="stroke:#181818;stroke-width:1.0;" x1="51" x2="269" y1="318.7344" y2="318.7344"/><text fill="#000000" font-family="sans-serif" font-size="13" lengthAdjust="spacing" textLength="170" x="58" y="297.5264">Make Movie Review Template</text><text fill="#000000" font-family="sans-serif" font-size="13" lengthAdjust="spacing" textLength="145" x="58" y="313.8779">[HTML with Tcl and SQL]</text><path d="M247.5,333.7344 L483.5,333.7344 L483.5,342.0859 L473.5,352.0859 L247.5,352.0859 L247.5,333.7344 " fill="#EEEEEE" style="stroke:#000000;stroke-width:1.5;"/><rect fill="none" height="144.1094" style="stroke:#000000;stroke-width:1.5;" width="362" x="247.5" y="333.7344"/><text fill="#000000" font-family="sans-serif" font-size="13" font-weight="bold" lengthAdjust="spacing" textLength="191" x="262.5" y="348.2295">Make Movie Review Template</text><polygon fill="#181818" points="491,386.7891,501,390.7891,491,394.7891,495,390.7891" style="stroke:#181818;stroke-width:1.0;"/><line style="stroke:#181818;stroke-width:1.0;" x1="275" x2="497" y1="390.7891" y2="390.7891"/><text fill="#000000" font-family="sans-serif" font-size="13" lengthAdjust="spacing" textLength="173" x="282" y="369.5811">Make Movie_Review Template</text><text fill="#000000" font-family="sans-serif" font-size="13" lengthAdjust="spacing" textLength="71" x="282" y="385.9326">[ADP script]</text><path d="M355.5,405.7891 L594.5,405.7891 L594.5,414.1406 L584.5,424.1406 L355.5,424.1406 L355.5,405.7891 " fill="#EEEEEE" style="stroke:#000000;stroke-width:1.5;"/><rect fill="none" height="65.0547" style="stroke:#000000;stroke-width:1.5;" width="244" x="355.5" y="405.7891"/><text fill="#000000" font-family="sans-serif" font-size="13" font-weight="bold" lengthAdjust="spacing" textLength="194" x="370.5" y="420.2842">Make Movie_Review Template</text><polygon fill="#181818" points="414,458.8438,404,462.8438,414,466.8438,410,462.8438" style="stroke:#181818;stroke-width:1.0;"/><line style="stroke:#181818;stroke-width:1.0;" x1="408" x2="502" y1="462.8438" y2="462.8438"/><text fill="#000000" font-family="sans-serif" font-size="13" lengthAdjust="spacing" textLength="76" x="420" y="441.6357">Data Storage</text><text fill="#000000" font-family="sans-serif" font-size="13" lengthAdjust="spacing" textLength="34" x="420" y="457.9873">[SQL]</text><polygon fill="#181818" points="263,519.5469,273,523.5469,263,527.5469,267,523.5469" style="stroke:#181818;stroke-width:1.0;"/><line style="stroke:#181818;stroke-width:1.0;" x1="51" x2="269" y1="523.5469" y2="523.5469"/><text fill="#000000" font-family="sans-serif" font-size="13" lengthAdjust="spacing" textLength="164" x="58" y="502.3389">Make Actor Profile Template</text><text fill="#000000" font-family="sans-serif" font-size="13" lengthAdjust="spacing" textLength="145" x="58" y="518.6904">[HTML with Tcl and SQL]</text><path d="M247.5,538.5469 L473.5,538.5469 L473.5,546.8984 L463.5,556.8984 L247.5,556.8984 L247.5,538.5469 " fill="#EEEEEE" style="stroke:#000000;stroke-width:1.5;"/><rect fill="none" height="144.1094" style="stroke:#000000;stroke-width:1.5;" width="352" x="247.5" y="538.5469"/><text fill="#000000" font-family="sans-serif" font-size="13" font-weight="bold" lengthAdjust="spacing" textLength="181" x="262.5" y="553.042">Make Actor Profile Template</text><polygon fill="#181818" points="491,591.6016,501,595.6016,491,599.6016,495,595.6016" style="stroke:#181818;stroke-width:1.0;"/><line style="stroke:#181818;stroke-width:1.0;" x1="275" x2="497" y1="595.6016" y2="595.6016"/><text fill="#000000" font-family="sans-serif" font-size="13" lengthAdjust="spacing" textLength="167" x="282" y="574.3936">Make Actor_Profile Template</text><text fill="#000000" font-family="sans-serif" font-size="13" lengthAdjust="spacing" textLength="71" x="282" y="590.7451">[ADP script]</text><path d="M355.5,610.6016 L584.5,610.6016 L584.5,618.9531 L574.5,628.9531 L355.5,628.9531 L355.5,610.6016 " fill="#EEEEEE" style="stroke:#000000;stroke-width:1.5;"/><rect fill="none" height="65.0547" style="stroke:#000000;stroke-width:1.5;" width="234" x="355.5" y="610.6016"/><text fill="#000000" font-family="sans-serif" font-size="13" font-weight="bold" lengthAdjust="spacing" textLength="184" x="370.5" y="625.0967">Make Actor_Profile Template</text><polygon fill="#181818" points="414,663.6563,404,667.6563,414,671.6563,410,667.6563" style="stroke:#181818;stroke-width:1.0;"/><line style="stroke:#181818;stroke-width:1.0;" x1="408" x2="502" y1="667.6563" y2="667.6563"/><text fill="#000000" font-family="sans-serif" font-size="13" lengthAdjust="spacing" textLength="76" x="420" y="646.4482">Data Storage</text><text fill="#000000" font-family="sans-serif" font-size="13" lengthAdjust="spacing" textLength="34" x="420" y="662.7998">[SQL]</text><polygon fill="#181818" points="263,724.3594,273,728.3594,263,732.3594,267,728.3594" style="stroke:#181818;stroke-width:1.0;"/><line style="stroke:#181818;stroke-width:1.0;" x1="51" x2="269" y1="728.3594" y2="728.3594"/><text fill="#000000" font-family="sans-serif" font-size="13" lengthAdjust="spacing" textLength="200" x="58" y="707.1514">Make Restaurant Review Template</text><text fill="#000000" font-family="sans-serif" font-size="13" lengthAdjust="spacing" textLength="145" x="58" y="723.5029">[HTML with Tcl and SQL]</text><path d="M247.5,743.3594 L513.5,743.3594 L513.5,751.7109 L503.5,761.7109 L247.5,761.7109 L247.5,743.3594 " fill="#EEEEEE" style="stroke:#000000;stroke-width:1.5;"/><rect fill="none" height="144.1094" style="stroke:#000000;stroke-width:1.5;" width="389" x="247.5" y="743.3594"/><text fill="#000000" font-family="sans-serif" font-size="13" font-weight="bold" lengthAdjust="spacing" textLength="221" x="262.5" y="757.8545">Make Restaurant Review Template</text><polygon fill="#181818" points="557,796.4141,567,800.4141,557,804.4141,561,800.4141" style="stroke:#181818;stroke-width:1.0;"/><line style="stroke:#181818;stroke-width:1.0;" x1="275" x2="563" y1="800.4141" y2="800.4141"/><text fill="#000000" font-family="sans-serif" font-size="13" lengthAdjust="spacing" textLength="200" x="282" y="779.2061">Make Restaurant Review Template</text><text fill="#000000" font-family="sans-serif" font-size="13" lengthAdjust="spacing" textLength="71" x="282" y="795.5576">[ADP script]</text><path d="M355.5,815.4141 L621.5,815.4141 L621.5,823.7656 L611.5,833.7656 L355.5,833.7656 L355.5,815.4141 " fill="#EEEEEE" style="stroke:#000000;stroke-width:1.5;"/><rect fill="none" height="65.0547" style="stroke:#000000;stroke-width:1.5;" width="271" x="355.5" y="815.4141"/><text fill="#000000" font-family="sans-serif" font-size="13" font-weight="bold" lengthAdjust="spacing" textLength="221" x="370.5" y="829.9092">Make Restaurant Review Template</text><polygon fill="#181818" points="414,868.4688,404,872.4688,414,876.4688,410,872.4688" style="stroke:#181818;stroke-width:1.0;"/><line style="stroke:#181818;stroke-width:1.0;" x1="408" x2="568" y1="872.4688" y2="872.4688"/><text fill="#000000" font-family="sans-serif" font-size="13" lengthAdjust="spacing" textLength="76" x="420" y="851.2607">Data Storage</text><text fill="#000000" font-family="sans-serif" font-size="13" lengthAdjust="spacing" textLength="34" x="420" y="867.6123">[SQL]</text><polygon fill="#181818" points="263,929.1719,273,933.1719,263,937.1719,267,933.1719" style="stroke:#181818;stroke-width:1.0;"/><line style="stroke:#181818;stroke-width:1.0;" x1="51" x2="269" y1="933.1719" y2="933.1719"/><text fill="#000000" font-family="sans-serif" font-size="13" lengthAdjust="spacing" textLength="121" x="58" y="911.9639">Programmer Log Out</text><text fill="#000000" font-family="sans-serif" font-size="13" lengthAdjust="spacing" textLength="49" x="58" y="928.3154">[HTTPS]</text><!--SRC=[xLR1Rfj04BtlLupSQqFlELIoy26HZ483LG-DPMtm6Ay2ktHtiDk_pm31XDYE0ggZL2e7j8pcpRoPUSikASeGVAC9DK4WjKmnhvRH7qUOmmM4rgHMvZbQc2QajeeKEhP7-Aj4dI0lVPCNHbUe3BUO2L58IofHXMJJf0im0UdQN5sg9fF7mOrrNkVTZ-87hw8ZiwQTjDXyEiyF-l2P97al7GuAqeA4k3U_OJ9TvKfFuDEFZI8Km4zZRxiN8VV7QDTpwR48p9QRDuX3dTIhlANIo0rw0hR9l7tpdTU4FqmxKrhfz6nfc_02zGgu7w9RY3VF6Yw-3XWjN3vNvToaSAtlzC-hE0wZXKYjAOj31p4W_W0shKQOKuGPTmU-EyvPcPbIx8TVhiFF47sRByvFO5hIXXrL8Wbh6YyPy6JEE9D0FY3K6eHRvFSEOioBZCdKmmdci5EqWJZ9GB94QaRDi4uZpzIquRkgLz_oiBxfB0INM5NGOL7BiKMDe3bEETKI8XO08xYOlLZUGJ1rc6gxhXMVH8CKSnpwuIHJqrmUgV24Pexx_nVDCz7SeYDPskfq6_EhEGt_0E9fZjCtLNf2G7-Xl164_oKHlRWTt9JKtH_48m00]--></g></svg>