<?xml version="1.0" encoding="us-ascii" standalone="no"?><svg xmlns="http://www.w3.org/2000/svg" xmlns:xlink="http://www.w3.org/1999/xlink" contentStyleType="text/css" height="943px" preserveAspectRatio="none" style="width:642px;height:943px;background:#FFFFFF;" version="1.1" viewBox="0 0 642 943" width="642px" zoomAndPan="magnify"><defs/><g><text fill="#000000" font-family="sans-serif" font-size="14" font-weight="bold" lengthAdjust="spacing" textLength="578" x="33.75" y="29.5332">Content Management System - Programmer Activities - Sequence - Container level</text><rect fill="#FFFFFF" height="893.1172" style="stroke:#181818;stroke-width:0.5;" width="130" x="446.5" y="44.6094"/><text fill="#000000" font-family="sans-serif" font-size="13" font-weight="bold" lengthAdjust="spacing" textLength="41" x="491" y="58.1045">Admin</text><rect fill="none" height="111.7578" style="stroke:#000000;stroke-width:1.5;" width="203" x="247.5" y="161.2734"/><rect fill="none" height="127.7578" style="stroke:#000000;stroke-width:1.5;" width="359" x="247.5" y="333.7344"/><rect fill="none" height="65.0547" style="stroke:#000000;stroke-width:1.5;" width="241" x="355.5" y="389.4375"/><rect fill="none" height="127.7578" style="stroke:#000000;stroke-width:1.5;" width="349" x="247.5" y="522.1953"/><rect fill="none" height="65.0547" style="stroke:#000000;stroke-width:1.5;" width="231" x="355.5" y="577.8984"/><rect fill="none" height="127.7578" style="stroke:#000000;stroke-width:1.5;" width="389" x="247.5" y="710.6563"/><rect fill="none" height="65.0547" style="stroke:#000000;stroke-width:1.5;" width="271" x="355.5" y="766.3594"/><line style="stroke:#181818;stroke-width:0.5;stroke-dasharray:5.0,5.0;" x1="51" x2="51" y1="97.5703" y2="902.1172"/><line style="stroke:#181818;stroke-width:0.5;stroke-dasharray:5.0,5.0;" x1="274.5" x2="274.5" y1="97.5703" y2="902.1172"/><line style="stroke:#181818;stroke-width:0.5;stroke-dasharray:5.0,5.0;" x1="402.5" x2="402.5" y1="97.5703" y2="902.1172"/><line style="stroke:#181818;stroke-width:0.5;stroke-dasharray:5.0,5.0;" x1="511.5" x2="511.5" y1="97.5703" y2="902.1172"/><rect fill="#E2E2F0" height="31.6094" rx="2.5" ry="2.5" style="stroke:#181818;stroke-width:0.5;" width="92" x="5" y="64.9609"/><text fill="#000000" font-family="sans-serif" font-size="14" lengthAdjust="spacing" textLength="78" x="12" y="86.4941">Programmer</text><rect fill="#E2E2F0" height="31.6094" rx="2.5" ry="2.5" style="stroke:#181818;stroke-width:0.5;" width="92" x="5" y="901.1172"/><text fill="#000000" font-family="sans-serif" font-size="14" lengthAdjust="spacing" textLength="78" x="12" y="922.6504">Programmer</text><rect fill="#E2E2F0" height="31.6094" rx="2.5" ry="2.5" style="stroke:#181818;stroke-width:0.5;" width="35" x="257.5" y="64.9609"/><text fill="#000000" font-family="sans-serif" font-size="14" lengthAdjust="spacing" textLength="21" x="264.5" y="86.4941">CM</text><rect fill="#E2E2F0" height="31.6094" rx="2.5" ry="2.5" style="stroke:#181818;stroke-width:0.5;" width="35" x="257.5" y="901.1172"/><text fill="#000000" font-family="sans-serif" font-size="14" lengthAdjust="spacing" textLength="21" x="264.5" y="922.6504">CM</text><rect fill="#E2E2F0" height="31.6094" rx="2.5" ry="2.5" style="stroke:#181818;stroke-width:0.5;" width="75" x="365.5" y="64.9609"/><text fill="#000000" font-family="sans-serif" font-size="14" lengthAdjust="spacing" textLength="61" x="372.5" y="86.4941">Database</text><rect fill="#E2E2F0" height="31.6094" rx="2.5" ry="2.5" style="stroke:#181818;stroke-width:0.5;" width="75" x="365.5" y="901.1172"/><text fill="#000000" font-family="sans-serif" font-size="14" lengthAdjust="spacing" textLength="61" x="372.5" y="922.6504">Database</text><rect fill="#E2E2F0" height="31.6094" rx="2.5" ry="2.5" style="stroke:#181818;stroke-width:0.5;" width="122" x="450.5" y="64.9609"/><text fill="#000000" font-family="sans-serif" font-size="14" lengthAdjust="spacing" textLength="108" x="457.5" y="86.4941">Content Sections</text><rect fill="#E2E2F0" height="31.6094" rx="2.5" ry="2.5" style="stroke:#181818;stroke-width:0.5;" width="122" x="450.5" y="901.1172"/><text fill="#000000" font-family="sans-serif" font-size="14" lengthAdjust="spacing" textLength="108" x="457.5" y="922.6504">Content Sections</text><polygon fill="#181818" points="263,142.2734,273,146.2734,263,150.2734,267,146.2734" style="stroke:#181818;stroke-width:1.0;"/><line style="stroke:#181818;stroke-width:1.0;" x1="51" x2="269" y1="146.2734" y2="146.2734"/><text fill="#000000" font-family="sans-serif" font-size="13" lengthAdjust="spacing" textLength="110" x="58" y="125.0654">Programmer Log In</text><text fill="#000000" font-family="sans-serif" font-size="13" lengthAdjust="spacing" textLength="49" x="58" y="141.417">[HTTPS]</text><path d="M247.5,161.2734 L416.5,161.2734 L416.5,169.625 L406.5,179.625 L247.5,179.625 L247.5,161.2734 " fill="#EEEEEE" style="stroke:#000000;stroke-width:1.5;"/><rect fill="none" height="111.7578" style="stroke:#000000;stroke-width:1.5;" width="203" x="247.5" y="161.2734"/><text fill="#000000" font-family="sans-serif" font-size="13" font-weight="bold" lengthAdjust="spacing" textLength="124" x="262.5" y="175.7686">Programmer Log In</text><polygon fill="#181818" points="391,214.3281,401,218.3281,391,222.3281,395,218.3281" style="stroke:#181818;stroke-width:1.0;"/><line style="stroke:#181818;stroke-width:1.0;" x1="275" x2="397" y1="218.3281" y2="218.3281"/><text fill="#000000" font-family="sans-serif" font-size="13" lengthAdjust="spacing" textLength="99" x="282" y="197.1201">Select User Data</text><text fill="#000000" font-family="sans-serif" font-size="13" lengthAdjust="spacing" textLength="83" x="282" y="213.4717">[TCP/IP, SQL]</text><polygon fill="#181818" points="391,261.0313,401,265.0313,391,269.0313,395,265.0313" style="stroke:#181818;stroke-width:1.0;"/><line style="stroke:#181818;stroke-width:1.0;" x1="275" x2="397" y1="265.0313" y2="265.0313"/><text fill="#000000" font-family="sans-serif" font-size="13" lengthAdjust="spacing" textLength="104" x="282" y="243.8232">Authenticate User</text><text fill="#000000" font-family="sans-serif" font-size="13" lengthAdjust="spacing" textLength="83" x="282" y="260.1748">[TCP/IP, SQL]</text><polygon fill="#181818" points="263,314.7344,273,318.7344,263,322.7344,267,318.7344" style="stroke:#181818;stroke-width:1.0;"/><line style="stroke:#181818;stroke-width:1.0;" x1="51" x2="269" y1="318.7344" y2="318.7344"/><text fill="#000000" font-family="sans-serif" font-size="13" lengthAdjust="spacing" textLength="170" x="58" y="297.5264">Make Movie Review Template</text><text fill="#000000" font-family="sans-serif" font-size="13" lengthAdjust="spacing" textLength="145" x="58" y="313.8779">[HTML with Tcl and SQL]</text><path d="M247.5,333.7344 L483.5,333.7344 L483.5,342.0859 L473.5,352.0859 L247.5,352.0859 L247.5,333.7344 " fill="#EEEEEE" style="stroke:#000000;stroke-width:1.5;"/><rect fill="none" height="127.7578" style="stroke:#000000;stroke-width:1.5;" width="359" x="247.5" y="333.7344"/><text fill="#000000" font-family="sans-serif" font-size="13" font-weight="bold" lengthAdjust="spacing" textLength="191" x="262.5" y="348.2295">Make Movie Review Template</text><polygon fill="#181818" points="499.5,370.4375,509.5,374.4375,499.5,378.4375,503.5,374.4375" style="stroke:#181818;stroke-width:1.0;"/><line style="stroke:#181818;stroke-width:1.0;" x1="275" x2="505.5" y1="374.4375" y2="374.4375"/><text fill="#000000" font-family="sans-serif" font-size="13" lengthAdjust="spacing" textLength="170" x="282" y="369.5811">Make Movie Review Template</text><path d="M355.5,389.4375 L591.5,389.4375 L591.5,397.7891 L581.5,407.7891 L355.5,407.7891 L355.5,389.4375 " fill="#EEEEEE" style="stroke:#000000;stroke-width:1.5;"/><rect fill="none" height="65.0547" style="stroke:#000000;stroke-width:1.5;" width="241" x="355.5" y="389.4375"/><text fill="#000000" font-family="sans-serif" font-size="13" font-weight="bold" lengthAdjust="spacing" textLength="191" x="370.5" y="403.9326">Make Movie Review Template</text><polygon fill="#181818" points="414,442.4922,404,446.4922,414,450.4922,410,446.4922" style="stroke:#181818;stroke-width:1.0;"/><line style="stroke:#181818;stroke-width:1.0;" x1="408" x2="510.5" y1="446.4922" y2="446.4922"/><text fill="#000000" font-family="sans-serif" font-size="13" lengthAdjust="spacing" textLength="76" x="420" y="425.2842">Data Storage</text><text fill="#000000" font-family="sans-serif" font-size="13" lengthAdjust="spacing" textLength="34" x="420" y="441.6357">[SQL]</text><polygon fill="#181818" points="263,503.1953,273,507.1953,263,511.1953,267,507.1953" style="stroke:#181818;stroke-width:1.0;"/><line style="stroke:#181818;stroke-width:1.0;" x1="51" x2="269" y1="507.1953" y2="507.1953"/><text fill="#000000" font-family="sans-serif" font-size="13" lengthAdjust="spacing" textLength="164" x="58" y="485.9873">Make Actor Profile Template</text><text fill="#000000" font-family="sans-serif" font-size="13" lengthAdjust="spacing" textLength="145" x="58" y="502.3389">[HTML with Tcl and SQL]</text><path d="M247.5,522.1953 L473.5,522.1953 L473.5,530.5469 L463.5,540.5469 L247.5,540.5469 L247.5,522.1953 " fill="#EEEEEE" style="stroke:#000000;stroke-width:1.5;"/><rect fill="none" height="127.7578" style="stroke:#000000;stroke-width:1.5;" width="349" x="247.5" y="522.1953"/><text fill="#000000" font-family="sans-serif" font-size="13" font-weight="bold" lengthAdjust="spacing" textLength="181" x="262.5" y="536.6904">Make Actor Profile Template</text><polygon fill="#181818" points="499.5,558.8984,509.5,562.8984,499.5,566.8984,503.5,562.8984" style="stroke:#181818;stroke-width:1.0;"/><line style="stroke:#181818;stroke-width:1.0;" x1="275" x2="505.5" y1="562.8984" y2="562.8984"/><text fill="#000000" font-family="sans-serif" font-size="13" lengthAdjust="spacing" textLength="164" x="282" y="558.042">Make Actor Profile Template</text><path d="M355.5,577.8984 L581.5,577.8984 L581.5,586.25 L571.5,596.25 L355.5,596.25 L355.5,577.8984 " fill="#EEEEEE" style="stroke:#000000;stroke-width:1.5;"/><rect fill="none" height="65.0547" style="stroke:#000000;stroke-width:1.5;" width="231" x="355.5" y="577.8984"/><text fill="#000000" font-family="sans-serif" font-size="13" font-weight="bold" lengthAdjust="spacing" textLength="181" x="370.5" y="592.3936">Make Actor Profile Template</text><polygon fill="#181818" points="414,630.9531,404,634.9531,414,638.9531,410,634.9531" style="stroke:#181818;stroke-width:1.0;"/><line style="stroke:#181818;stroke-width:1.0;" x1="408" x2="510.5" y1="634.9531" y2="634.9531"/><text fill="#000000" font-family="sans-serif" font-size="13" lengthAdjust="spacing" textLength="76" x="420" y="613.7451">Data Storage</text><text fill="#000000" font-family="sans-serif" font-size="13" lengthAdjust="spacing" textLength="34" x="420" y="630.0967">[SQL]</text><polygon fill="#181818" points="263,691.6563,273,695.6563,263,699.6563,267,695.6563" style="stroke:#181818;stroke-width:1.0;"/><line style="stroke:#181818;stroke-width:1.0;" x1="51" x2="269" y1="695.6563" y2="695.6563"/><text fill="#000000" font-family="sans-serif" font-size="13" lengthAdjust="spacing" textLength="200" x="58" y="674.4482">Make Restaurant Review Template</text><text fill="#000000" font-family="sans-serif" font-size="13" lengthAdjust="spacing" textLength="145" x="58" y="690.7998">[HTML with Tcl and SQL]</text><path d="M247.5,710.6563 L513.5,710.6563 L513.5,719.0078 L503.5,729.0078 L247.5,729.0078 L247.5,710.6563 " fill="#EEEEEE" style="stroke:#000000;stroke-width:1.5;"/><rect fill="none" height="127.7578" style="stroke:#000000;stroke-width:1.5;" width="389" x="247.5" y="710.6563"/><text fill="#000000" font-family="sans-serif" font-size="13" font-weight="bold" lengthAdjust="spacing" textLength="221" x="262.5" y="725.1514">Make Restaurant Review Template</text><polygon fill="#181818" points="499.5,747.3594,509.5,751.3594,499.5,755.3594,503.5,751.3594" style="stroke:#181818;stroke-width:1.0;"/><line style="stroke:#181818;stroke-width:1.0;" x1="275" x2="505.5" y1="751.3594" y2="751.3594"/><text fill="#000000" font-family="sans-serif" font-size="13" lengthAdjust="spacing" textLength="200" x="282" y="746.5029">Make Restaurant Review Template</text><path d="M355.5,766.3594 L621.5,766.3594 L621.5,774.7109 L611.5,784.7109 L355.5,784.7109 L355.5,766.3594 " fill="#EEEEEE" style="stroke:#000000;stroke-width:1.5;"/><rect fill="none" height="65.0547" style="stroke:#000000;stroke-width:1.5;" width="271" x="355.5" y="766.3594"/><text fill="#000000" font-family="sans-serif" font-size="13" font-weight="bold" lengthAdjust="spacing" textLength="221" x="370.5" y="780.8545">Make Restaurant Review Template</text><polygon fill="#181818" points="414,819.4141,404,823.4141,414,827.4141,410,823.4141" style="stroke:#181818;stroke-width:1.0;"/><line style="stroke:#181818;stroke-width:1.0;" x1="408" x2="510.5" y1="823.4141" y2="823.4141"/><text fill="#000000" font-family="sans-serif" font-size="13" lengthAdjust="spacing" textLength="76" x="420" y="802.2061">Data Storage</text><text fill="#000000" font-family="sans-serif" font-size="13" lengthAdjust="spacing" textLength="34" x="420" y="818.5576">[SQL]</text><polygon fill="#181818" points="263,880.1172,273,884.1172,263,888.1172,267,884.1172" style="stroke:#181818;stroke-width:1.0;"/><line style="stroke:#181818;stroke-width:1.0;" x1="51" x2="269" y1="884.1172" y2="884.1172"/><text fill="#000000" font-family="sans-serif" font-size="13" lengthAdjust="spacing" textLength="121" x="58" y="862.9092">Programmer Log Out</text><text fill="#000000" font-family="sans-serif" font-size="13" lengthAdjust="spacing" textLength="49" x="58" y="879.2607">[HTTPS]</text><!--SRC=[tLN1JeD04BtlLqpmQl7kmQJ1WoObOi5uq1wsT4etmYxkBgt-lGCjnLRRIjFQf1p8GkQzURmtx5fXKmHFIOlIWiybJp0hb-6diPX11mAj4isp33LqOokcmWeqz3x4zm9bZBGiuLn8gaXnYYbZETTMn2BdHEGq10vmK_TgMiqxkKIkj76RwbKMpz-A3jNOphZ6-QDnFNyLViij7tA3hKXg46D3zG5ETvG9wS35yqHOP43NgiA5YI6IJKgQLgqgRdTff74Nm9gCeHm1gM2C_Tb0wDoqy0kklqVTKmdSorVvSXT5GJXWYLP5_hE0jU1leQOsdZI5c985y6IeP_cQ94LUS7KVN4Bus1iSNq2ti1Cg536tMCbOLq39734JdxyX-6eg4Ff8znb4cEKfYQd2yNim4tO2KPm2fn6f5Ct3semyaccxPdZhrnnEz4uP-yr1kOIGuYG4MR-C_X_YhsZAdsyiQBDkbV_lq1CFm0PHXvDzVYFGHsDveSk3PfzjO3FynAEmHTXXvP_LIAoTmm-5RKvgzWK0]--></g></svg>