<?xml version="1.0" encoding="us-ascii" standalone="no"?><svg xmlns="http://www.w3.org/2000/svg" xmlns:xlink="http://www.w3.org/1999/xlink" contentStyleType="text/css" height="917px" preserveAspectRatio="none" style="width:642px;height:917px;background:#FFFFFF;" version="1.1" viewBox="0 0 642 917" width="642px" zoomAndPan="magnify"><defs/><g><text fill="#000000" font-family="sans-serif" font-size="14" font-weight="bold" lengthAdjust="spacing" textLength="564" x="40.75" y="29.5332">Content Management System - Programmer Activities - Sequence - Context level</text><rect fill="none" height="111.7578" style="stroke:#000000;stroke-width:1.5;" width="203" x="247.5" y="139.9219"/><rect fill="none" height="127.7578" style="stroke:#000000;stroke-width:1.5;" width="359" x="247.5" y="312.3828"/><rect fill="none" height="65.0547" style="stroke:#000000;stroke-width:1.5;" width="241" x="355.5" y="368.0859"/><rect fill="none" height="127.7578" style="stroke:#000000;stroke-width:1.5;" width="349" x="247.5" y="500.8438"/><rect fill="none" height="65.0547" style="stroke:#000000;stroke-width:1.5;" width="231" x="355.5" y="556.5469"/><rect fill="none" height="127.7578" style="stroke:#000000;stroke-width:1.5;" width="389" x="247.5" y="689.3047"/><rect fill="none" height="65.0547" style="stroke:#000000;stroke-width:1.5;" width="271" x="355.5" y="745.0078"/><line style="stroke:#181818;stroke-width:0.5;stroke-dasharray:5.0,5.0;" x1="51" x2="51" y1="76.2188" y2="880.7656"/><line style="stroke:#181818;stroke-width:0.5;stroke-dasharray:5.0,5.0;" x1="274.5" x2="274.5" y1="76.2188" y2="880.7656"/><line style="stroke:#181818;stroke-width:0.5;stroke-dasharray:5.0,5.0;" x1="402.5" x2="402.5" y1="76.2188" y2="880.7656"/><line style="stroke:#181818;stroke-width:0.5;stroke-dasharray:5.0,5.0;" x1="502.5" x2="502.5" y1="76.2188" y2="880.7656"/><rect fill="#E2E2F0" height="31.6094" rx="2.5" ry="2.5" style="stroke:#181818;stroke-width:0.5;" width="92" x="5" y="43.6094"/><text fill="#000000" font-family="sans-serif" font-size="14" lengthAdjust="spacing" textLength="78" x="12" y="65.1426">Programmer</text><rect fill="#E2E2F0" height="31.6094" rx="2.5" ry="2.5" style="stroke:#181818;stroke-width:0.5;" width="92" x="5" y="879.7656"/><text fill="#000000" font-family="sans-serif" font-size="14" lengthAdjust="spacing" textLength="78" x="12" y="901.2988">Programmer</text><rect fill="#E2E2F0" height="31.6094" rx="2.5" ry="2.5" style="stroke:#181818;stroke-width:0.5;" width="35" x="257.5" y="43.6094"/><text fill="#000000" font-family="sans-serif" font-size="14" lengthAdjust="spacing" textLength="21" x="264.5" y="65.1426">CM</text><rect fill="#E2E2F0" height="31.6094" rx="2.5" ry="2.5" style="stroke:#181818;stroke-width:0.5;" width="35" x="257.5" y="879.7656"/><text fill="#000000" font-family="sans-serif" font-size="14" lengthAdjust="spacing" textLength="21" x="264.5" y="901.2988">CM</text><rect fill="#E2E2F0" height="31.6094" rx="2.5" ry="2.5" style="stroke:#181818;stroke-width:0.5;" width="75" x="365.5" y="43.6094"/><text fill="#000000" font-family="sans-serif" font-size="14" lengthAdjust="spacing" textLength="61" x="372.5" y="65.1426">Database</text><rect fill="#E2E2F0" height="31.6094" rx="2.5" ry="2.5" style="stroke:#181818;stroke-width:0.5;" width="75" x="365.5" y="879.7656"/><text fill="#000000" font-family="sans-serif" font-size="14" lengthAdjust="spacing" textLength="61" x="372.5" y="901.2988">Database</text><rect fill="#E2E2F0" height="31.6094" rx="2.5" ry="2.5" style="stroke:#181818;stroke-width:0.5;" width="53" x="476.5" y="43.6094"/><text fill="#000000" font-family="sans-serif" font-size="14" lengthAdjust="spacing" textLength="39" x="483.5" y="65.1426">Admin</text><rect fill="#E2E2F0" height="31.6094" rx="2.5" ry="2.5" style="stroke:#181818;stroke-width:0.5;" width="53" x="476.5" y="879.7656"/><text fill="#000000" font-family="sans-serif" font-size="14" lengthAdjust="spacing" textLength="39" x="483.5" y="901.2988">Admin</text><polygon fill="#181818" points="263,120.9219,273,124.9219,263,128.9219,267,124.9219" style="stroke:#181818;stroke-width:1.0;"/><line style="stroke:#181818;stroke-width:1.0;" x1="51" x2="269" y1="124.9219" y2="124.9219"/><text fill="#000000" font-family="sans-serif" font-size="13" lengthAdjust="spacing" textLength="110" x="58" y="103.7139">Programmer Log In</text><text fill="#000000" font-family="sans-serif" font-size="13" lengthAdjust="spacing" textLength="49" x="58" y="120.0654">[HTTPS]</text><path d="M247.5,139.9219 L416.5,139.9219 L416.5,148.2734 L406.5,158.2734 L247.5,158.2734 L247.5,139.9219 " fill="#EEEEEE" style="stroke:#000000;stroke-width:1.5;"/><rect fill="none" height="111.7578" style="stroke:#000000;stroke-width:1.5;" width="203" x="247.5" y="139.9219"/><text fill="#000000" font-family="sans-serif" font-size="13" font-weight="bold" lengthAdjust="spacing" textLength="124" x="262.5" y="154.417">Programmer Log In</text><polygon fill="#181818" points="391,192.9766,401,196.9766,391,200.9766,395,196.9766" style="stroke:#181818;stroke-width:1.0;"/><line style="stroke:#181818;stroke-width:1.0;" x1="275" x2="397" y1="196.9766" y2="196.9766"/><text fill="#000000" font-family="sans-serif" font-size="13" lengthAdjust="spacing" textLength="99" x="282" y="175.7686">Select User Data</text><text fill="#000000" font-family="sans-serif" font-size="13" lengthAdjust="spacing" textLength="83" x="282" y="192.1201">[TCP/IP, SQL]</text><polygon fill="#181818" points="391,239.6797,401,243.6797,391,247.6797,395,243.6797" style="stroke:#181818;stroke-width:1.0;"/><line style="stroke:#181818;stroke-width:1.0;" x1="275" x2="397" y1="243.6797" y2="243.6797"/><text fill="#000000" font-family="sans-serif" font-size="13" lengthAdjust="spacing" textLength="104" x="282" y="222.4717">Authenticate User</text><text fill="#000000" font-family="sans-serif" font-size="13" lengthAdjust="spacing" textLength="83" x="282" y="238.8232">[TCP/IP, SQL]</text><polygon fill="#181818" points="263,293.3828,273,297.3828,263,301.3828,267,297.3828" style="stroke:#181818;stroke-width:1.0;"/><line style="stroke:#181818;stroke-width:1.0;" x1="51" x2="269" y1="297.3828" y2="297.3828"/><text fill="#000000" font-family="sans-serif" font-size="13" lengthAdjust="spacing" textLength="170" x="58" y="276.1748">Make Movie Review Template</text><text fill="#000000" font-family="sans-serif" font-size="13" lengthAdjust="spacing" textLength="145" x="58" y="292.5264">[HTML with Tcl and SQL]</text><path d="M247.5,312.3828 L483.5,312.3828 L483.5,320.7344 L473.5,330.7344 L247.5,330.7344 L247.5,312.3828 " fill="#EEEEEE" style="stroke:#000000;stroke-width:1.5;"/><rect fill="none" height="127.7578" style="stroke:#000000;stroke-width:1.5;" width="359" x="247.5" y="312.3828"/><text fill="#000000" font-family="sans-serif" font-size="13" font-weight="bold" lengthAdjust="spacing" textLength="191" x="262.5" y="326.8779">Make Movie Review Template</text><polygon fill="#181818" points="491,349.0859,501,353.0859,491,357.0859,495,353.0859" style="stroke:#181818;stroke-width:1.0;"/><line style="stroke:#181818;stroke-width:1.0;" x1="275" x2="497" y1="353.0859" y2="353.0859"/><text fill="#000000" font-family="sans-serif" font-size="13" lengthAdjust="spacing" textLength="170" x="282" y="348.2295">Make Movie Review Template</text><path d="M355.5,368.0859 L591.5,368.0859 L591.5,376.4375 L581.5,386.4375 L355.5,386.4375 L355.5,368.0859 " fill="#EEEEEE" style="stroke:#000000;stroke-width:1.5;"/><rect fill="none" height="65.0547" style="stroke:#000000;stroke-width:1.5;" width="241" x="355.5" y="368.0859"/><text fill="#000000" font-family="sans-serif" font-size="13" font-weight="bold" lengthAdjust="spacing" textLength="191" x="370.5" y="382.5811">Make Movie Review Template</text><polygon fill="#181818" points="414,421.1406,404,425.1406,414,429.1406,410,425.1406" style="stroke:#181818;stroke-width:1.0;"/><line style="stroke:#181818;stroke-width:1.0;" x1="408" x2="502" y1="425.1406" y2="425.1406"/><text fill="#000000" font-family="sans-serif" font-size="13" lengthAdjust="spacing" textLength="76" x="420" y="403.9326">Data Storage</text><text fill="#000000" font-family="sans-serif" font-size="13" lengthAdjust="spacing" textLength="34" x="420" y="420.2842">[SQL]</text><polygon fill="#181818" points="263,481.8438,273,485.8438,263,489.8438,267,485.8438" style="stroke:#181818;stroke-width:1.0;"/><line style="stroke:#181818;stroke-width:1.0;" x1="51" x2="269" y1="485.8438" y2="485.8438"/><text fill="#000000" font-family="sans-serif" font-size="13" lengthAdjust="spacing" textLength="164" x="58" y="464.6357">Make Actor Profile Template</text><text fill="#000000" font-family="sans-serif" font-size="13" lengthAdjust="spacing" textLength="145" x="58" y="480.9873">[HTML with Tcl and SQL]</text><path d="M247.5,500.8438 L473.5,500.8438 L473.5,509.1953 L463.5,519.1953 L247.5,519.1953 L247.5,500.8438 " fill="#EEEEEE" style="stroke:#000000;stroke-width:1.5;"/><rect fill="none" height="127.7578" style="stroke:#000000;stroke-width:1.5;" width="349" x="247.5" y="500.8438"/><text fill="#000000" font-family="sans-serif" font-size="13" font-weight="bold" lengthAdjust="spacing" textLength="181" x="262.5" y="515.3389">Make Actor Profile Template</text><polygon fill="#181818" points="491,537.5469,501,541.5469,491,545.5469,495,541.5469" style="stroke:#181818;stroke-width:1.0;"/><line style="stroke:#181818;stroke-width:1.0;" x1="275" x2="497" y1="541.5469" y2="541.5469"/><text fill="#000000" font-family="sans-serif" font-size="13" lengthAdjust="spacing" textLength="164" x="282" y="536.6904">Make Actor Profile Template</text><path d="M355.5,556.5469 L581.5,556.5469 L581.5,564.8984 L571.5,574.8984 L355.5,574.8984 L355.5,556.5469 " fill="#EEEEEE" style="stroke:#000000;stroke-width:1.5;"/><rect fill="none" height="65.0547" style="stroke:#000000;stroke-width:1.5;" width="231" x="355.5" y="556.5469"/><text fill="#000000" font-family="sans-serif" font-size="13" font-weight="bold" lengthAdjust="spacing" textLength="181" x="370.5" y="571.042">Make Actor Profile Template</text><polygon fill="#181818" points="414,609.6016,404,613.6016,414,617.6016,410,613.6016" style="stroke:#181818;stroke-width:1.0;"/><line style="stroke:#181818;stroke-width:1.0;" x1="408" x2="502" y1="613.6016" y2="613.6016"/><text fill="#000000" font-family="sans-serif" font-size="13" lengthAdjust="spacing" textLength="76" x="420" y="592.3936">Data Storage</text><text fill="#000000" font-family="sans-serif" font-size="13" lengthAdjust="spacing" textLength="34" x="420" y="608.7451">[SQL]</text><polygon fill="#181818" points="263,670.3047,273,674.3047,263,678.3047,267,674.3047" style="stroke:#181818;stroke-width:1.0;"/><line style="stroke:#181818;stroke-width:1.0;" x1="51" x2="269" y1="674.3047" y2="674.3047"/><text fill="#000000" font-family="sans-serif" font-size="13" lengthAdjust="spacing" textLength="200" x="58" y="653.0967">Make Restaurant Review Template</text><text fill="#000000" font-family="sans-serif" font-size="13" lengthAdjust="spacing" textLength="145" x="58" y="669.4482">[HTML with Tcl and SQL]</text><path d="M247.5,689.3047 L513.5,689.3047 L513.5,697.6563 L503.5,707.6563 L247.5,707.6563 L247.5,689.3047 " fill="#EEEEEE" style="stroke:#000000;stroke-width:1.5;"/><rect fill="none" height="127.7578" style="stroke:#000000;stroke-width:1.5;" width="389" x="247.5" y="689.3047"/><text fill="#000000" font-family="sans-serif" font-size="13" font-weight="bold" lengthAdjust="spacing" textLength="221" x="262.5" y="703.7998">Make Restaurant Review Template</text><polygon fill="#181818" points="491,726.0078,501,730.0078,491,734.0078,495,730.0078" style="stroke:#181818;stroke-width:1.0;"/><line style="stroke:#181818;stroke-width:1.0;" x1="275" x2="497" y1="730.0078" y2="730.0078"/><text fill="#000000" font-family="sans-serif" font-size="13" lengthAdjust="spacing" textLength="200" x="282" y="725.1514">Make Restaurant Review Template</text><path d="M355.5,745.0078 L621.5,745.0078 L621.5,753.3594 L611.5,763.3594 L355.5,763.3594 L355.5,745.0078 " fill="#EEEEEE" style="stroke:#000000;stroke-width:1.5;"/><rect fill="none" height="65.0547" style="stroke:#000000;stroke-width:1.5;" width="271" x="355.5" y="745.0078"/><text fill="#000000" font-family="sans-serif" font-size="13" font-weight="bold" lengthAdjust="spacing" textLength="221" x="370.5" y="759.5029">Make Restaurant Review Template</text><polygon fill="#181818" points="414,798.0625,404,802.0625,414,806.0625,410,802.0625" style="stroke:#181818;stroke-width:1.0;"/><line style="stroke:#181818;stroke-width:1.0;" x1="408" x2="502" y1="802.0625" y2="802.0625"/><text fill="#000000" font-family="sans-serif" font-size="13" lengthAdjust="spacing" textLength="76" x="420" y="780.8545">Data Storage</text><text fill="#000000" font-family="sans-serif" font-size="13" lengthAdjust="spacing" textLength="34" x="420" y="797.2061">[SQL]</text><polygon fill="#181818" points="263,858.7656,273,862.7656,263,866.7656,267,862.7656" style="stroke:#181818;stroke-width:1.0;"/><line style="stroke:#181818;stroke-width:1.0;" x1="51" x2="269" y1="862.7656" y2="862.7656"/><text fill="#000000" font-family="sans-serif" font-size="13" lengthAdjust="spacing" textLength="121" x="58" y="841.5576">Programmer Log Out</text><text fill="#000000" font-family="sans-serif" font-size="13" lengthAdjust="spacing" textLength="49" x="58" y="857.9092">[HTTPS]</text><!--SRC=[rLLBJy904BxlhvXm5hnxC27r80cDbQqdvJ2MeMniT-lk5FJVkss35HHY2P1mQRQR-HuxtpvOSKOG6Csa6KBKc59U3UMdOygX3v4rgSKy9ml3XDLIiIBdvoMzbwGJyiCQ_i6GqP8o8Ggqh19LeAVfjV0Ue5ihjKADpi1J6-i6RVKcIn3kHKipvnLQQdxT80WtuNV8-8gEEf6iGPjKmrckT2UU6Y74lrSE_TiE2uMRdmcDJGeZ_QAVx-CuabEHMbCMlmj41_uERjOTyvuaPPGmF3clMKrxIt4GNO-YAv2Fu-df3GnBNlX2bI1JRMFR0UdP2JC9yOqWD4j5C27_NK5CUP5vCtKuuHXMYXSG9ncWdZMEch1s8q_Kj7f_xhLyF6UDrc69LaEGFXYFy4ty3l4CGTOqrJ6QAtzRTahoR-WvejoXV3nl5nhcX1nZQQlR_92ZkHj-Zb3tg1_Nu-M5k_NAFPJSleFY2m00]--></g></svg>